<?xml version="1.0" encoding="UTF-8" standalone="no"?>
<!-- Created with Inkscape (http://www.inkscape.org/) -->

<svg
   xmlns:dc="http://purl.org/dc/elements/1.1/"
   xmlns:cc="http://creativecommons.org/ns#"
   xmlns:rdf="http://www.w3.org/1999/02/22-rdf-syntax-ns#"
   xmlns:svg="http://www.w3.org/2000/svg"
   xmlns="http://www.w3.org/2000/svg"
   xmlns:sodipodi="http://sodipodi.sourceforge.net/DTD/sodipodi-0.dtd"
   xmlns:inkscape="http://www.inkscape.org/namespaces/inkscape"
   width="1920"
   height="650"
   viewBox="0 0 508 171.97917"
   version="1.1"
   id="svg8"
   inkscape:version="0.92.2 (5c3e80d, 2017-08-06)"
   sodipodi:docname="Branch00.svg">
  <defs
     id="defs2" />
  <sodipodi:namedview
     id="base"
     pagecolor="#ffffff"
     bordercolor="#666666"
     borderopacity="1.0"
     inkscape:pageopacity="0.0"
     inkscape:pageshadow="2"
     inkscape:zoom="0.11171875"
     inkscape:cx="2946.3203"
     inkscape:cy="-1616.4981"
     inkscape:document-units="mm"
     inkscape:current-layer="layer1"
     showgrid="false"
     units="px"
     inkscape:window-width="1920"
     inkscape:window-height="1046"
     inkscape:window-x="-11"
     inkscape:window-y="-11"
     inkscape:window-maximized="1"
     inkscape:snap-page="true"
     inkscape:snap-center="false" />
  <metadata
     id="metadata5">
    <rdf:RDF>
      <cc:Work
         rdf:about="">
        <dc:format>image/svg+xml</dc:format>
        <dc:type
           rdf:resource="http://purl.org/dc/dcmitype/StillImage" />
        <dc:title></dc:title>
      </cc:Work>
    </rdf:RDF>
  </metadata>
  <g
     inkscape:label="Layer 1"
     inkscape:groupmode="layer"
     id="layer1"
     transform="translate(0,-125.02084)">
    <path
       style="fill:#846f00;fill-opacity:1;stroke-width:0.26458332"
       d="m 474.69585,295.92042 c -6.89409,-0.5586 -12.57493,-1.05585 -12.62409,-1.10501 -0.16508,-0.16505 -0.88503,-11.38858 -0.7451,-11.615 0.0761,-0.12305 0.93494,-0.23781 1.9086,-0.25503 0.9737,-0.0172 2.12752,-0.10889 2.56408,-0.20372 0.67596,-0.14682 0.37166,-0.2847 -2.05052,-0.92909 l -2.84427,-0.75667 v -3.16957 -3.16957 l 2.84427,0.1569 c 1.56435,0.0863 4.77343,0.23168 7.13129,0.32308 l 4.28701,0.16617 0.13446,-0.62488 c 0.074,-0.34369 0.17005,-0.86301 0.2136,-1.15406 0.047,-0.31459 0.31943,-0.56345 0.67175,-0.61371 0.693,-0.0989 0.669,-0.0142 0.30216,-1.0666 l -0.29049,-0.83323 -5.19962,-10e-4 c -2.8598,-7.9e-4 -6.3605,-0.0782 -7.77933,-0.1722 l -2.57969,-0.17083 v -8.07898 c 0,-7.93072 0.0106,-8.09021 0.57529,-8.69134 0.4885,-0.51999 0.50845,-0.61237 0.13229,-0.61237 -0.36505,0 -0.44299,-0.27932 -0.44299,-1.5875 v -1.5875 h 3.26546 c 1.79599,0 4.88259,-0.0776 6.85906,-0.17234 l 3.59362,-0.17235 0.48313,-0.90417 c 0.31562,-0.59074 0.73533,-0.9552 1.21071,-1.05135 0.78427,-0.15864 0.90776,-0.70159 0.55769,-2.45191 l -0.16989,-0.84953 -3.20355,0.0501 c -1.76194,0.0276 -4.6431,0.0378 -6.40257,0.0227 l -3.19903,-0.0274 -0.34044,-1.52136 c -0.18722,-0.83674 -0.38753,-1.6442 -0.44513,-1.79434 -0.0576,-0.15015 0.52175,-0.57974 1.28746,-0.95463 l 1.39213,-0.68164 -1.11718,-0.56994 c -1.26883,-0.64732 -1.25137,-0.59769 -1.64158,-4.66455 -0.37491,-3.90734 -0.39859,-3.74068 0.58209,-4.098 l 0.85989,-0.31332 -0.82687,-0.40639 c -0.7221,-0.3549 -0.84754,-0.57828 -0.98989,-1.76309 -0.0897,-0.74618 -0.16404,-1.67213 -0.16531,-2.05766 l -0.003,-0.70096 3.37344,-0.21274 c 1.85539,-0.11701 4.20688,-0.22077 5.22552,-0.23058 1.01865,-0.01 2.71232,-0.0451 3.7637,-0.0785 l 1.91196,-0.0606 -0.15793,-0.78968 c -0.11367,-0.5683 -0.0455,-0.83284 0.24331,-0.94365 0.29874,-0.11464 0.39746,-0.55503 0.38645,-1.72387 -0.008,-0.86344 -0.0281,-1.56989 -0.0443,-1.56989 -0.57168,0 -12.96032,-1.08072 -13.01496,-1.13535 -0.15869,-0.15869 -0.87037,-11.3874 -0.73559,-11.60551 0.0761,-0.12305 0.93493,-0.23781 1.9086,-0.25502 0.97369,-0.0172 2.12751,-0.1089 2.56408,-0.20372 0.67595,-0.14683 0.37166,-0.28471 -2.05053,-0.92909 l -2.84427,-0.75667 v -3.16957 -3.16957 l 2.84427,0.1569 c 1.56435,0.0863 4.77343,0.23168 7.13129,0.32307 l 4.28702,0.16618 0.13446,-0.62489 c 0.074,-0.34368 0.17005,-0.86301 0.2136,-1.15405 0.047,-0.3146 0.31943,-0.56345 0.67175,-0.61371 0.69427,-0.099 0.67051,-0.01 0.29205,-1.09559 l -0.30057,-0.86223 -6.92642,0.19239 -6.9264,0.19238 -0.34739,-1.55245 c -0.19106,-0.85385 -0.3945,-1.67531 -0.4521,-1.82545 -0.0576,-0.15015 0.52316,-0.58207 1.29051,-0.95982 l 1.39523,-0.68682 -1.26611,-0.61879 c -0.76288,-0.37286 -1.31064,-0.83265 -1.37817,-1.15685 -0.20568,-0.98734 -1.27042,-12.58669 -1.16435,-12.68454 0.0574,-0.053 3.28184,-0.31142 7.16529,-0.57423 l 7.0608,-0.47784 -0.14774,-0.73884 c -0.10658,-0.5328 -0.0281,-0.78476 0.28136,-0.90351 0.27911,-0.10711 0.42912,-0.4785 0.42912,-1.06241 0,-1.07707 0.6249,-1.03304 -8.54575,-0.60213 -3.46323,0.16272 -6.34709,0.24558 -6.40855,0.18412 -0.0615,-0.0615 -0.23246,-2.36744 -0.37997,-5.12439 -0.14753,-2.75694 -0.33319,-5.86143 -0.41261,-6.89887 l -0.14439,-1.88625 1.13263,-0.45689 c 2.65224,-1.06991 2.61977,-1.0119 0.67053,-1.19833 -0.98173,-0.0939 -1.83197,-0.22077 -1.88939,-0.28192 -0.0574,-0.0612 -0.14898,-1.02463 -0.20349,-2.14105 -0.0972,-1.9915 -0.0865,-2.03225 0.56648,-2.15636 0.36605,-0.0696 3.61235,-0.45833 7.21399,-0.86391 l 6.54844,-0.73741 v -0.88316 c 0,-0.77028 0.10179,-0.90352 0.7964,-1.04244 l 0.79642,-0.15928 -0.17148,-2.94296 c -0.0943,-1.61863 -0.21005,-2.98804 -0.25717,-3.04313 -0.10314,-0.12057 -41.43717,1.79479 -42.57146,1.9727 -0.54012,0.0847 -2.10415,1.2637 -4.89479,3.68979 -2.25557,1.96091 -4.25807,3.56541 -4.44998,3.56555 -0.30186,2.2e-4 -3.53456,-0.77418 -6.72541,-1.61109 l -0.98894,-0.25938 3.37019,-3.28815 3.37018,-3.28815 -0.92604,-0.0103 c -0.50932,-0.006 -36.76386,-1.50898 -80.56563,-3.34073 l -79.63958,-3.33046 -39.81979,-0.46912 -39.81979,-0.46912 -50.8,2.08553 c -27.94,1.14705 -51.43875,2.05339 -52.21944,2.0141 l -1.41945,-0.0714 -1.43366,-2.48266 c -0.78851,-1.36547 -1.39091,-2.52541 -1.33867,-2.57765 0.0522,-0.0522 9.31333,-0.44779 20.58019,-0.87901 41.03914,-1.57067 87.59908,-4.35385 113.46112,-6.78227 l 9.63218,-0.90445 H 363.71083 508 v 14.14631 14.1463 l -3.50573,-2.28692 c -2.11227,-1.37793 -6.08229,-3.54517 -9.98802,-5.45253 -6.2561,-3.05514 -6.5977,-3.18697 -9.78958,-3.77809 -1.81901,-0.33687 -3.60916,-0.61767 -3.97809,-0.62399 l -0.67083,-0.0115 0.0991,2.71198 c 0.0967,2.64549 0.11961,2.73145 0.9354,3.5061 0.45996,0.43676 1.01487,1.04389 1.23315,1.34917 l 0.39687,0.55506 6.35,-0.47142 c 3.4925,-0.25928 6.53108,-0.47946 6.75238,-0.48928 0.35819,-0.0159 0.34936,0.83118 -0.0805,7.71356 -0.26561,4.25228 -0.53263,7.7811 -0.59335,7.84183 -0.0607,0.0607 -0.97259,0.31301 -2.02637,0.56064 l -1.91595,0.45022 1.90846,0.4677 1.9085,0.4677 v 2.08816 2.08817 l -0.72761,-0.002 c -1.37128,-0.004 -13.95669,0.59501 -14.03998,0.6685 -0.0457,0.0404 -0.004,0.49548 0.0927,1.01132 0.1424,0.75905 0.32226,0.97003 0.9431,1.1064 0.58881,0.12931 0.76716,0.3174 0.76716,0.80893 0,0.77806 -0.45071,0.77698 6.94532,0.0167 l 5.75468,-0.59156 v 0.61193 c 0,0.43807 -0.26135,0.73657 -0.91985,1.05059 l -0.91987,0.43865 1.01113,0.86549 1.01113,0.86548 0.17698,5.50461 c 0.0973,3.02753 0.25101,6.82184 0.3415,8.43179 l 0.16449,2.9272 -6.05515,0.31884 c -7.86757,0.41427 -7.87191,0.41421 -7.66794,-0.11727 0.11972,-0.31204 0.0506,-0.38297 -0.25792,-0.26458 -0.23185,0.089 -0.53086,0.16175 -0.66447,0.16175 -0.27572,0 -0.31586,0.89227 -0.0907,2.01745 0.11255,0.56262 0.412,0.87161 1.15014,1.18677 0.76861,0.32815 1.03619,0.61703 1.16414,1.25677 0.16526,0.82628 0.17492,0.83064 1.82639,0.82348 0.91316,-0.004 4.09774,-0.1164 7.07689,-0.24986 2.97916,-0.13346 5.44679,-0.2125 5.48365,-0.17565 0.0369,0.0368 -0.49996,3.25194 -1.19293,7.14463 -0.86032,4.8327 -1.38279,7.15531 -1.64719,7.32255 -0.21299,0.13471 -1.10162,0.24857 -1.97474,0.25303 -1.6963,0.009 -1.62513,0.36454 0.13229,0.66145 1.77152,0.2993 1.77416,0.31147 0.77666,3.5499 l -0.90326,2.93226 -1.19349,-0.003 c -0.6564,-0.002 -3.26757,-0.18 -5.80257,-0.3959 -2.53503,-0.2159 -4.65572,-0.34598 -4.7126,-0.28908 -0.0569,0.0569 -0.17172,0.76456 -0.25509,1.57256 -0.14644,1.41873 -0.12774,1.47509 0.54539,1.64404 0.52123,0.13082 0.69704,0.34233 0.69704,0.83854 0,0.65547 0.0204,0.66155 1.65365,0.49636 0.9095,-0.092 2.96333,-0.22959 4.56406,-0.3058 1.60073,-0.0762 3.71409,-0.22936 4.69636,-0.34033 l 1.78593,-0.20178 0.0583,1.73352 c 0.0321,0.95344 0.0618,3.48674 0.0661,5.62955 l 0.008,3.89602 -1.85208,0.58916 -1.85208,0.58916 1.87997,0.24338 1.88,0.24338 0.0204,3.90042 0.0206,3.90041 -3.88488,0.1526 c -2.1367,0.0839 -5.43269,0.14948 -7.32446,0.14567 l -3.43958,-0.007 v 1.404 c 0,1.21676 0.0845,1.44612 0.63351,1.71984 0.34846,0.17372 0.8776,0.70133 1.17592,1.17248 l 0.54237,0.85662 6.69546,-0.1551 6.69544,-0.15511 -0.0172,0.97482 c -0.01,0.53616 -0.33923,4.12998 -0.73293,7.98628 l -0.71583,7.01146 -3.16968,-0.0475 -3.16968,-0.0475 3.04271,0.45647 3.04271,0.45648 -0.0634,1.44314 c -0.0349,0.79373 -0.13401,1.9663 -0.22035,2.60571 l -0.157,1.16256 -7.68445,-0.19176 -7.68446,-0.19176 0.18934,1.01357 c 0.10414,0.55747 0.20849,1.01711 0.23191,1.02143 0.0233,0.004 0.47215,0.2027 0.99721,0.44085 0.71022,0.32212 0.99648,0.64195 1.11787,1.24892 0.16171,0.80849 0.17833,0.81585 1.82345,0.80872 0.91316,-0.004 4.09774,-0.11639 7.07689,-0.24985 2.97916,-0.13347 5.44679,-0.21251 5.48365,-0.17566 0.0369,0.0369 -0.49996,3.25194 -1.19293,7.14463 -0.86032,4.8327 -1.38279,7.15531 -1.64719,7.32255 -0.21299,0.13471 -1.10162,0.24857 -1.97474,0.25303 -1.6963,0.009 -1.62512,0.36454 0.13229,0.66146 1.77152,0.29929 1.77416,0.31147 0.77666,3.5499 l -0.90321,2.93239 -1.72265,-0.0318 c -0.94745,-0.0175 -7.36325,-0.48881 -14.25736,-1.0474 z"
       id="path115"
       inkscape:connector-curvature="0" />
  </g>
</svg>
