<?xml version="1.0" encoding="UTF-8" standalone="no"?>
<!-- Created with Inkscape (http://www.inkscape.org/) -->

<svg
   xmlns:dc="http://purl.org/dc/elements/1.1/"
   xmlns:cc="http://creativecommons.org/ns#"
   xmlns:rdf="http://www.w3.org/1999/02/22-rdf-syntax-ns#"
   xmlns:svg="http://www.w3.org/2000/svg"
   xmlns="http://www.w3.org/2000/svg"
   xmlns:sodipodi="http://sodipodi.sourceforge.net/DTD/sodipodi-0.dtd"
   xmlns:inkscape="http://www.inkscape.org/namespaces/inkscape"
   width="1920"
   height="400"
   viewBox="0 0 508 105.83334"
   version="1.1"
   id="svg8"
   inkscape:version="0.92.2 (5c3e80d, 2017-08-06)"
   sodipodi:docname="Branch01.svg">
  <defs
     id="defs2" />
  <sodipodi:namedview
     id="base"
     pagecolor="#ffffff"
     bordercolor="#666666"
     borderopacity="1.0"
     inkscape:pageopacity="0.0"
     inkscape:pageshadow="2"
     inkscape:zoom="0.446875"
     inkscape:cx="1173.8036"
     inkscape:cy="142.37228"
     inkscape:document-units="mm"
     inkscape:current-layer="layer1"
     showgrid="false"
     units="px"
     inkscape:window-width="1920"
     inkscape:window-height="1046"
     inkscape:window-x="-11"
     inkscape:window-y="-11"
     inkscape:window-maximized="1"
     inkscape:snap-page="true"
     inkscape:snap-center="false" />
  <metadata
     id="metadata5">
    <rdf:RDF>
      <cc:Work
         rdf:about="">
        <dc:format>image/svg+xml</dc:format>
        <dc:type
           rdf:resource="http://purl.org/dc/dcmitype/StillImage" />
        <dc:title></dc:title>
      </cc:Work>
    </rdf:RDF>
  </metadata>
  <g
     inkscape:label="Layer 1"
     inkscape:groupmode="layer"
     id="layer1"
     transform="translate(0,-191.16667)">
    <path
       transform="translate(0,191.16667)"
       style="fill:#a38900;fill-opacity:1;stroke-width:0.26458332"
       d="m 502.73471,55.27474 c -0.40773,-1.51052 -0.41041,-1.72234 -0.031,-2.44739 0.70437,-1.34607 0.53417,-2.8824 -0.5302,-4.78566 -0.52184,-0.93315 -1.0458,-1.69664 -1.16434,-1.69664 -0.11854,0 -0.32746,0.44649 -0.46427,0.99219 l -0.24874,0.99219 -1.33027,-2.80684 c -0.73164,-1.54377 -2.00999,-4.28924 -2.84077,-6.10104 l -1.51051,-3.2942 -5.33729,-3.22292 c -3.86448,-2.33356 -5.49082,-3.18142 -5.89368,-3.07255 -0.38198,0.10323 -2.32576,-0.73508 -6.20104,-2.6744 -3.10456,-1.55363 -8.39059,-3.89806 -11.74673,-5.20985 l -6.10208,-2.38507 -6.21771,-0.89513 c -8.13701,-1.17145 -7.55701,-1.01451 -8.02124,-2.17038 -0.21559,-0.53677 -0.34001,-1.03002 -0.2765,-1.09611 0.0635,-0.0661 1.17736,-0.24467 2.47522,-0.39687 L 449.6533,14.72735 434.00866,9.98862 418.36401,5.2499 410.19954,4.26982 c -4.49046,-0.53905 -8.20387,-1.026 -8.25202,-1.08211 -0.0482,-0.0561 -0.15492,-0.78664 -0.23725,-1.62339 l -0.14971,-1.52135 0.97307,5.6e-4 c 0.53519,3.1e-4 4.64086,0.29274 9.12371,0.64985 l 8.15063,0.64928 15.87442,4.78784 c 8.73094,2.63331 16.04667,4.85393 16.25718,4.93471 0.57883,0.22211 0.47197,-0.63303 -0.28128,-2.25112 -0.36239,-0.77843 -0.65888,-1.56036 -0.65888,-1.73761 0,-0.17726 0.67687,-0.53565 1.50416,-0.79643 l 1.50416,-0.47415 1.47241,1.56745 c 0.80982,0.86209 1.77005,1.94816 2.13385,2.41347 0.612,0.78276 1.08682,0.96242 6.35,2.40264 3.1287,0.85614 10.80444,2.72263 17.0572,4.14776 l 11.36866,2.59114 2.60846,-0.5431 2.60846,-0.5431 3.01619,0.95614 c 2.98852,0.94736 3.01625,0.96367 3.02236,1.77765 0.005,0.64886 0.47882,1.36107 2.25513,3.38884 l 2.24896,2.56732 0.004,9.97262 0.004,9.97262 -2.3052,5.22552 c -1.26786,2.87403 -2.38768,5.22552 -2.48849,5.22552 -0.10081,0 -0.38416,-0.74414 -0.62966,-1.65365 z"
       id="use83"
       inkscape:connector-curvature="0" />
    <path
       style="fill:#846f00;fill-opacity:1;stroke-width:0.29503298"
       d="m 13.521014,271.3079 c -0.149368,-0.35681 -1.615048,-4.74129 -3.257066,-9.74329 -2.9831343,-9.08738 -2.9884282,-9.10842 -6.7165216,-26.70038 L -0.18360777,217.2584 3.575307,204.33254 c 2.067403,-7.10922 3.8354125,-13.0285 3.9289098,-13.15395 0.2245069,-0.30123 8.6658872,8.22733 12.8675622,13.00045 l 3.319122,3.77053 26.02575,2.67469 26.025751,2.67469 31.220808,0.82605 c 17.17144,0.45433 65.77137,2.14096 107.99985,3.74805 l 76.77904,2.92199 33.63271,3.30695 33.63271,3.30693 28.13892,-2.20129 28.13891,-2.20129 8.81821,-3.24105 8.8182,-3.24106 3.57268,1.73265 c 1.96498,0.95296 3.57185,1.80574 3.5708,1.89506 0,0.0893 -2.20027,1.65786 -4.88717,3.48564 -4.63351,3.15196 -4.82871,3.32354 -3.78782,3.32925 0.60363,0.003 16.40161,0.74408 35.10665,1.64615 25.33994,1.22205 35.11928,1.58458 38.36401,1.4222 l 4.35484,-0.21793 v 5.23631 5.23631 h -0.62884 c -0.34586,0 -6.46608,0.43571 -13.60048,0.96825 l -12.97163,0.96826 -94.60037,-0.95693 -94.60037,-0.95693 -31.45238,-2.43342 -31.45238,-2.43342 -44.65669,4.19185 c -24.56119,2.30551 -45.05507,4.23589 -45.54198,4.28972 l -0.88529,0.0979 3.89809,6.48987 c 3.2189,5.35913 3.81673,6.52516 3.43118,6.69239 -0.25679,0.11138 -1.56971,0.2864 -2.91761,0.38893 l -2.45073,0.18642 -5.84734,-6.148 c -3.21603,-3.38139 -6.01691,-6.14799 -6.22418,-6.14799 -0.20727,0 -5.81929,-0.66962 -12.47115,-1.48804 l -12.09428,-1.48803 -40.33246,0.22802 -40.33245,0.22802 -1.473944,1.52712 c -0.810669,0.83991 -2.197515,1.86998 -3.081881,2.28905 -0.884366,0.41907 -1.648365,0.79854 -1.697774,0.84327 -0.04941,0.0447 0.165891,2.10381 0.478447,4.57573 l 0.568283,4.49442 -2.111992,7.14383 c -1.161597,3.9291 -2.17071,7.36267 -2.242476,7.63016 -0.104093,0.38799 -0.185407,0.35514 -0.402059,-0.1624 z"
       id="path47"
       inkscape:connector-curvature="0" />
    <path
       style="fill:#a38900;fill-opacity:1;stroke-width:0.26458332"
       d="M 15.412839,309.56445 C 15.186713,309.19654 3.3207513,270.27074 3.3390253,269.9568 c 0.0095,-0.16274 0.933734,-1.0698 2.053912,-2.01568 l 2.036687,-1.71979 -3.506422,-10.31875 -3.50642192,-10.31875 0.53264896,-3.04271 c 0.29295696,-1.67349 0.59148596,-3.30988 0.66339696,-3.63641 0.149058,-0.67685 1.056872,-1.11706 4.222517,-2.04755 1.470196,-0.43214 2.843946,-1.10264 4.4979167,-2.19532 4.27479,-2.8241 8.106911,-4.09081 13.890625,-4.59155 1.673489,-0.14489 3.638021,-0.31833 4.365625,-0.38543 0.727604,-0.0671 24.718698,1.30376 53.313541,3.04636 l 51.990619,3.16834 32.76732,4.00291 32.76732,4.0029 11.88271,-3.07051 11.88271,-3.0705 2.84268,1.63119 c 1.56348,0.89715 2.87469,1.65665 2.9138,1.68779 0.0391,0.0311 -2.58026,0.80787 -5.82083,1.72608 -3.24058,0.91821 -6.01068,1.73493 -6.15579,1.81495 -0.14511,0.08 23.25067,2.08198 51.99062,4.44881 l 52.25446,4.30334 40.21667,4.75607 40.21667,4.75607 15.08125,-1.39928 c 8.29468,-0.7696 15.11146,-1.37858 15.14842,-1.3533 0.14722,0.10075 0.6226,3.10242 0.50927,3.21574 -0.0668,0.0668 -10.49223,0.99426 -23.16771,2.0611 l -23.04632,1.9397 -19.77911,-1.3138 c -10.87853,-0.7226 -53.83101,-3.3605 -95.44997,-5.862 l -75.67083,-4.54818 -24.34167,2.57228 c -13.38792,1.41475 -24.69886,2.60748 -25.13542,2.65051 -0.64013,0.0631 0.26086,0.56673 4.65541,2.60232 l 5.44916,2.52409 -1.11867,0.97312 -1.11867,0.97312 -11.73882,-2.78022 -11.73882,-2.78022 -17.99167,-1.97058 -17.991667,-1.97058 -23.415622,2.57987 -23.415625,2.57987 -5.470546,2.99198 -5.470546,2.99198 -4.069096,4.94215 -4.069096,4.94216 -6.300817,15.08125 c -3.46545,8.29469 -6.334204,15.11894 -6.37501,15.165 -0.0408,0.0461 -0.133944,-0.0135 -0.206976,-0.13229 z"
       id="path60"
       inkscape:connector-curvature="0" />
    <path
       style="fill:#a38900;fill-opacity:1;stroke-width:0.26458332"
       d="m 502.73471,246.44141 c -0.40773,-1.51052 -0.41041,-1.72234 -0.031,-2.44739 0.70437,-1.34607 0.53417,-2.8824 -0.5302,-4.78566 -0.52184,-0.93315 -1.0458,-1.69664 -1.16434,-1.69664 -0.11854,0 -0.32746,0.44649 -0.46427,0.99219 l -0.24874,0.99219 -1.33027,-2.80684 c -0.73164,-1.54377 -2.00999,-4.28924 -2.84077,-6.10104 l -1.51051,-3.2942 -5.33729,-3.22292 c -3.86448,-2.33356 -5.49082,-3.18142 -5.89368,-3.07255 -0.38198,0.10323 -2.32576,-0.73508 -6.20104,-2.6744 -3.10456,-1.55363 -8.39059,-3.89806 -11.74673,-5.20985 l -6.10208,-2.38507 -6.21771,-0.89513 c -8.13701,-1.17145 -7.55701,-1.01451 -8.02124,-2.17038 -0.21559,-0.53677 -0.34001,-1.03002 -0.2765,-1.09611 0.0635,-0.0661 1.17736,-0.24467 2.47522,-0.39687 l 2.35974,-0.27672 -15.64464,-4.73873 -15.64465,-4.73872 -8.16447,-0.98008 c -4.49046,-0.53905 -8.20387,-1.026 -8.25202,-1.08211 -0.0482,-0.0561 -0.15492,-0.78664 -0.23725,-1.62339 l -0.14971,-1.52135 0.97307,5.6e-4 c 0.53519,3.1e-4 4.64086,0.29274 9.12371,0.64985 l 8.15063,0.64928 15.87442,4.78784 c 8.73094,2.63331 16.04667,4.85393 16.25718,4.93471 0.57883,0.22211 0.47197,-0.63303 -0.28128,-2.25112 -0.36239,-0.77843 -0.65888,-1.56036 -0.65888,-1.73761 0,-0.17726 0.67687,-0.53565 1.50416,-0.79643 l 1.50416,-0.47415 1.47241,1.56745 c 0.80982,0.86209 1.77005,1.94816 2.13385,2.41347 0.612,0.78276 1.08682,0.96242 6.35,2.40264 3.1287,0.85614 10.80444,2.72263 17.0572,4.14776 l 11.36866,2.59114 2.60846,-0.5431 2.60846,-0.5431 3.01619,0.95614 c 2.98852,0.94736 3.01625,0.96367 3.02236,1.77765 0.005,0.64886 0.47882,1.36107 2.25513,3.38884 l 2.24896,2.56732 0.004,9.97262 0.004,9.97262 -2.3052,5.22552 c -1.26786,2.87403 -2.38768,5.22552 -2.48849,5.22552 -0.10081,0 -0.38416,-0.74414 -0.62966,-1.65365 z"
       id="path75"
       inkscape:connector-curvature="0" />
    <path
       inkscape:connector-curvature="0"
       id="path62"
       d="m 13.521014,271.3079 c -0.149368,-0.35681 -1.615048,-4.74129 -3.257066,-9.74329 -2.9831343,-9.08738 -2.9884282,-9.10842 -6.7165216,-26.70038 L -0.18360777,217.2584 3.575307,204.33254 c 2.067403,-7.10922 3.8354125,-13.0285 3.9289098,-13.15395 0.2245069,-0.30123 8.6658872,8.22733 12.8675622,13.00045 l 3.319122,3.77053 26.02575,2.67469 26.025751,2.67469 31.220808,0.82605 c 17.17144,0.45433 65.77137,2.14096 107.99985,3.74805 l 76.77904,2.92199 33.63271,3.30695 33.63271,3.30693 28.13892,-2.20129 28.13891,-2.20129 8.81821,-3.24105 8.8182,-3.24106 3.57268,1.73265 c 1.96498,0.95296 3.57185,1.80574 3.5708,1.89506 0,0.0893 -2.20027,1.65786 -4.88717,3.48564 -4.63351,3.15196 -4.82871,3.32354 -3.78782,3.32925 0.60363,0.003 16.40161,0.74408 35.10665,1.64615 25.33994,1.22205 35.11928,1.58458 38.36401,1.4222 l 4.35484,-0.21793 v 5.23631 5.23631 h -0.62884 c -0.34586,0 -6.46608,0.43571 -13.60048,0.96825 l -12.97163,0.96826 -94.60037,-0.95693 -94.60037,-0.95693 -31.45238,-2.43342 -31.45238,-2.43342 -44.65669,4.19185 c -24.56119,2.30551 -45.05507,4.23589 -45.54198,4.28972 l -0.88529,0.0979 3.89809,6.48987 c 3.2189,5.35913 3.81673,6.52516 3.43118,6.69239 -0.25679,0.11138 -1.56971,0.2864 -2.91761,0.38893 l -2.45073,0.18642 -5.84734,-6.148 c -3.21603,-3.38139 -6.01691,-6.14799 -6.22418,-6.14799 -0.20727,0 -5.81929,-0.66962 -12.47115,-1.48804 l -12.09428,-1.48803 -40.33246,0.22802 -40.33245,0.22802 -1.473944,1.52712 c -0.810669,0.83991 -2.197515,1.86998 -3.081881,2.28905 -0.884366,0.41907 -1.648365,0.79854 -1.697774,0.84327 -0.04941,0.0447 0.165891,2.10381 0.478447,4.57573 l 0.568283,4.49442 -2.111992,7.14383 c -1.161597,3.9291 -2.17071,7.36267 -2.242476,7.63016 -0.104093,0.38799 -0.185407,0.35514 -0.402059,-0.1624 z"
       style="fill:#846f00;fill-opacity:1;stroke-width:0.29503298" />
  </g>
</svg>
