<?xml version="1.0" encoding="UTF-8" standalone="no"?>
<!-- Created with Inkscape (http://www.inkscape.org/) -->

<svg
   xmlns:dc="http://purl.org/dc/elements/1.1/"
   xmlns:cc="http://creativecommons.org/ns#"
   xmlns:rdf="http://www.w3.org/1999/02/22-rdf-syntax-ns#"
   xmlns:svg="http://www.w3.org/2000/svg"
   xmlns="http://www.w3.org/2000/svg"
   xmlns:sodipodi="http://sodipodi.sourceforge.net/DTD/sodipodi-0.dtd"
   xmlns:inkscape="http://www.inkscape.org/namespaces/inkscape"
   width="1920"
   height="1080"
   viewBox="0 0 507.99999 285.75001"
   version="1.1"
   id="svg3822"
   inkscape:version="0.92.2 (5c3e80d, 2017-08-06)"
   sodipodi:docname="comingSoon.svg">
  <defs
     id="defs3816" />
  <sodipodi:namedview
     id="base"
     pagecolor="#ffffff"
     bordercolor="#666666"
     borderopacity="1.0"
     inkscape:pageopacity="0.0"
     inkscape:pageshadow="2"
     inkscape:zoom="0.35"
     inkscape:cx="1154.573"
     inkscape:cy="205.24971"
     inkscape:document-units="mm"
     inkscape:current-layer="svg3822"
     showgrid="false"
     units="px"
     inkscape:window-width="1920"
     inkscape:window-height="1046"
     inkscape:window-x="-11"
     inkscape:window-y="-11"
     inkscape:window-maximized="1" />
  <metadata
     id="metadata3819">
    <rdf:RDF>
      <cc:Work
         rdf:about="">
        <dc:format>image/svg+xml</dc:format>
        <dc:type
           rdf:resource="http://purl.org/dc/dcmitype/StillImage" />
        <dc:title></dc:title>
      </cc:Work>
    </rdf:RDF>
  </metadata>
  <g
     inkscape:groupmode="layer"
     id="layer4"
     inkscape:label="Layer 3">
    <g
       inkscape:groupmode="layer"
       id="layer7"
       inkscape:label="Layer 6">
      <path
         style="display:inline;fill:#b9ab3a;fill-opacity:1;stroke-width:0.29844999"
         d="M -25.52778,140.36115 V -14.08672 H 254.26909 534.06597 V 140.36115 294.80903 H 254.26909 -25.52778 Z"
         id="path4751"
         inkscape:connector-curvature="0" />
    </g>
    <g
       inkscape:groupmode="layer"
       id="layer6"
       inkscape:label="Layer 5"
       style="display:inline">
      <path
         style="fill:#b49a18;fill-opacity:1;stroke-width:0.29056919"
         d="m 7.974152,265.90647 c -17.259811,-3.60356 -31.431146,-6.5902 -31.491855,-6.63697 -0.06073,-0.0468 -1.270206,-3.8471 -2.68777,-8.44517 l -2.577377,-8.36012 v -25.05785 -25.05784 l 4.085225,-8.50733 4.085237,-8.50733 5.430911,-4.53991 c 5.964061,-4.9856 8.845962,-6.76482 12.591005,-7.77338 l 2.220413,-0.59798 4.41927,1.26916 c 2.430589,0.69803 4.524884,1.38021 4.653979,1.51596 0.129095,0.13574 2.097249,3.31957 4.373693,7.07518 2.849855,4.70161 5.226248,8.19598 7.629855,11.21935 l 3.490861,4.39095 4.313786,0.37554 c 2.372582,0.20655 4.354112,0.32271 4.4034,0.25814 1.599417,-2.0952 4.771104,-5.58715 6.3941,-7.03973 1.79793,-1.60913 2.378293,-2.38288 3.800249,-5.06651 2.178945,-4.11232 6.016919,-9.07742 7.016722,-9.07742 0.637755,0 5.218088,0.61698 7.576811,1.02059 0.899218,0.15388 0.92485,0.20506 1.711567,3.41785 0.484796,1.97978 1.933428,6.05213 3.685981,10.36189 l 2.887304,7.10023 2.789881,3.17288 2.78988,3.17288 1.32833,-0.16601 c 0.73057,-0.0913 3.2422,-0.3855 5.58138,-0.65375 l 4.25307,-0.48775 1.81748,-3.87925 c 0.99961,-2.1336 1.96236,-3.99684 2.13945,-4.14054 0.1771,-0.14369 1.50147,-0.42656 2.94305,-0.62862 l 2.62106,-0.36738 4.21098,2.33187 c 3.52032,1.94942 9.33285,4.4435 10.35573,4.4435 0.15031,0 2.17339,-0.76581 4.49571,-1.70179 l 4.22241,-1.70181 6.59272,-0.38433 6.59272,-0.38434 2.60164,0.83143 2.60164,0.83143 9.08591,-1.10915 c 4.99725,-0.61003 9.75631,-1.1717 10.57569,-1.24816 0.92916,-0.0867 4.70157,0.32863 10.02464,1.10368 l 8.53485,1.24268 7.35384,3.01938 c 6.69995,2.75089 7.87245,3.13519 13.18622,4.32185 l 5.83237,1.30247 9.18762,-0.19171 9.18762,-0.1917 11.96543,-5.44563 11.96544,-5.44563 7.15394,-6.64991 c 3.93468,-3.65745 8.1947,-7.61585 9.46673,-8.79644 l 2.31277,-2.14654 2.97013,-0.63438 2.97011,-0.63438 2.30889,1.69128 2.30893,1.69128 h 3.27794 3.2779 l 3.61361,-4.28589 c 1.98746,-2.35725 4.40047,-5.05499 5.3622,-5.99501 l 1.74861,-1.70909 2.56,-0.23334 c 2.3414,-0.21341 2.83363,-0.15959 5.76423,0.63016 1.76233,0.47494 5.26549,1.64323 7.78484,2.59623 l 4.58061,1.73272 h 5.59977 5.59974 l 5.36509,-1.56489 c 9.30946,-2.71538 11.30748,-3.38689 17.93492,-6.02775 3.55735,-1.41751 6.66929,-2.57729 6.91541,-2.57729 0.24611,0 2.3539,0.54746 4.68394,1.21657 l 4.23644,1.21657 6.93214,5.82973 6.93211,5.82973 6.6144,2.39442 c 6.41833,2.32342 6.85853,2.43801 14.8473,3.86494 l 8.23287,1.47054 2.5534,1.91258 c 2.26357,1.69548 2.724,2.20504 4.05615,4.48892 l 1.50271,2.57633 h 2.87155 c 2.8028,0 2.97818,-0.0409 7.32443,-1.70483 3.26504,-1.25007 5.83111,-1.99266 9.61959,-2.7838 l 5.16669,-1.07897 3.25981,1.37101 c 1.79288,0.75405 5.41726,2.3183 8.05417,3.47611 l 4.7944,2.1051 8.0628,0.19095 8.0628,0.19095 5.68234,-1.47992 c 5.02051,-1.30755 6.27008,-1.76215 10.72901,-3.90327 l 5.04669,-2.42336 7.66327,-1.6291 c 7.6624,-1.62889 7.66385,-1.62908 12.81355,-1.62908 5.06785,0 5.22809,0.0193 10.01135,1.20793 l 4.86106,1.20794 2.39719,1.85881 2.3972,1.85882 v 39.62213 39.62213 l -2.10663,0.1596 c -2.47544,0.18754 -483.335837,11.55653 -485.90434,11.48825 -0.97874,-0.026 -15.507533,-2.92007 -33.124888,-6.59829 z"
         id="path4714"
         inkscape:connector-curvature="0" />
      <path
         style="fill:#000000;stroke-width:0.26458332"
         d=""
         id="path4710"
         inkscape:connector-curvature="0" />
      <path
         style="fill:#000000;stroke-width:0.26458332"
         d=""
         id="path4708"
         inkscape:connector-curvature="0" />
      <path
         style="fill:#000000;stroke-width:0.26458332"
         d=""
         id="path4706"
         inkscape:connector-curvature="0" />
      <path
         style="fill:#000000;stroke-width:0.26458332"
         d=""
         id="path4704"
         inkscape:connector-curvature="0" />
      <path
         style="fill:#000000;stroke-width:0.26458332"
         d=""
         id="path4702"
         inkscape:connector-curvature="0" />
      <path
         style="fill:#000000;stroke-width:0.26458332"
         d=""
         id="path4700"
         inkscape:connector-curvature="0" />
      <path
         style="fill:#000000;stroke-width:0.26458332"
         d=""
         id="path4698"
         inkscape:connector-curvature="0" />
      <path
         style="fill:#000000;stroke-width:0.26458332"
         d=""
         id="path4696"
         inkscape:connector-curvature="0" />
      <path
         style="fill:#000000;stroke-width:0.26458332"
         d=""
         id="path4694"
         inkscape:connector-curvature="0" />
      <path
         style="fill:#000000;stroke-width:0.26458332"
         d=""
         id="path4692"
         inkscape:connector-curvature="0" />
      <path
         style="fill:#000000;stroke-width:0.26458332"
         d=""
         id="path4690"
         inkscape:connector-curvature="0" />
    </g>
    <path
       style="fill:#a28800;fill-opacity:1;stroke-width:0.28194341"
       d="m 226.28467,259.26011 c -132.041103,-1.97938 -240.106469,-3.61248 -240.145236,-3.62909 -0.03879,-0.0166 -0.07044,-4.78926 -0.07044,-10.60587 v -10.57564 l 1.550479,-2.32984 1.550478,-2.32984 4.2280325,-88.52366 4.2280322,-88.523568 3.825922,-28.053368 c 2.104255,-15.4293497 3.921178,-28.3639159 4.037607,-28.7434869 0.206015,-0.6716555 0.235319,-0.6557778 1.0946074,0.5931625 l 0.8829244,1.2832847 -1.9486958,16.4644097 -1.948687,16.464412 -1.554899,52.582446 -1.55488964,52.582358 1.16324464,39.3311 1.163233,39.33112 3.3833847,8.31733 c 1.8608688,4.57453 3.4666499,8.4129 3.5684269,8.5297 0.260766,0.29929 6.7591827,-6.96513 7.0675277,-7.90063 0.139596,-0.42353 1.775557,-8.82658 3.635477,-18.67346 l 3.381659,-17.9034 2.541583,-31.01378 2.541593,-31.01377 0.746472,-22.27354 c 0.693949,-20.706151 0.73344,-23.90289 0.561173,-45.430679 l -0.18531,-23.15725 3.860354,-19.557172 c 2.123191,-10.7564455 3.891831,-19.5970754 3.9303,-19.6458485 0.110621,-0.1402346 1.958287,0.2490334 2.359778,0.4971721 0.286202,0.1768807 -0.209915,3.4798209 -2.344316,15.6077194 l -2.707339,15.383369 -0.0021,14.609116 c -0.0053,30.624212 -0.77908,71.548113 -1.993986,105.394813 l -1.153686,32.14155 1.502983,12.75794 c 0.826639,7.01687 1.573399,12.75793 1.659479,12.75793 0.0861,0 1.892518,-7.96137 4.014335,-17.69194 l 3.857838,-17.69196 1.694538,-20.58186 1.694548,-20.58187 0.39465,-20.58187 0.39466,-20.581803 -2.084317,-14.928871 c -1.146376,-8.210899 -2.082677,-15.823371 -2.080663,-16.916605 0.0021,-1.093244 0.504557,-10.678613 1.116773,-21.300834 1.041221,-18.065762 2.547998,-35.5292261 3.122118,-36.1852704 0.255001,-0.2913812 4.238944,0.9566427 4.400875,1.3786357 0.06394,0.1667258 -0.308932,3.4332221 -0.828685,7.2588789 l -0.945007,6.9557348 0.788788,22.484507 0.788799,22.484496 1.741723,10.155525 1.741712,10.155526 -0.752503,27.20744 C 53.55464,128.37699 53.2222,136.14402 51.86494,159.59792 l -1.582563,27.34737 1.759359,14.63868 1.759369,14.63869 2.543448,3.49817 c 2.117767,2.91272 2.643146,3.4748 3.139125,3.35843 0.327612,-0.0768 4.148154,-0.86272 8.490079,-1.74636 4.341936,-0.88365 7.914573,-1.62311 7.93921,-1.64326 0.02462,-0.0201 0.835313,-12.91439 1.801515,-28.65388 L 79.47117,162.4185 77.164321,140.42692 74.85746,118.43533 68.39113,86.011907 61.924809,53.588443 62.477404,29.200336 C 62.781338,15.78687 63.032194,1.5639322 63.034869,-2.4061982 l 0.0053,-7.2184258 2.717046,-0.19099 c 1.494384,-0.105069 2.744838,-0.155483 2.778789,-0.112102 0.03399,0.04337 -0.120415,8.720939 -0.343064,19.2834523 l -0.404794,19.2045607 1.724716,16.179329 1.724726,16.179339 5.081663,21.703353 5.081663,21.703272 3.366111,28.29292 c 1.85135,15.5611 3.366097,29.26003 3.366097,30.44208 0,1.18405 0.10635,2.02887 0.23677,1.8813 0.13022,-0.14731 0.723334,-11.62312 1.318021,-25.50178 L 90.769187,114.20618 90.16921,90.633135 89.569246,67.060113 90.812647,50.597225 c 0.84138,-11.140088 1.97288,-23.106121 3.49961,-37.00978 1.24091,-11.3007928 2.301334,-20.5920267 2.356474,-20.6471722 0.0552,-0.055199 0.585737,0.3968552 1.179044,1.004478 l 1.078764,1.1047523 -2.728855,34.4854249 -2.728887,34.485418 1.1413,15.365914 c 0.62771,8.451224 1.464617,22.91486 1.859794,32.14146 0.395167,9.2266 0.933074,20.4542 1.195344,24.95024 l 0.476847,8.1746 -0.762387,10.15171 c -0.419317,5.58345 -1.277801,17.89107 -1.907738,27.35028 -0.97696,14.67014 -2.79852,34.04038 -3.83316,40.7614 -0.14412,0.93628 0.0194,1.222 2.31752,4.04839 2.044397,2.5144 2.508614,2.95025 2.680714,2.51691 0.11447,-0.28826 1.284671,-7.05814 2.600455,-15.04418 l 2.392334,-14.5201 0.17259,-19.877 c 0.15857,-18.26392 0.46241,-33.85903 1.30461,-66.96156 0.17359,-6.82304 0.39624,-21.032953 0.49476,-31.57758 l 0.17916,-19.172145 0.90883,5.356922 c 0.84927,5.005898 0.95816,6.456197 1.66171,22.132508 l 0.75289,16.775595 -0.58979,12.31345 -0.58978,12.31347 0.59076,11.22881 0.59076,11.22882 -0.90509,27.63045 c -1.03966,31.73852 -1.48952,47.26348 -1.37293,47.38007 0.0448,0.0448 2.24699,-3.99995 4.8938,-8.98828 l 4.81237,-9.06967 2.45637,-35.66585 2.45635,-35.66584 -0.01,-11.70464 -0.01,-11.70466 1.99768,-28.190289 1.99769,-28.190296 -0.32616,-15.083975 c -0.27003,-12.527579 -0.51219,-17.616478 -1.42797,-30.026978 -0.60647,-8.2186462 -1.17415,-15.582456 -1.26151,-16.3640081 l -0.15883,-1.4210049 6.00419,-1.0663582 c 3.3023,-0.5865023 6.22621,-1.1291867 6.49759,-1.2059638 0.46735,-0.1322425 0.49251,1.1897346 0.47648,25.042837 -0.01,13.850346 -0.12623,35.205537 -0.25983,47.455973 -0.23761,21.788204 -0.27153,22.743416 -1.55694,43.842113 l -1.31405,21.56866 0.17265,14.66107 0.17266,14.66105 -2.53142,21.4787 -2.53142,21.47869 1.35104,4.03718 1.35104,4.03719 0.17972,-1.26874 c 0.0989,-0.69781 0.69761,-5.77279 1.33062,-11.27774 0.63299,-5.50494 3.61789,-28.05746 6.63311,-50.1167 l 5.4822,-40.10771 0.42591,-21.214936 c 0.23424,-11.668196 0.74394,-29.208036 1.13267,-38.977372 0.38872,-9.769337 0.82429,-25.270211 0.96793,-34.446374 l 0.26115,-16.6839371 1.15516,-2.2975134 1.15517,-2.2975028 0.59469,0.7560201 0.59468,0.75602 -0.17292,48.9572582 c -0.12834,36.335396 -0.0796,52.6643 0.18888,63.336277 l 0.36178,14.37911 -3.75754,32.10766 -3.75754,32.10765 v 13.21911 13.2191 l 1.73673,4.50675 c 0.95521,2.4787 1.81976,4.50673 1.92124,4.50673 0.10144,0 1.78104,-1.76554 3.73236,-3.92342 2.8944,-3.20079 3.57919,-4.12253 3.71799,-5.0045 0.0936,-0.59459 1.25126,-9.93794 2.57264,-20.76299 2.23572,-18.31543 2.60547,-20.79165 5.32561,-35.66584 l 2.92308,-15.98392 0.34308,-30.30892 0.3431,-30.30883 -1.98922,-33.551259 C 160.38828,27.804714 159.29554,8.2025943 159.05405,2.6976484 158.81255,-2.8072949 158.56952,-7.835557 158.51399,-8.4762773 l -0.10103,-1.1649377 2.08227,-0.356181 c 1.14523,-0.195903 2.12764,-0.306055 2.18312,-0.244782 0.21939,0.242299 9.25389,98.01938 10.33962,111.901868 0.63671,8.14113 1.24399,15.03279 1.34952,15.31481 0.1055,0.28203 1.24056,-10.8195 2.52228,-24.670024 l 2.33041,-25.18276 -0.007,-12.123563 c -0.004,-6.667955 -0.21042,-24.281716 -0.45796,-39.141688 -0.24753,-14.85996067 -0.39035,-27.077814 -0.31737,-27.150797 0.073,-0.073 1.02313,0.265465 2.11148,0.752109 l 1.97879,0.884778 0.17855,3.9924872 c 0.41237,9.2209361 1.36189,41.6684648 1.96906,67.2887828 l 0.65146,27.489447 -1.2297,13.392248 c -0.67635,7.36578 -2.1697,24.43041 -3.31854,37.9214 l -2.08884,24.52907 0.22416,11.41872 0.22415,11.4187 -1.56322,19.80974 c -0.85978,10.89536 -1.48356,19.88941 -1.38619,19.98678 0.17271,0.17271 6.24308,-1.02347 6.64086,-1.3086 0.11018,-0.079 1.18291,-8.26359 2.38384,-18.188 3.02568,-25.00425 5.2972,-51.22437 6.1308,-70.7678 0.59623,-13.9784 0.60221,-14.93696 0.21457,-34.39709 -0.37755,-18.953173 -0.36784,-21.120109 0.18258,-40.740724 0.6036,-21.516249 0.56562,-26.961723 -0.48513,-69.5555436 l -0.11268,-4.5675984 0.72468,0.429751 c 0.39858,0.236363 0.9269,0.578979 1.17405,0.761359 0.36516,0.269451 0.77802,3.5023264 2.20273,17.2482059 l 1.75335,16.9166041 0.78443,28.899199 0.78443,28.899198 -2.07492,31.295629 c -2.63921,39.80686 -4.02987,72.35348 -4.03627,94.46435 l -0.004,14.11048 1.68912,8.41895 c 0.929,4.63041 1.72196,8.44709 1.76214,8.48149 0.21101,0.1807 6.73996,1.87492 6.83995,1.77491 0.0649,-0.0649 1.78042,-14.76648 3.81234,-32.67028 l 3.69441,-32.55236 -0.59518,-11.27773 -0.59519,-11.27773 -3.69633,-17.14223 -3.69634,-17.14223 2.32749,-47.986605 c 1.92611,-39.711247 2.34833,-50.150385 2.44828,-60.5331847 0.0665,-6.900568 0.19483,-14.1185787 0.2853,-16.0400266 l 0.1645,-3.4935567 2.53748,0.164403 c 1.39561,0.09036 2.58761,0.214529 2.6489,0.275812 0.26937,0.269376 -1.1245,74.729785 -1.85108,98.883309 l -0.80148,26.643609 3.064,19.49161 c 1.68519,10.7204 3.88504,25.43785 4.88855,32.70544 l 1.82458,13.21382 0.19445,27.1488 0.19445,27.1488 1.16138,-0.15389 c 1.77707,-0.23546 9.11576,-0.99738 9.60668,-0.99738 0.25044,0 1.93112,-2.24608 3.97006,-5.30562 l 3.53578,-5.30562 -2.73202,-23.93968 -2.73202,-23.93968 2.92198,-15.92001 2.92197,-15.92 -0.77528,-21.02092 c -0.51814,-14.0487 -0.77127,-24.995277 -0.7632,-33.003455 0.0115,-11.456591 0.0546,-12.423389 0.97884,-22.026181 l 0.96675,-10.043636 -0.79645,-10.723327 -0.79644,-10.723337 0.40045,-11.938466 c 0.35775,-10.665272 2.02544,-34.114706 2.45687,-34.546141 0.25987,-0.25986 5.03163,0.8564648 5.16681,1.2087346 0.0769,0.2003887 -0.55623,12.2655291 -1.40695,26.8114324 l -1.54676,26.447106 0.78618,25.092967 0.78618,25.092894 -0.5454,26.220719 -0.54538,26.22074 -1.98959,17.89075 -1.9896,17.89076 5.01564,23.41396 c 2.75861,12.87767 5.0566,23.46812 5.10665,23.53432 0.1242,0.16427 10.31105,-3.07353 10.6339,-3.37989 0.26936,-0.2556 0.69312,-16.78708 1.42333,-55.52569 l 0.43314,-22.97838 -2.14134,-26.78463 -2.14133,-26.784606 -2.74053,-13.548942 -2.74054,-13.549034 1.47833,-24.654308 c 2.08879,-34.8347147 2.57557,-42.31546567 3.11574,-47.882544 l 0.47564,-4.901923 2.38298,0.168175 c 1.31065,0.0925 2.44357,0.228755 2.51762,0.302794 0.0741,0.07406 -0.46721,6.391084 -1.20277,14.0378767 l -1.3374,13.9032643 0.34699,26.502677 0.34698,26.502678 2.78629,15.365885 c 2.54702,14.046307 2.94433,16.733827 4.62662,31.295657 l 1.84034,15.9298 0.01,24.81102 0.01,24.81103 1.22315,20.81423 c 0.67272,11.44783 1.33426,20.92073 1.47008,21.0509 0.13584,0.13017 2.23347,1.14567 4.66142,2.25665 l 4.41451,2.01998 5.71017,-1.14798 c 3.14059,-0.63139 5.77294,-1.21072 5.8496,-1.28739 0.0767,-0.0767 -0.39194,-10.1323 -1.04136,-22.34582 -0.92047,-17.31081 -1.70371,-28.57748 -3.55283,-51.1056 -2.24489,-27.34997 -2.41953,-30.07057 -3.25774,-50.74982 -0.48715,-12.017798 -1.16807,-32.761735 -1.51317,-46.097656 l -0.62747,-24.247137 0.78229,-20.408075 c 0.43024,-11.22444137 0.8189,-20.4974637 0.86367,-20.6067312 0.0448,-0.109268 1.00127,0.2210077 2.12553,0.7339508 l 2.04408,0.9326241 0.003,1.9116869 c 0,1.0514183 -0.26001,20.3084894 -0.57982,42.7934754 l -0.58145,40.881792 3.2668,24.24704 3.26682,24.24714 2.95211,36.79361 2.95209,36.79361 3.31261,12.93889 3.31262,12.93888 5.73653,-0.16114 c 3.15511,-0.0887 5.79069,-0.21528 5.85687,-0.28145 0.0662,-0.0662 0.90464,-12.66739 1.86324,-28.00269 l 1.74202,-27.88238 -0.7761,-39.61304 -0.77611,-39.613011 4.24979,-30.308864 c 5.00319,-35.681942 8.85541,-59.726942 10.33258,-64.4945555 0.54048,-1.7445245 1.07082,-3.1663176 1.17852,-3.159551 0.10767,0.00639 0.95703,0.1732471 1.88744,0.3699592 1.63451,0.345578 1.68887,0.3856343 1.60869,1.1859519 -0.0456,0.4555706 -2.92111,17.5757354 -6.38997,38.0448274 l -6.30699,37.216531 -0.94688,16.916576 -0.94687,16.916536 0.89319,44.12415 c 0.49123,24.26828 1.16947,51.5463 1.50715,60.61783 l 0.61397,16.49369 1.57082,4.65207 c 0.86395,2.55863 1.59825,4.68728 1.6318,4.73032 0.08,0.10262 12.61273,-2.16668 12.75577,-2.30969 0.0604,-0.0604 0.35975,-4.34082 0.6653,-9.51206 l 0.55549,-9.40226 5.89907,-34.25612 5.89908,-34.25613 2.13149,-30.73183 c 1.17231,-16.902507 2.76239,-42.02358 3.53351,-55.824706 1.39553,-24.976378 1.40208,-25.174114 1.4036,-42.558725 0,-10.6782188 0.12706,-18.9639316 0.32454,-21.3208636 l 0.32299,-3.8550974 1.39785,0.3687337 c 0.76881,0.2028074 1.46749,0.4384141 1.55264,0.5235566 0.0851,0.085142 0.33467,11.2263965 0.55447,24.7583477 0.37532,23.10479 0.36314,26.920931 -0.20015,62.64539 l -0.59984,38.041734 -3.77934,29.76556 c -2.07865,16.37106 -4.96511,38.01241 -6.41432,48.09188 l -2.63496,18.32633 0.56239,9.52151 c 0.30929,5.23684 0.66446,9.48713 0.78924,9.44511 0.12476,-0.042 3.71698,-3.22526 7.9827,-7.07385 l 7.75581,-6.99744 -0.02,-3.99835 c -0.0109,-2.19911 -0.18581,-13.70427 -0.38866,-25.56703 l -0.36887,-21.56868 1.37428,-32.00058 c 1.06758,-24.85938 1.65954,-35.807107 2.65261,-49.058081 0.70308,-9.381644 2.09596,-30.125632 3.09528,-46.09772 2.00502,-32.0459207 3.09961,-45.1585285 3.80052,-45.5275822 0.23525,-0.1238669 1.38948,-0.2724982 2.56492,-0.3302651 l 2.13722,-0.1050694 -0.10134,1.2718083 c -0.0557,0.699489 -1.0472,18.2729874 -2.20329,39.0522154 -1.58406,28.471749 -2.38134,45.560802 -3.23582,69.357984 l -1.13387,31.57766 0.40997,17.72432 c 0.22548,9.74837 0.45582,17.77018 0.5119,17.82624 0.0561,0.0561 2.85902,-13.18914 6.22881,-29.43377 l 6.12688,-29.53569 -0.59693,-25.929924 -0.59693,-25.929962 1.57891,-20.26085 c 1.56163,-20.03933 1.60194,-20.413318 3.68686,-34.2072503 1.15938,-7.6705139 2.10798,-14.0094153 2.10798,-14.086448 0,-0.1719473 3.10788,1.5517764 3.58936,1.9907766 0.2738,0.2496305 -0.15757,7.38822053 -2.04409,33.8261187 l -2.3911,33.50971 0.003,25.693713 c 0.003,24.567066 0.0391,26.413876 0.83729,42.119156 l 0.83477,16.42549 -3.92532,17.26674 c -2.45725,10.80887 -4.42153,20.21931 -5.25199,25.16117 l -1.32663,7.89442 1.72868,12.21825 1.72868,12.21826 2.3114,6.17855 c 1.27129,3.39821 2.38589,6.17855 2.4769,6.17855 0.091,0 2.99213,-2.82877 6.44695,-6.28614 l 6.28147,-6.28613 3.32595,-34.72573 3.32595,-34.72572 -2.35423,-25.03339 -2.35421,-25.033377 -3.5198,-23.790803 -3.51982,-23.790895 V 31.175812 10.388219 l 1.83941,-7.7220168 c 1.01166,-4.2471052 1.93151,-7.9391426 2.04408,-8.2045335 0.17538,-0.4134042 0.39279,-0.3124587 1.51797,0.70486 l 1.31326,1.1873798 0.3175,15.2249415 c 0.51964,24.916363 1.97613,52.83751 4.1034,78.662164 l 1.81152,21.991546 2.82597,19.31312 c 2.70412,18.48022 2.9072,19.62925 4.70916,26.64365 1.03577,4.03179 1.95917,7.42084 2.05204,7.53124 0.0929,0.11039 1.91247,-9.65895 4.04357,-21.70965 l 3.87444,-21.91035 -0.56188,-33.41024 c -0.30904,-18.375622 -0.56342,-44.590999 -0.56525,-58.256355 l -0.003,-24.846086 1.28717,-5.31680027 c 0.70796,-2.92424273 1.33357,-5.36315203 1.39021,-5.41981063 0.0567,-0.056691 0.49242,0.1270314 0.96836,0.408172 l 0.86535,0.5111742 0.009,52.5921387 0.009,52.592047 1.78642,16.4937 1.78645,16.49368 -3.49108,16.90181 -3.49107,16.90179 -1.38255,17.42162 -1.38256,17.42163 1.95085,16.26623 c 1.07293,8.94643 1.95082,16.30618 1.95082,16.35501 0,0.0488 2.60094,-1.20983 5.77984,-2.79704 l 5.77984,-2.88584 -0.01,-4.37332 c -0.005,-2.40532 -0.2476,-16.04577 -0.53871,-30.3121 l -0.52932,-25.9388 4.07814,-28.33532 4.07811,-28.3353 3.33351,-33.833121 3.3335,-33.83321 -1.22084,-23.683247 c -0.67147,-13.0257847 -1.22663,-24.6665269 -1.2337,-25.8683032 l -0.0128,-2.1850593 h 3.51152 3.51152 l 0.14427,0.9163096 c 0.0794,0.5039813 0.79182,9.7975283 1.58326,20.6523509 1.40232,19.233482 1.44952,20.278092 1.85293,41.022772 0.30215,15.536477 0.36432,28.636374 0.23015,48.494168 l -0.18383,27.20754 -2.34357,13.53328 -2.34357,13.53329 -1.75656,22.36584 -1.75656,22.36585 3.48067,20.70101 c 1.91436,11.38555 3.5941,20.70101 3.73276,20.70101 0.13863,0 2.04945,-1.22653 4.24624,-2.72561 2.19678,-1.49908 4.02161,-2.7424 4.05514,-2.7629 0.0336,-0.0205 1.45767,-10.49816 3.16481,-23.28367 l 3.10386,-23.24638 1.76274,-30.08557 1.76273,-30.08557 -1.34515,-30.81421 c -0.73981,-16.947735 -1.794,-38.170413 -2.34264,-47.161458 L 482.24462,37.810329 478.32047,20.357507 474.39632,2.9046864 V -2.555757 -8.0162101 h 1.21065 1.21063 l 2.34684,10.6433576 c 1.29077,5.8538488 3.7338,16.2223795 5.42899,23.0411825 l 3.08211,12.39782 2.36292,23.26802 2.36294,23.268004 -0.54251,22.837336 c -0.47415,19.95907 -0.524,28.64743 -0.39543,68.93517 l 0.14708,46.09775 0.90426,5.28644 c 0.49732,2.90753 0.96957,5.28601 1.04945,5.28549 0.0798,-5.6e-4 2.91,-10.81658 6.28919,-24.03567 l 6.14401,-24.03473 0.58616,-28.75823 0.58618,-28.75823 -3.86623,-27.912397 -3.86621,-27.912306 -3.5101,-15.929805 -3.51012,-15.929804 -0.59752,-17.70842 C 491.28657,6.2676648 491.26173,3.6434971 491.58957,-2.2481468 l 0.36751,-6.6044944 0.7352,0.1645413 c 2.83649,0.6348172 2.8498,0.6423511 2.8498,1.6117598 0,0.5049723 0.25669,8.06268913 0.57037,16.7949174 l 0.5704,15.8767907 1.97704,8.894884 c 1.08741,4.892186 5.97342,27.04225 10.85784,49.222363 8.32323,37.795635 9.06651,41.403325 11.83931,57.465255 l 2.95858,17.13786 -0.41102,31.23252 c -0.26525,20.15655 -0.33664,36.48175 -0.20131,46.03455 0.11532,8.14111 0.20168,14.81455 0.19189,14.82985 -0.01,0.0153 -11.27737,2.83827 -25.03908,6.27324 l -25.02132,6.24542 -3.7369,-0.0361 c -2.05532,-0.0199 -111.77061,-1.65566 -243.81176,-3.63505 z"
       id="path4673"
       inkscape:connector-curvature="0" />
  </g>
  <g
     inkscape:groupmode="layer"
     id="layer5"
     inkscape:label="Layer 4" />
  <g
     inkscape:groupmode="layer"
     id="layer3"
     inkscape:label="Layer 2">
    <path
       style="fill:#917a00;fill-opacity:1;stroke-width:0.30201963"
       d="m 534.06593,294.80917 -24.16157,-5.10685 -229.2329,-0.61056 -229.232887,-0.61054 -28.68067,-2.26841 c -15.774362,-1.24761 -28.698522,-2.2961 -28.720359,-2.32994 -0.0218,-0.0338 -0.734995,-3.79903 -1.584813,-8.36708 -1.581285,-8.50001 -3.254049,-20.25007 -2.983288,-20.95567 0.0831,-0.2166 2.858409,-2.31021 6.167319,-4.65247 l 6.016208,-4.25866 0.806213,-2.68638 0.806212,-2.68638 0.300452,-50.25913 C 3.789682,152.57691 3.981499,137.67811 4.317908,131.60344 4.742862,123.9298 4.733525,122.7721 4.159526,111.97216 3.820137,105.5865 2.211182,84.820251 0.532505,65.159168 -1.126881,45.724202 -2.493372,29.211272 -2.504159,28.463778 c -0.01632,-1.132622 6.794545,-39.179089 7.061415,-39.445958 0.04783,-0.04783 1.655801,0.275202 3.573245,0.717873 L 11.616764,-9.4594645 7.460205,7.1583438 3.303647,23.776152 4.795519,49.601986 c 0.820515,14.204218 1.916028,31.873787 2.434447,39.265723 0.51842,7.391895 1.027914,17.041401 1.1322,21.443341 l 0.189613,8.00352 1.15721,-18.27219 c 1.266097,-19.991428 2.42914,-51.843493 2.751451,-75.353845 l 0.19047,-13.892899 1.984471,-8.2284485 1.984483,-8.2284408 1.251303,0.188037 c 0.688217,0.10342 1.379321,0.305475 1.535797,0.449017 0.177011,0.162378 -0.336866,8.5060972 -1.360144,22.0843063 l -1.644627,21.823354 0.247898,9.815628 c 0.317654,12.577843 -0.443287,45.490724 -1.319713,57.081661 -0.877453,11.60457 -2.161094,75.85455 -1.638234,81.99834 0.197912,2.32555 0.379454,3.9523 0.403426,3.615 0.02397,-0.33731 0.712302,-7.2007 1.529644,-15.25199 2.407805,-23.71841 2.981108,-33.91853 3.581235,-63.7169 C 19.638047,90.994869 19.666642,84.753166 19.374523,75.729847 19.180937,69.749858 19.011049,59.0422 18.996997,51.935035 l -0.02557,-12.922106 2.417348,-10.72413 c 2.413114,-10.705284 2.42373,-10.740922 6.046835,-20.2813118 1.996206,-5.256451 3.673206,-9.6009216 3.726662,-9.6543775 0.05342,-0.05342 0.807285,0.1979 1.675173,0.5585769 1.444352,0.60025299 1.561674,0.72198199 1.385531,1.43754896 C 34.117159,0.77921253 31.940027,8.3341702 29.384969,17.138048 l -4.645573,16.007032 -1.20828,9.362616 -1.208281,9.362605 -0.07111,18.876228 -0.07111,18.87623 1.022834,13.273031 1.022822,13.27309 -0.487554,17.2309 c -0.47381,16.74451 -0.540051,17.8021 -2.346849,37.46621 l -1.859285,20.23532 -3.02929,13.28886 -3.029301,13.28886 0.20032,9.34809 0.200321,9.34808 2.097113,3.97344 2.097103,3.97346 1.854661,0.19384 c 1.02006,0.10662 2.147191,0.19385 2.504729,0.19385 h 0.65008 l 0.537277,-18.95172 c 0.565449,-19.94542 2.618387,-56.04397 4.315454,-75.88244 l 0.813849,-9.51362 -0.34626,-32.92015 C 28.174052,86.090046 28.148791,70.011203 28.326715,61.68594 L 28.60105,48.850108 30.285503,36.014265 c 1.834229,-13.977187 4.615108,-34.1963065 4.844741,-35.22495047 0.09132,-0.40884797 0.447933,-0.70216597 0.977505,-0.80388397 0.458583,-0.08812 0.872065,-0.12256197 0.918855,-0.07659 0.361351,0.35495797 -0.91656,17.60431644 -2.51821,33.99129444 l -1.933504,19.782287 0.328761,35.638307 0.328761,35.638281 -1.034043,30.35297 -1.034043,30.35298 0.450547,12.01741 0.450535,12.01742 -0.81797,14.97597 -0.81797,14.97597 1.113754,4.03913 c 0.612558,2.22152 1.215243,4.03912 1.339289,4.03912 0.124046,0 1.926769,-3.15987 4.006053,-7.02195 l 3.780517,-7.02195 0.61136,-8.04822 0.61136,-8.04823 3.901629,-7.80781 3.901641,-7.8078 1.423143,-12.2318 1.423132,-12.23179 -0.204967,-24.16158 c -0.165539,-19.51394 -0.110953,-26.8049 0.283809,-37.90346 0.886391,-24.920681 1.336162,-42.251351 2.171151,-83.659388 0.45388,-22.5080204 0.8646,-40.9743805 0.912703,-41.0363755 0.04806,-0.06198 1.316562,0.8674201 2.818776,2.0653811 l 2.731292,2.1780981 V 12.156065 c 0,9.439633 -0.141978,25.294949 -0.315519,35.234041 l -0.31552,18.071078 1.402185,11.627757 1.402174,11.627758 0.399043,33.373121 c 0.219474,18.35525 0.561762,38.52157 0.760633,44.81406 0.281537,8.90767 0.280658,15.99617 -0.0034,32.01408 -0.322152,18.13256 -0.307403,21.84314 0.124286,31.27817 0.26938,5.88772 0.528978,10.74415 0.576875,10.79205 0.04794,0.0479 1.784882,-1.64344 3.859965,-3.75852 l 3.772881,-3.84561 0.665386,-3.77524 c 0.529139,-3.00231 1.158318,-11.96839 3.073067,-43.79284 1.424946,-23.68373 2.908246,-45.68823 3.634029,-53.91051 l 1.22635,-13.8929 0.423882,-30.654956 C 82.17354,70.497364 82.5127,52.82921 82.694094,48.095057 c 0.181383,-4.734165 0.436963,-18.698064 0.567938,-31.030909 0.130975,-12.332831 0.320793,-22.5059843 0.421804,-22.6070063 0.101022,-0.101022 0.989525,0.2593469 1.974449,0.8008129 l 1.790772,0.98448 0.186143,18.9043494 c 0.111524,11.327146 0.03367,27.801893 -0.194385,41.102803 -0.358656,20.922009 -0.346636,22.858367 0.209087,33.675182 l 0.589622,11.476701 -0.671193,17.51715 c -0.369158,9.63443 -0.861917,24.58439 -1.095021,33.22216 -0.233104,8.63776 -1.065833,30.63157 -1.850506,48.87515 l -1.42667,33.17013 1.107372,3.37424 c 0.609066,1.85584 1.346412,4.39357 1.638565,5.63939 l 0.531182,2.26515 4.465031,2.44559 4.465036,2.44559 2.24457,-0.44663 c 2.09647,-0.41716 2.26416,-0.50878 2.54141,-1.38852 0.16324,-0.51805 3.24737,-11.06711 6.85361,-23.44236 l 6.55679,-22.50046 6.42292,-31.10802 c 3.53261,-17.10941 6.43311,-31.03013 6.44558,-30.93494 0.0124,0.0952 -1.1923,17.0838 -2.67724,37.75245 l -2.69989,37.57938 0.71167,10.06739 c 0.39142,5.53707 0.76854,10.12428 0.83807,10.19381 0.0695,0.0695 2.15879,-0.70441 4.6428,-1.71983 l 4.51638,-1.84625 4.89895,-60.74796 4.89895,-60.74798 -0.62354,-19.515811 -0.62354,-19.515861 1.34315,-20.048711 1.34314,-20.048712 -0.28058,-23.3703821 c -0.15432,-12.8537033 -0.2249,-23.4260519 -0.15685,-23.4940959 0.068,-0.06803 1.56797,0.552402 3.33318,1.378762 l 3.20948,1.502467 v 1.208645 c 0,1.1428275 0.0534,1.2137945 0.98156,1.3032755 l 0.98157,0.09463 2.7805,21.8964165 2.7805,21.896432 0.33455,12.080781 c 0.49221,17.774392 0.17134,40.01342 -0.82145,56.930654 l -0.80643,13.7419 1.88123,12.48103 c 1.86141,12.34946 1.89078,12.64557 2.78529,28.08783 0.59132,10.20841 1.50198,21.82264 2.63272,33.57696 l 1.7287,17.97017 -1.59457,10.41967 c -1.23815,8.09058 -1.63585,11.56811 -1.77924,15.55742 l -0.18465,5.13775 1.36524,2.71476 c 1.30405,2.5931 1.44278,2.75263 3.09541,3.55969 0.95159,0.4647 1.77039,0.80448 1.81956,0.75504 0.0492,-0.0494 0.24038,-9.1278 0.42496,-20.17416 0.18458,-11.04638 0.60211,-32.31076 0.92784,-47.2542 0.32575,-14.94344 0.67849,-43.28043 0.78389,-62.9711 0.18869,-35.250734 0.17699,-36.318896 -0.76091,-69.476347 l -0.95255,-33.675186 -1.52828,-9.2985527 c -0.84056,-5.11419968 -1.46309,-9.4684526 -1.3834,-9.6761016 0.1831,-0.477155 5.65608,-2.1359131 5.96141,-1.8067871 0.12456,0.134262 1.88451,4.7970609 3.911,10.3617623 l 3.68453,10.1176631 -0.36186,21.172681 c -0.35107,20.541356 -0.33789,21.950744 0.44149,47.266069 l 0.80335,26.093349 3.02217,16.00704 3.02217,16.00704 -1.31896,25.36964 -1.31896,25.36965 0.55095,6.94646 0.55096,6.94645 1.83244,3.77525 1.83245,3.77524 -1.1979,16.00704 -1.19789,16.00704 1.28596,1.31752 1.28595,1.31753 1.70641,-2.89944 c 1.70072,-2.88977 1.72197,-2.91099 6.38,-6.37141 3.95879,-2.94095 4.6736,-3.59309 4.6736,-4.26378 0,-0.43549 1.57835,-26.97391 3.50745,-58.97427 l 3.50745,-58.18247 -0.46311,-24.614561 c -0.43289,-23.008345 -0.42602,-26.950064 0.10536,-60.403926 0.31264,-19.68413 0.5736,-37.3611943 0.5799,-39.2823694 l 0.0114,-3.4930446 2.86919,0.599157 2.86918,0.599159 -6e-4,10.74639956 c -3.9e-4,5.99355854 -1.26691,57.03007444 -2.8637,115.39614544 -1.57465,57.5574 -2.94433,108.11548 -3.04372,112.35132 l -0.1807,7.70149 1.37994,3.43462 c 1.13904,2.83506 1.46387,4.10038 1.8608,7.24847 0.26449,2.09762 0.6527,4.42107 0.86269,5.16321 l 0.38179,1.34934 4.73967,1.181 c 2.60681,0.64955 4.79111,1.12952 4.85402,1.06662 0.0629,-0.0629 0.65465,-10.3754 1.315,-22.91666 l 1.20063,-22.80231 -0.42829,-47.11506 c -0.38102,-41.91491 -0.51104,-48.79357 -1.17813,-62.32292 -0.41241,-8.364261 -0.97635,-24.477182 -1.25319,-35.806428 l -0.50334,-20.598613 1.25447,-6.023251 1.25446,-6.02324 0.61804,-21.292389 c 0.33992,-11.7108073 0.61462,-21.751459 0.61046,-22.312547 l -0.008,-1.020164 1.27225,0.203437 c 0.69973,0.111866 1.30332,0.234519 1.34129,0.272497 0.038,0.03801 0.29185,10.7529317 0.56414,23.810996 l 0.49508,23.741938 -1.32682,4.48952 -1.32681,4.489509 0.82463,26.805063 c 0.45354,14.742773 0.8698,26.939157 0.92503,27.103094 0.0552,0.16395 1.09142,-5.10285 2.30267,-11.704032 l 2.20228,-12.002155 1.18163,-26.275707 1.18163,-26.275707 3.80574,-15.5540176 c 2.09315,-8.5547007 3.86003,-15.7189639 3.92638,-15.9205859 0.0921,-0.2800065 0.3557,-0.2872555 1.1159,-0.03071 0.54738,0.184751 1.02801,0.359833 1.06805,0.389055 0.0401,0.02922 -1.21886,6.4987052 -2.79758,14.3766045 l -2.87039,14.323455 -2.13693,39.262547 -2.13693,39.262526 -2.26253,6.342395 -2.26251,6.34242 0.95781,47.11506 0.95781,47.11506 1.44353,16.15805 1.44354,16.15804 2.03013,4.37929 c 1.11656,2.4086 2.08373,4.43422 2.14925,4.50138 0.0655,0.0671 1.74073,-0.63919 3.72268,-1.56964 l 3.60353,-1.69172 3.8051,-0.21141 c 3.54105,-0.19674 3.81398,-0.25549 3.93308,-0.84653 0.0704,-0.34931 1.16848,-16.53644 2.44019,-35.9714 l 2.31221,-35.3363 -0.3572,-21.5944 -0.35721,-21.59441 -2.5018,-40.319578 -2.50181,-40.319614 1.75289,-22.047429 c 0.96408,-12.126098 1.83545,-24.56174141 1.93638,-27.6347963 0.1009,-3.0730551 0.25398,-6.1649792 0.34015,-6.8709447 l 0.15665,-1.283586 h 1.60546 1.60545 l 0.217,9.1360992 c 0.21189,8.9207759 0.18337,9.6250073 -1.21019,29.8821078 l -1.42719,20.746037 1.2686,17.308435 c 1.14486,15.620204 1.48233,23.106564 3.45988,76.752419 l 2.19126,59.44401 -1.88261,14.85281 c -1.81258,14.30048 -2.74622,23.05527 -2.48639,23.3151 0.068,0.068 2.09423,-1.4845 4.5027,-3.45005 l 4.37903,-3.57372 2.48918,-32.59394 2.48919,-32.59392 1.64367,-53.29485 c 0.90403,-29.312134 1.93099,-61.58526 2.28217,-71.718018 l 0.6385,-18.423193 -0.83633,-17.5903589 c -0.45998,-9.6746974 -0.76447,-17.6622161 -0.67664,-17.7500421 0.14029,-0.140278 4.86473,-1.051473 5.45742,-1.052546 0.12459,-2.29e-4 0.22666,11.38194862 0.22683,25.293723 2.3e-4,18.030783 0.13083,28.07068 0.45481,34.963234 l 0.4545,9.669095 2.62726,12.227325 2.62725,12.227338 0.16464,14.442344 0.16465,14.442359 2.10409,-14.247632 c 1.15724,-7.836193 2.24451,-14.429583 2.41615,-14.651968 0.17163,-0.222385 1.21191,-0.739013 2.31169,-1.148066 l 1.99961,-0.743728 -0.55587,2.463442 c -0.30573,1.354893 -1.31327,8.919107 -2.23899,16.809335 l -1.68313,14.345927 -2.01034,5.28534 -2.01035,5.28534 -0.61947,8.60757 c -0.54618,7.58936 -0.59133,9.94428 -0.3818,19.90798 l 0.23766,11.30043 3.04134,12.1061 3.04135,12.10608 1.01592,14.49695 c 0.55874,7.97331 1.22771,18.98193 1.48654,24.46359 0.25887,5.48166 0.54256,10.66484 0.63038,11.51817 l 0.15974,1.55154 2.71148,0.52666 c 1.49131,0.28966 2.75481,0.47488 2.80775,0.4116 0.053,-0.0632 0.39142,-11.12369 0.75215,-24.57866 0.53364,-19.90319 0.65409,-31.05084 0.64611,-59.79989 l -0.009,-35.3363 1.21925,-30.805955 1.21925,-30.805998 2.27149,-22.953488 c 1.9747,-19.954207 4.47449,-42.3524803 4.75854,-42.6365284 0.0511,-0.05114 0.48069,0.3117981 0.95465,0.8064981 l 0.86172,0.899438 -1.59176,18.6531763 c -2.40587,28.191814 -3.10543,42.112783 -4.89118,97.329247 l -1.59702,49.3802 1.66545,31.89219 1.66546,31.89219 3.703,6.85084 c 2.03665,3.76798 4.02,7.40895 4.40744,8.09104 l 0.70446,1.2402 2.59036,-3.97565 c 1.42469,-2.18661 3.61542,-5.32921 4.86826,-6.98355 l 2.27789,-3.0079 3.18839,-17.8987 3.18836,-17.89869 0.28115,-15.25199 c 0.1546,-8.38859 0.61899,-23.59005 1.03192,-33.78102 0.4446,-10.97224 0.75221,-23.04333 0.75428,-29.59793 0.003,-8.61076 0.23698,-15.462038 1.05472,-30.851126 0.98549,-18.545629 1.05139,-21.009504 1.05389,-39.413566 0,-10.797197 0.0926,-26.455503 0.20257,-34.7962318 l 0.19988,-15.1649506 1.83842,-0.552574 c 1.62598,-0.488718 1.8471,-0.498774 1.91344,-0.0871 0.0412,0.256048 0.3447,19.2316044 0.67433,42.1679014 l 0.59929,41.702371 -1.05622,17.644482 c -1.03215,17.242044 -1.06649,18.515794 -1.50554,55.849934 -0.24711,21.01302 -0.64934,43.57388 -0.8938,50.13527 l -0.44451,11.92977 -1.63963,8.65323 -1.63966,8.65322 0.70271,5.05661 c 0.44559,3.20666 0.84921,5.14951 1.10322,5.31055 0.34587,0.21928 1.99076,0.32727 6.05343,0.39744 l 0.97157,0.0168 2.6279,-23.10451 2.62788,-23.10449 -0.16838,-56.93071 c -0.14993,-50.697244 -0.11221,-58.137657 0.34451,-67.95437 l 0.51286,-11.023714 -1.07664,-18.272197 -1.07667,-18.272185 0.82418,-12.4861461 0.82418,-12.4861552 1.21636,0.194316 c 0.66897,0.106843 1.31693,0.2947439 1.43988,0.4175 0.12295,0.122756 -0.0496,5.0761558 -0.38356,11.0075365 l -0.60709,10.7843648 1.23383,19.556477 c 1.21839,19.312039 1.23149,19.716926 1.04808,32.392321 -0.10217,7.059703 -0.0554,31.930982 0.10387,55.269552 0.3044,44.60818 0.0909,60.60685 -1.3101,98.15637 -0.251,6.7275 -0.45708,13.26379 -0.45796,14.5251 l -0.003,2.29332 2.43859,1.71646 2.4386,1.71646 2.54473,-2.31028 c 1.39958,-1.27065 2.56104,-2.32754 2.58097,-2.34866 0.02,-0.0211 0.28592,-23.34674 0.59111,-51.83475 l 0.5549,-51.79637 2.1061,-54.692054 2.10611,-54.692099 -1.63366,-14.168375 c -0.89854,-7.792606 -1.63661,-14.4027193 -1.64017,-14.6891534 -0.009,-0.7029529 1.50852,-1.4423429 2.95979,-1.4423429 h 1.18415 l 0.17741,1.4345919 c 0.0976,0.7890221 0.53729,5.2400393 0.97719,9.8911349 0.78951,8.3475885 0.8246,8.5476465 2.72346,15.5260295 l 1.92365,7.069485 -0.49289,34.005191 c -0.41561,28.673344 -0.43135,35.275875 -0.10046,42.109512 0.21585,4.4574 0.47897,8.5274 0.58471,9.04445 0.17264,0.84408 0.46895,0.32007 2.90139,-5.13122 1.48997,-3.33922 2.75003,-6.03182 2.80011,-5.98355 0.0501,0.0483 -0.88369,3.53512 -2.07503,7.74854 l -2.16608,7.6608 -0.41866,17.66816 c -0.23027,9.71747 -0.88665,31.75783 -1.4586,48.97855 l -1.03995,31.31042 1.64302,9.31123 c 0.90364,5.12117 1.72248,9.6822 1.81966,10.1356 0.24821,1.15819 5.56052,4.8802 8.65295,6.06259 l 2.33018,0.89095 1.52058,-0.97575 c 0.83632,-0.53667 1.53544,-0.99556 1.55359,-1.01978 0.0181,-0.0242 1.49361,-29.19174 3.27879,-64.81674 l 3.24579,-64.77274 -1.44096,-13.752361 -1.44096,-13.752337 -2.27947,-7.706723 c -1.49935,-5.069124 -2.90359,-10.741994 -4.103,-16.575438 l -1.82208,-8.868726 V 24.64856 -2.6443494 h 1.62131 1.62129 l 0.20912,17.7436474 c 0.16754,14.216295 0.35696,19.815037 0.95278,28.163323 1.0179,14.261418 2.0831,19.707566 6.97035,35.638324 l 3.47452,11.325734 1.20146,17.064061 1.20147,17.06412 -0.33413,36.09134 -0.33413,36.09135 0.74054,12.68482 0.74052,12.68483 1.40756,6.56746 c 1.33891,6.24699 1.51825,6.80701 3.67543,11.47675 1.71139,3.70474 2.40368,5.6004 2.82153,7.72608 0.30452,1.54924 0.6192,2.88233 0.69928,2.96241 0.08,0.0801 2.0676,-0.63765 4.41671,-1.59495 l 4.27113,-1.74055 2.87865,-3.97215 c 2.29519,-3.16704 3.44625,-4.43916 5.67902,-6.27626 l 2.80042,-2.30412 3.36902,-7.17738 3.36903,-7.17739 1.22107,-15.55401 1.2211,-15.55401 -0.19384,-18.27219 c -0.18266,-17.2201 -0.32987,-20.90675 -2.55614,-64.02817 L 439.4269,61.232791 436.66375,49.605034 C 435.14402,43.20977 432.55196,33.25891 430.90364,27.492015 l -2.99694,-10.485262 0.003,-9.5990395 0.003,-9.5990386 1.05332,-0.6823152 1.05332,-0.682326 v 7.8609706 7.8609807 l 3.02844,12.150595 c 2.45937,9.867554 3.91662,14.888005 7.75556,26.719313 2.59993,8.012791 4.75623,14.536415 4.79179,14.496942 0.0355,-0.0395 0.22693,-4.556754 0.42533,-10.038413 l 0.3607,-9.966648 -3.81943,-10.940157 -3.81943,-10.940146 0.10091,-8.238098 c 0.0931,-7.6072625 0.16638,-8.5652592 0.95616,-12.5106738 l 0.85529,-4.2725905 2.00635,1.23501389 c 1.10345,0.67925494 2.06313,1.27698591 2.13255,1.32830791 0.0695,0.05125 -0.64493,3.0491278 -1.58749,6.661809 -0.94255,3.6126825 -1.71319,6.8403295 -1.71252,7.1725495 0,0.332219 0.89495,5.068016 1.98729,10.523992 l 1.98602,9.919938 3.56731,9.409314 3.56733,9.409314 -0.1417,12.684824 -0.14168,12.684824 -1.78902,10.996914 -1.78901,10.996861 1.51823,20.71516 c 3.74552,51.10465 4.62186,61.87956 6.31507,77.64585 l 1.76775,16.46007 3.19848,8.19557 c 2.36603,6.06257 3.53432,9.54982 4.48882,13.39885 l 1.29036,5.20326 2.61684,1.31468 2.61685,1.31468 5.23567,-2.52012 c 4.61808,-2.22286 5.68461,-2.88338 9.04165,-5.59975 l 3.80599,-3.07963 0.63167,-3.97945 c 0.37689,-2.37437 2.15201,-9.64388 4.40107,-18.02334 l 3.76937,-14.04392 0.3316,-20.83935 c 0.18236,-11.46165 0.66921,-31.16843 1.08189,-43.79284 0.51367,-15.71409 0.9343,-37.956186 1.33363,-70.521546 0.57417,-46.821846 0.57429,-47.703123 0.008,-56.1756482 -0.31671,-4.7341623 -0.58004,-8.9133562 -0.58516,-9.2871031 -0.009,-0.6758891 0.0158,-0.6795411 4.67194,-0.6795411 h 4.6813 v 1.1325641 c -2.2e-4,0.62292392 -0.61026,10.8308669 -1.35568,22.6843313 l -1.35528,21.55177 -1.05958,74.943463 -1.0596,74.94351 -1.69029,15.81757 -1.69028,15.81756 0.92883,5.02179 c 0.91824,4.96457 0.94158,5.03304 2.04872,6.00942 0.61594,0.54319 1.21113,0.95091 1.32267,0.90605 0.11153,-0.0449 1.17685,-0.9872 2.36741,-2.0941 l 2.16463,-2.01253 -0.36163,-25.62227 c -0.31927,-22.61971 -0.28284,-33.37313 0.31084,-91.76455 l 0.6725,-66.142263 1.48328,-17.064111 c 0.81578,-9.385251 1.62272,-19.23864 1.79315,-21.8964207 0.17046,-2.6577665 0.39015,-5.8176417 0.48822,-7.0219488 l 0.17831,-2.18964294 1.40883,0.0046 c 0.77486,0.0023 1.56042,0.10444597 1.7457,0.22651697 0.24419,0.160825 -0.0238,5.04211517 -0.97441,17.73902447 l -1.31128,17.517135 0.28717,17.215118 c 0.24019,14.400121 0.45786,19.684416 1.33109,32.316103 l 1.04396,15.100929 -0.37119,53.45749 -0.37117,53.45747 1.44132,12.68482 c 0.84119,7.40312 1.7313,13.86672 2.13779,15.52333 l 0.69642,2.8385 4.82317,2.82622 c 2.65273,1.55443 6.74341,3.76254 9.09037,4.90694 l 4.26717,2.08071 7.96462,1.09492 c 4.38053,0.6022 8.27039,1.16263 8.64414,1.2454 l 0.67954,0.15048 v 24.60885 c 0,13.53487 -0.10194,24.59458 -0.22652,24.57715 -0.12458,-0.0175 -11.09921,-2.32977 -24.38808,-5.13852 z M 287.35271,238.43826 c 0.23769,-0.15565 0.40022,-4.50499 0.54444,-14.56782 l 0.20558,-14.34594 -1.37692,-15.554 c -0.95774,-10.81874 -1.82075,-18.58827 -2.83476,-25.52066 l -1.45783,-9.96665 -0.20473,3.47323 c -0.30447,5.16565 -1.05596,31.25441 -1.2484,43.33981 -0.0926,5.81387 -0.39288,13.51932 -0.66733,17.1232 l -0.49899,6.55251 0.67681,2.35706 c 0.37224,1.29639 1.01515,3.47832 1.42869,4.84874 l 0.75187,2.49166 2.17137,-0.005 c 1.19425,-0.002 2.32384,-0.10445 2.5102,-0.22651 z M 147.27389,134.0196 c -0.0571,-3.22617 -1.96051,25.83866 -3.85801,58.90928 l -2.11505,36.86186 0.75515,2.85373 c 0.41534,1.56955 0.84197,3.05758 0.94807,3.30675 0.16917,0.39724 4.32497,-98.81237 4.26984,-101.93162 z m 4.29348,89.3978 1.83504,-10.57068 0.39945,-30.65499 0.39946,-30.65499 -1.93153,-18.27219 -1.93153,-18.27218 0.77774,-13.74192 c 0.42775,-7.557994 1.02754,-23.323403 1.33285,-35.034215 l 0.55513,-21.29239 -0.89606,-6.795435 c -0.66477,-5.041363 -1.14735,-11.239114 -1.8696,-24.010566 l -0.97353,-17.2151143 -0.22871,14.4969373 c -0.12579,7.973318 -0.68631,25.66501 -1.24561,39.314862 l -1.01688,24.81792 0.74495,21.089042 c 0.40972,11.598969 0.67926,21.972449 0.59898,23.052179 -0.0802,1.07971 0.0154,15.14628 0.2127,31.25902 l 0.35866,29.29591 -0.96644,23.55754 -0.96646,23.55753 1.41948,3.53176 c 0.78072,1.94248 1.45039,3.43748 1.48817,3.32222 0.0378,-0.11526 0.89446,-4.96637 1.90374,-10.78025 z m -4.03127,-94.43776 c -0.0965,-0.24092 -0.16797,-0.16936 -0.18246,0.18248 -0.0131,0.31838 0.0582,0.49676 0.15863,0.3964 0.10034,-0.10034 0.11107,-0.36085 0.0239,-0.57888 z"
       id="path4657"
       inkscape:connector-curvature="0" />
  </g>
  <g
     inkscape:label="Layer 1"
     inkscape:groupmode="layer"
     id="layer1"
     transform="translate(0,-11.249983)">
    <path
       style="fill:#846f00;fill-opacity:1;stroke-width:1.18379009"
       d="m 456.32723,320.37611 c -6.83641,-0.18976 -38.79873,-1.1319 -71.02742,-2.09365 l -58.59761,-1.74864 -20.71304,-5.35132 -20.71303,-5.35134 H 177.32225 69.368358 l -38.777944,-5.34072 c -22.1596753,-3.05192 -39.1360569,-5.92011 -39.613569,-6.6927 -0.4595626,-0.74363 -1.192584,-4.33325 -1.628905,-7.97696 -0.436331,-3.6437 -1.053297,-7.72533 -1.371025,-9.07027 -0.515869,-2.18344 0.256228,-2.59899 7.2095633,-3.8802 11.0361599,-2.0335 22.8760547,-8.74304 25.1971327,-14.27894 2.698102,-6.43519 3.555519,-34.67441 4.522711,-148.95464 L 25.770271,7.5536713 31.813836,5.2871168 c 3.323961,-1.246565 6.122051,-2.1872717 6.217978,-2.0904495 0.0959,0.096888 -0.353706,24.6805537 -0.999162,54.6304377 -0.645444,29.949907 -0.875664,64.575765 -0.511617,76.946375 0.45953,15.61491 -0.02812,33.7125 -1.595331,59.1895 -4.830419,78.53119 -5.238028,73.25236 6.208753,80.40767 7.075624,4.42294 7.082911,4.42452 14.418342,3.14709 6.703228,-1.16729 15.386342,-0.51234 23.210944,1.75078 3.787409,1.09545 6.945428,-4.15183 11.631677,-19.32694 l 4.655554,-15.07563 -0.361766,-46.7597 C 94.330576,151.75471 94.289938,151.07788 90.033776,120.568 87.672292,103.63977 82.823946,71.539066 79.259692,49.233051 75.695436,26.927025 72.779208,7.8828051 72.779208,6.9125668 c 0,-2.5165607 4.114836,-2.215674 13.678952,1.0002018 l 8.22117,2.7643184 3.828669,26.534495 c 2.105751,14.593949 6.153581,47.124019 8.995161,72.289038 5.06658,44.86966 5.23903,45.88305 8.91514,52.39681 3.53987,6.27229 3.64473,6.80083 1.88255,9.49025 -1.02635,1.56641 -2.94038,8.61842 -4.25336,15.67113 -2.10843,11.32531 -2.3029,15.796 -1.6649,38.27462 0.70863,24.96594 0.79263,25.62431 4.40353,34.51089 3.02893,7.45432 4.67042,9.81383 9.26489,13.31762 5.45779,4.16217 5.82504,4.25824 16.27823,4.25824 5.88195,0 14.87638,0.86487 19.98759,1.92188 9.75772,2.01792 20.8373,1.71949 35.51196,-0.95656 6.33911,-1.15599 8.55365,-1.00049 17.41806,1.22277 7.81689,1.9605 13.72706,2.54707 25.66422,2.54707 20.1365,0 24.42296,-1.64507 33.51224,-12.86153 9.84959,-12.15466 9.86201,-12.18794 13.09213,-35.08197 5.27542,-37.39032 5.83949,-45.13441 5.56168,-76.35445 -0.14775,-16.60268 0.33853,-49.90137 1.08062,-73.997163 1.29919,-42.184531 1.25566,-44.506928 -1.1727,-62.575461 -1.38709,-10.320733 -2.35876,-18.9042895 -2.15927,-19.0746033 0.99201,-0.846863 18.15211,2.0332132 18.85088,3.163855 0.44465,0.7194792 1.18612,7.0891543 1.6477,14.1548693 0.46159,7.065692 1.13859,12.846729 1.50448,12.846729 0.36589,0 1.62833,-0.871568 2.80542,-1.936812 3.76199,-3.404583 4.05591,1.155921 0.46895,7.276632 l -3.14647,5.369021 1.65673,46.919613 c 1.63568,46.32351 1.62629,46.99624 -0.74005,52.94728 -2.04186,5.13503 -2.42445,9.00761 -2.58365,26.15205 -0.12649,13.62146 -1.25652,29.0152 -3.49706,47.63824 l -3.31017,27.51381 4.39663,12.34032 c 2.41815,6.78718 5.34161,13.19554 6.49662,14.24078 1.15499,1.04527 5.10787,2.5314 8.78413,3.30251 6.18128,1.29652 7.41893,1.1586 16.45112,-1.83328 15.91534,-5.2719 15.41961,-4.46932 20.2397,-32.76688 2.3643,-13.88021 4.96907,-35.16189 6.08538,-49.71917 1.07347,-13.99834 2.4439,-29.03053 3.04542,-33.40489 0.89376,-6.49954 0.33955,-14.67748 -3.03199,-44.73889 C 362.67663,73.577894 355.70506,8.2232113 355.70506,6.2652392 c 0,-0.6142525 1.86447,-1.1167895 4.14325,-1.1167895 2.27881,0 4.14327,0.5410046 4.14327,1.202251 0,0.6612352 1.85346,12.7803003 4.11879,26.9312283 2.26534,14.150929 4.67632,32.121079 5.35775,39.933667 0.68144,7.812577 3.48265,25.924551 6.22492,40.248874 l 4.98594,26.04416 0.0146,62.60079 0.0145,62.60076 5.51573,4.68217 5.51575,4.68215 5.73026,-2.54902 c 5.0723,-2.25634 6.24721,-2.37991 10.23241,-1.07639 4.30737,1.40895 4.65614,1.31865 8.06164,-2.08685 2.61863,-2.61862 4.04391,-5.72507 5.39214,-11.7522 1.00796,-4.50598 3.38949,-10.94966 5.29232,-14.31924 3.1923,-5.65305 3.49818,-7.25406 3.95793,-20.71633 0.27404,-8.02439 1.49496,-23.8766 2.71314,-35.22715 l 2.21489,-20.63734 9.49614,-9.01189 c 9.06375,-8.60151 9.71446,-9.57542 14.29001,-21.3872 8.41859,-21.73258 16.64542,-49.639596 21.45126,-72.766986 2.56851,-12.360502 6.59569,-29.079036 8.94926,-37.152295 2.35359,-8.073224 4.13539,-14.822505 3.95954,-14.998356 -0.17586,-0.175838 -3.24794,-1.1130906 -6.82688,-2.0827975 l -6.50713,-1.7630873 11.44514,-0.1075188 c 6.29482,-0.059129 12.21046,0.186126 13.14586,0.5450794 2.6162,1.0039224 -2.60099,28.5170262 -19.85376,104.6997712 l -14.87777,65.69549 -4.69601,4.78486 -4.69601,4.78486 v 25.22026 25.22028 l 4.1926,13.31197 c 3.4552,10.97069 4.96466,14.0625 8.58247,17.57935 l 4.3899,4.26738 9.1949,-1.15153 c 7.68373,-0.9623 11.08845,-2.18711 20.71634,-7.45238 l 11.52141,-6.30083 2.58967,10.12965 c 1.98539,7.76601 2.59565,13.64043 2.61531,25.17499 l 0.0257,15.04528 -7.53241,6.61308 -7.53244,6.61308 -22.31008,-0.24967 c -12.27056,-0.13732 -27.90349,-0.40493 -34.73989,-0.59465 z"
       id="path4644"
       inkscape:connector-curvature="0" />
  </g>
</svg>
