<?xml version="1.0" standalone="yes"?>

<svg version="1.1" viewBox="0.0 0.0 596.2493438320209 542.6797900262467" fill="none" stroke="none" stroke-linecap="square" stroke-miterlimit="10" xmlns="http://www.w3.org/2000/svg" xmlns:xlink="http://www.w3.org/1999/xlink"><clipPath id="p.0"><path d="m0 0l596.2493 0l0 542.6798l-596.2493 0l0 -542.6798z" clip-rule="nonzero"></path></clipPath><g clip-path="url(#p.0)"><path fill="#000000" fill-opacity="0.0" d="m0 0l596.2493 0l0 542.6798l-596.2493 0z" fill-rule="evenodd"></path><path fill="#000000" fill-opacity="0.0" d="m-3.5695537E-4 50.016483l267.71655 -50.015747l78.519684 420.2205l-267.71655 50.015747z" fill-rule="evenodd"></path><path fill="#ffffff" d="m187.10236 442.08643q-26.018585 4.860901 -47.528137 -0.5147705q-21.512436 -5.390991 -35.29354 -19.681335q-13.783966 -14.305664 -17.796112 -35.7778q-3.395111 -18.169891 1.463234 -34.448334q4.8554688 -16.293823 16.246124 -27.38684q11.3877945 -11.108368 27.069595 -14.038086q14.453064 -2.7001953 25.711502 2.6831665q11.255585 5.3680115 16.13443 17.697357q-21.472244 4.011505 -32.160995 17.755096q-10.673401 13.740692 -7.045822 33.154694q3.3147583 17.739838 16.056946 26.470123q12.7421875 8.730316 30.497498 5.413208q21.886932 -4.0889893 33.38707 -21.401642q11.500122 -17.312653 7.333008 -39.614166q-3.6246948 -19.398651 -17.600952 -34.7334q-13.960907 -15.337616 -40.062317 -36.100433q-27.082916 -21.421906 -41.86583 -37.670944q-14.785782 -16.264389 -18.872543 -38.135864q-4.0121384 -21.472122 4.752762 -40.832916q8.777397 -19.379028 27.98384 -33.219727q19.206451 -13.840721 45.624374 -18.776207q33.437088 -6.246834 56.395752 5.6930923q22.958664 11.939926 27.897781 38.373062q3.2401428 17.3405 -3.4317627 29.697815q-6.6565704 12.354446 -20.694931 14.977142q-15.697159 2.932602 -27.582687 -8.103622q6.7695007 -7.2413483 9.526871 -17.579803q2.7698517 -10.356689 0.8412781 -20.678055q-2.4681244 -13.208893 -11.780365 -19.575775q-9.299744 -6.3851013 -22.923416 -3.8398895q-16.52655 3.087555 -24.849289 16.818268q-8.322739 13.730713 -4.9276276 31.90062q3.0851593 16.511108 15.240463 28.991089q12.152435 12.464615 36.544815 30.971695q19.828827 14.670517 32.344086 25.58908q12.51239 10.903229 22.856598 26.2807q10.341309 15.362122 13.966003 34.760773q4.9391174 26.433136 -5.7014465 50.64273q-10.643463 24.194244 -33.716293 41.332336q-23.075699 17.122711 -54.039963 22.907562z" fill-rule="nonzero"></path><path fill="#000000" fill-opacity="0.0" d="m224.99892 214.35307l73.03938 -15.842529l22.330688 102.866135l-73.03937 15.842529z" fill-rule="evenodd"></path><path fill="#ffffff" d="m300.5388 255.63617q0.46307373 0.95477295 0.6619568 1.8709412q0.6331177 2.9164429 -1.0174866 5.9924927q-1.6387024 3.0574646 -4.747467 4.8669434q-1.3153381 0.71698 -3.2393494 1.1343079q0.78982544 7.247284 -1.5063477 13.389191q-2.2842102 6.123352 -7.2299194 10.297852q-4.949066 4.15921 -11.881592 5.662903q-7.9098206 1.7156677 -13.328735 -1.2978821q-5.4188995 -3.0135803 -6.9039 -9.854248q-0.99443054 -4.5808105 0.08383179 -9.483276q1.0782623 -4.902466 3.9148407 -8.923248q2.8365936 -4.0207825 6.8250885 -6.19693l-0.07293701 -0.3359375q-3.0665588 -1.6051941 -4.674469 -3.7825928q-1.611206 -2.1926575 -2.3901825 -5.78096q-0.97784424 -4.5044556 0.62210083 -8.992462q1.6151886 -4.491333 5.2973175 -7.7841797q3.6974182 -3.2961578 8.614319 -4.3626556q5.68042 -1.2321014 10.051239 1.225357q4.370819 2.4574738 5.458069 7.4658203q0.7424927 3.4203339 -0.5428467 5.9694824q-1.2700806 2.5458221 -4.1102905 3.1618652q-3.1608582 0.6856079 -5.6450806 -1.4775848q1.2942505 -1.256012 1.841919 -3.373352q0.54434204 -2.1325989 0.07366943 -4.3008423q-0.50717163 -2.3362122 -1.971344 -3.409607q-1.448883 -1.0767212 -3.4492493 -0.6428375q-2.168335 0.47032166 -3.807373 2.568573q-1.6390686 2.098236 -2.2388 5.15419q-0.5997009 3.0559387 0.06985474 6.1403503q0.90493774 4.1685333 3.7760925 6.567566q2.8831482 2.3804321 7.0076904 2.525055l0.07293701 0.3359375q-3.7466736 1.5960693 -6.5864563 5.2338257q-2.8431091 3.6224976 -3.9909973 8.204315q-1.1358948 4.5632324 -0.2144165 8.808105q0.94140625 4.3365173 3.6367798 6.2940063q2.692047 1.9422302 6.524811 1.1109009q3.5884094 -0.77835083 6.651001 -3.5371094q3.0625916 -2.7587585 4.7878723 -6.8902283q1.7253113 -4.1314697 1.5873108 -8.818115q-1.8323975 0.39746094 -3.7386475 1.338562q-4.256134 2.4900208 -5.620056 5.8556213l-0.22772217 0.1293335q-1.1681213 -0.96173096 -2.164734 -2.6801758q-0.5361328 -0.9229431 -0.79138184 -2.0986938q-0.6132202 -2.824829 0.8998718 -5.503296q1.5097656 -2.693756 4.3038025 -4.259094q2.1904602 -1.1785889 6.2098694 -2.4021606q2.7121277 -0.76412964 4.622986 -1.6102905q1.7980347 -0.9975586 3.4542542 -2.7957764q1.6562195 -1.798172 2.372345 -3.3604736l0.16796875 -0.03643799q1.5239563 0.98049927 2.5019836 2.6869507z" fill-rule="nonzero"></path><path fill="#000000" fill-opacity="0.0" d="m244.07088 91.73227l261.29132 -50.236217l82.64566 429.88974l-261.29132 50.236206z" fill-rule="evenodd"></path><path fill="#ffffff" d="m375.15442 214.26193l59.469635 -19.977997l-2.8077698 143.39026q19.475128 -5.462738 33.172913 -24.341583q13.694855 -18.894196 18.737885 -43.81009q5.04303 -24.915878 0.75982666 -47.19539q-4.7581177 -24.749908 -20.551483 -37.958755q-15.796295 -13.224182 -41.374725 -8.306442q-50.312897 9.673218 -73.49982 41.514282q-23.1745 31.822754 -14.0564575 79.251114q2.9351196 15.267303 6.970215 20.696869q4.0321655 5.414215 4.1914673 6.242798q-22.26413 4.2805176 -34.986084 -2.8838806q-12.709595 -7.182678 -16.833496 -28.633636q-5.076721 -26.407043 11.777161 -55.51895q16.869202 -29.114853 47.713898 -51.08354q30.844666 -21.968689 64.66281 -28.470612q32.590607 -6.265915 56.58203 0.6729584q24.006775 6.9359283 38.04544 23.266586q14.054016 16.327713 18.33429 38.59189q5.156372 26.82135 -4.579712 55.217117q-9.723694 28.377502 -33.811157 49.90625q-24.090424 21.513397 -59.550385 28.330963l-2.0714111 0.3982544l-2.565216 122.38864l-59.381226 11.416687l5.651367 -273.1038z" fill-rule="nonzero"></path></g></svg>

