<?xml version="1.0" encoding="UTF-8" standalone="no"?>
<!-- Created with Inkscape (http://www.inkscape.org/) -->

<svg
   xmlns:dc="http://purl.org/dc/elements/1.1/"
   xmlns:cc="http://creativecommons.org/ns#"
   xmlns:rdf="http://www.w3.org/1999/02/22-rdf-syntax-ns#"
   xmlns:svg="http://www.w3.org/2000/svg"
   xmlns="http://www.w3.org/2000/svg"
   xmlns:sodipodi="http://sodipodi.sourceforge.net/DTD/sodipodi-0.dtd"
   xmlns:inkscape="http://www.inkscape.org/namespaces/inkscape"
   width="1920"
   height="1080"
   viewBox="0 0 507.99999 285.75001"
   version="1.1"
   id="svg8"
   inkscape:version="0.92.2 (5c3e80d, 2017-08-06)"
   sodipodi:docname="01_bottom.svg">
  <defs
     id="defs2">
    <pattern
       y="0"
       x="0"
       height="6"
       width="6"
       patternUnits="userSpaceOnUse"
       id="EMFhbasepattern" />
  </defs>
  <sodipodi:namedview
     id="base"
     pagecolor="#ffffff"
     bordercolor="#666666"
     borderopacity="1.0"
     inkscape:pageopacity="0.0"
     inkscape:pageshadow="2"
     inkscape:zoom="0.32"
     inkscape:cx="1245.0444"
     inkscape:cy="343.9013"
     inkscape:document-units="mm"
     inkscape:current-layer="layer1"
     showgrid="false"
     inkscape:window-width="1920"
     inkscape:window-height="1017"
     inkscape:window-x="-8"
     inkscape:window-y="-8"
     inkscape:window-maximized="1"
     units="px"
     showguides="false" />
  <metadata
     id="metadata5">
    <rdf:RDF>
      <cc:Work
         rdf:about="">
        <dc:format>image/svg+xml</dc:format>
        <dc:type
           rdf:resource="http://purl.org/dc/dcmitype/StillImage" />
        <dc:title></dc:title>
      </cc:Work>
    </rdf:RDF>
  </metadata>
  <g
     inkscape:label="Layer 1"
     inkscape:groupmode="layer"
     id="layer1"
     transform="translate(0,-11.25)">
    <path
       style="fill:#846f00;fill-opacity:1;stroke-width:0.26458335"
       d="m 0.00740608,284.96806 v -12.0387 l 2.31510002,0.1738 c 1.2733,0.096 2.3746,0.2511 2.4474,0.3454 0.073,0.094 5.1329004,0.5612 11.2447999,1.0374 6.1119,0.4763 16.9466,1.3354 24.0771,1.9091 10.2135,0.8218 14.9577,1.0788 22.3573,1.2112 5.166,0.092 9.4522,0.2473 9.525,0.3442 0.073,0.097 10.907395,0.3835 24.076995,0.6368 13.169709,0.2532 31.267209,0.6824 40.216709,0.9536 8.9495,0.2712 31.5714,0.9423 50.2708,1.4912 18.6995,0.549 34.0585,1.0706 34.1313,1.159 0.073,0.089 13.4078,0.5424 29.6333,1.0087 28.2051,0.8105 30.2275,0.9022 46.0375,2.0857 9.0951,0.6808 16.596,1.312 16.6688,1.4026 0.073,0.091 8.5361,0.8031 18.8075,1.5834 l 18.6752,1.4188 23.5258,-1.4182 c 12.9392,-0.78 23.5854,-1.4953 23.6581,-1.5896 0.073,-0.094 2.7517,-0.316 5.9532,-0.4927 5.7806,-0.319 5.8528,-0.3305 10.451,-1.655 2.5466,-0.7335 5.2813,-1.5063 6.077,-1.7172 0.7958,-0.2109 1.5102,-0.474 1.5875,-0.5846 0.077,-0.1106 1.1528,-0.4742 2.3897,-0.808 1.2369,-0.3337 2.397,-0.6887 2.578,-0.7889 0.181,-0.1002 -1.6049,-0.7634 -3.9687,-1.4738 -3.9648,-1.1916 -4.9289,-1.3675 -12.442,-2.2697 -4.4793,-0.5379 -8.1836,-1.0238 -8.2317,-1.08 -0.048,-0.056 -0.1549,-0.7866 -0.2373,-1.6233 l -0.1497,-1.5214 0.9731,6e-4 c 0.5352,3e-4 4.6409,0.2927 9.1237,0.6498 l 8.1506,0.6493 15.8745,4.7878 c 8.7309,2.6333 16.04659,4.854 16.25712,4.9347 0.57883,0.2222 0.47197,-0.633 -0.2813,-2.2511 -0.36237,-0.7784 -0.65887,-1.5603 -0.65887,-1.7376 0,-0.1773 0.67689,-0.5356 1.50416,-0.7964 l 1.50416,-0.4742 1.4724,1.5675 c 0.80984,0.8621 1.77006,1.9481 2.13387,2.4134 0.612,0.7828 1.0868,0.9625 6.35,2.4027 3.12869,0.8561 10.80444,2.7226 17.05721,4.1478 l 11.36864,2.5911 2.63118,-0.5478 2.63115,-0.5479 2.27205,0.7933 c 2.03579,0.7108 2.56784,0.7883 5.11633,0.7457 l 2.84427,-0.048 v 2.5298 2.5297 l -253.99997,-9e-4 -254.00000392,-9e-4 z m 445.14440392,3.9717 c -0.2128,-0.5093 -0.3556,-0.9363 -0.3172,-0.9487 0.038,-0.013 1.1658,-0.1613 2.5056,-0.3307 l 2.43598,-0.3081 -7.69308,-2.3276 c -4.2313,-1.2801 -7.7525,-2.2682 -7.825,-2.1957 -0.072,0.073 0.1798,0.2101 0.5608,0.3057 0.381,0.096 0.6927,0.2536 0.6927,0.3511 0,0.097 -1.2148,0.8146 -2.6996,1.5937 -1.4848,0.779 -2.8654,1.5823 -3.0681,1.7849 -0.2026,0.2027 -1.2681,0.8121 -2.3678,1.3542 l -1.9993,0.9858 1.2971,0.075 c 3.559,0.2069 12.0257,0.5102 15.2403,0.5458 l 3.6245,0.04 z"
       id="path272"
       inkscape:connector-curvature="0" />
  </g>
</svg>
