<?xml version="1.0" encoding="UTF-8" standalone="no"?>
<!-- Created with Inkscape (http://www.inkscape.org/) -->

<svg
   xmlns:dc="http://purl.org/dc/elements/1.1/"
   xmlns:cc="http://creativecommons.org/ns#"
   xmlns:rdf="http://www.w3.org/1999/02/22-rdf-syntax-ns#"
   xmlns:svg="http://www.w3.org/2000/svg"
   xmlns="http://www.w3.org/2000/svg"
   xmlns:sodipodi="http://sodipodi.sourceforge.net/DTD/sodipodi-0.dtd"
   xmlns:inkscape="http://www.inkscape.org/namespaces/inkscape"
   width="1920"
   height="1080"
   viewBox="0 0 507.99999 285.75001"
   version="1.1"
   id="svg8"
   inkscape:version="0.92.2 (5c3e80d, 2017-08-06)"
   sodipodi:docname="01_top.svg">
  <defs
     id="defs2">
    <pattern
       y="0"
       x="0"
       height="6"
       width="6"
       patternUnits="userSpaceOnUse"
       id="EMFhbasepattern" />
  </defs>
  <sodipodi:namedview
     id="base"
     pagecolor="#ffffff"
     bordercolor="#666666"
     borderopacity="1.0"
     inkscape:pageopacity="0.0"
     inkscape:pageshadow="2"
     inkscape:zoom="0.32"
     inkscape:cx="1245.0444"
     inkscape:cy="343.9013"
     inkscape:document-units="mm"
     inkscape:current-layer="layer1"
     showgrid="false"
     inkscape:window-width="1920"
     inkscape:window-height="1017"
     inkscape:window-x="-8"
     inkscape:window-y="-8"
     inkscape:window-maximized="1"
     units="px"
     showguides="false" />
  <metadata
     id="metadata5">
    <rdf:RDF>
      <cc:Work
         rdf:about="">
        <dc:format>image/svg+xml</dc:format>
        <dc:type
           rdf:resource="http://purl.org/dc/dcmitype/StillImage" />
        <dc:title></dc:title>
      </cc:Work>
    </rdf:RDF>
  </metadata>
  <g
     inkscape:label="Layer 1"
     inkscape:groupmode="layer"
     id="layer1"
     transform="translate(0,-11.25)">
    <path
       style="fill:#846f00;fill-opacity:1;stroke-width:0.26458332"
       d="m 474.71654,182.14549 c -6.89416,-0.5586 -12.57496,-1.0559 -12.62406,-1.105 -0.1651,-0.1651 -0.8851,-11.3886 -0.7451,-11.615 0.076,-0.1231 0.9349,-0.2378 1.9086,-0.255 0.9737,-0.017 2.1275,-0.1089 2.564,-0.2038 0.676,-0.1468 0.3717,-0.2847 -2.0505,-0.9291 l -2.8443,-0.7566 v -3.1696 -3.1696 l 2.8443,0.1569 c 1.5644,0.086 4.7734,0.2317 7.13136,0.3231 l 4.287,0.1662 0.1344,-0.6249 c 0.074,-0.3437 0.1701,-0.863 0.2136,-1.1541 0.047,-0.3146 0.3195,-0.5634 0.6718,-0.6137 0.693,-0.099 0.669,-0.014 0.3022,-1.0666 l -0.2905,-0.8332 h -5.1997 c -2.85986,-8e-4 -6.36046,-0.078 -7.77936,-0.1722 l -2.5796,-0.1708 v -8.079 c 0,-7.9308 0.011,-8.0902 0.5752,-8.6914 0.4885,-0.52 0.5085,-0.6123 0.1323,-0.6123 -0.365,0 -0.443,-0.2794 -0.443,-1.5875 v -1.5875 h 3.2655 c 1.796,0 4.8826,-0.078 6.85906,-0.1724 l 3.5937,-0.1723 0.4831,-0.9042 c 0.3156,-0.5907 0.7353,-0.9552 1.2107,-1.0514 0.7843,-0.1586 0.9078,-0.7015 0.5577,-2.4519 l -0.1699,-0.8495 -3.2036,0.05 c -1.7619,0.028 -4.64316,0.038 -6.40256,0.023 l -3.199,-0.027 -0.3405,-1.5214 c -0.1872,-0.8367 -0.3875,-1.6442 -0.4451,-1.7943 -0.058,-0.1502 0.5218,-0.5798 1.2875,-0.9547 l 1.3921,-0.6816 -1.1172,-0.5699 c -1.2688,-0.6474 -1.2514,-0.5977 -1.6416,-4.6646 -0.3749,-3.9073 -0.3986,-3.7407 0.5821,-4.098 l 0.8599,-0.3133 -0.8269,-0.4064 c -0.7221,-0.3549 -0.8475,-0.5783 -0.9898,-1.7631 -0.09,-0.74621 -0.1641,-1.67211 -0.1654,-2.05771 v -0.7009 l 3.3735,-0.2128 c 1.8553,-0.117 4.20682,-0.2207 5.22556,-0.2305 1.0186,-0.01 2.7123,-0.045 3.7637,-0.079 l 1.9119,-0.061 -0.1579,-0.7896 c -0.1137,-0.5683 -0.045,-0.8329 0.2433,-0.9437 0.2988,-0.1146 0.3975,-0.555 0.3865,-1.7239 -0.01,-0.8634 -0.028,-1.5698 -0.044,-1.5698 -0.5717,0 -12.96036,-1.0808 -13.01506,-1.1354 -0.1587,-0.1587 -0.8703,-11.387401 -0.7356,-11.605501 0.076,-0.1231 0.935,-0.2378 1.9086,-0.255 0.9737,-0.017 2.1276,-0.1089 2.5641,-0.2038 0.6759,-0.1468 0.3717,-0.2847 -2.0505,-0.929 l -2.8443,-0.7567 v -3.1696 -3.1696 l 2.8443,0.157 c 1.5643,0.086 4.77342,0.2316 7.13136,0.323 l 4.287,0.1662 0.1344,-0.6249 c 0.074,-0.3437 0.1701,-0.863 0.2136,-1.154 0.047,-0.3146 0.3195,-0.5635 0.6718,-0.6138 0.6943,-0.099 0.6705,-0.01 0.292,-1.0955 l -0.3005,-0.8623 -6.9265,0.1924 -6.92636,0.1924 -0.3474,-1.5525 c -0.1911,-0.8538 -0.3945,-1.6753 -0.4521,-1.8254 -0.058,-0.1501 0.5231,-0.5821 1.2905,-0.9598 l 1.3952,-0.6868 -1.2661,-0.6188 c -0.7629,-0.3729 -1.3106,-0.8327 -1.3782,-1.1569 -0.2056,-0.9873 -1.2704,-12.5867 -1.1643,-12.6845 0.057,-0.053 3.2818,-0.3114 7.1653,-0.5743 l 7.06086,-0.4778 -0.1478,-0.7388 c -0.1066,-0.5328 -0.028,-0.7848 0.2814,-0.9035 0.2791,-0.1071 0.4291,-0.4785 0.4291,-1.0624 0,-1.0771 0.6249,-1.0331 -8.54586,-0.6022 -3.4632,0.1627 -6.347,0.2456 -6.4085,0.1841 -0.062,-0.061 -0.2324,-2.3674 -0.3799,-5.1243 -0.1476,-2.757 -0.3332,-5.8615 -0.4127,-6.8989 l -0.1443,-1.8863 1.1326,-0.4569 c 2.6522,-1.0699 2.6198,-1.0119 0.6705,-1.1983 -0.9817,-0.094 -1.832,-0.2208 -1.8894,-0.2819 -0.057,-0.061 -0.149,-1.0246 -0.2035,-2.1411 -0.097,-1.9915 -0.087,-2.0322 0.5665,-2.1563 0.3661,-0.07 3.6124,-0.4584 7.214,-0.8639 l 6.54846,-0.7374 v -0.8832 c 0,-0.7703 0.1018,-0.9035 0.7964,-1.0424 l 0.7964,-0.1593 -0.1714,-2.943 c -0.094,-1.6186 -0.2101,-2.988 -0.2572,-3.0431 -0.1032,-0.1206 -41.43726,1.7948 -42.57146,1.9727 -0.5402,0.085 -2.1042,1.2637 -4.8948,3.6898 -2.2556,1.9609 -4.2581,3.5654 -4.45,3.5655 -0.3019,2e-4 -3.5346,-0.7742 -6.7254,-1.6111 l -0.989,-0.2593 3.3702,-3.2882 3.3702,-3.2881 -0.926,-0.01 c -0.5094,-0.01 -36.7639,-1.509 -80.5657,-3.3408 l -79.6395,-3.3304 -39.8198,-0.4691 -39.8198,-0.4691 -50.8,2.0855 c -27.94,1.147 -51.438799,2.0534 -52.219499,2.0141 l -1.4194,-0.072 -1.4337,-2.4826 c -0.7885,-1.3655 -1.3909,-2.5254 -1.3386,-2.5777 0.052,-0.052 9.3133,-0.4478 20.5801,-0.879 41.039199,-1.5707 87.599099,-4.3538 113.461199,-6.7822 l 9.6321,-0.9045 h 144.2892 144.28926 v 14.1463 14.1463 l -3.5058,-2.2869 c -2.1122,-1.3779 -6.0823,-3.5452 -9.988,-5.4525 -6.2561,-3.0552 -6.5977,-3.187 -9.7896,-3.7781 -1.819,-0.3369 -3.6091,-0.6177 -3.9781,-0.624 l -0.6708,-0.012 0.099,2.712 c 0.097,2.6455 0.1196,2.7314 0.9354,3.5061 0.46,0.4367 1.0149,1.0439 1.2332,1.3491 l 0.3968,0.5551 6.35,-0.4714 c 3.4926,-0.2593 6.5311,-0.4795 6.7524,-0.4893 0.3582,-0.016 0.3494,0.8312 -0.081,7.7136 -0.2656,4.2522 -0.5326,7.7811 -0.5934,7.8418 -0.061,0.061 -0.9725,0.313 -2.0263,0.5606 l -1.916,0.4502 1.9085,0.4677 1.9085,0.4677 v 2.0882 2.0882 h -0.7276 c -1.3713,0 -13.9567,0.595 -14.04,0.6685 -0.046,0.04 0,0.4954 0.093,1.0113 0.1424,0.759 0.3222,0.97 0.9431,1.1064 0.5888,0.1293 0.7671,0.3174 0.7671,0.8089 0,0.7781 -0.4507,0.777 6.9454,0.017 l 5.7547,-0.5916 v 0.612 c 0,0.438 -0.2614,0.7365 -0.9199,1.0506 l -0.9198,0.4386 1.0111,0.8655 1.0111,0.8655 0.177,5.5046 c 0.097,3.0275 0.251,6.8218 0.3415,8.4318 l 0.1645,2.9272 -6.0552,0.3188 c -7.8676,0.4143 -7.8719,0.4142 -7.6679,-0.1173 0.1197,-0.312 0.051,-0.3829 -0.258,-0.2645 -0.2318,0.089 -0.5308,0.1617 -0.6644,0.1617 -0.2758,0 -0.3159,0.8923 -0.091,2.0175 0.1125,0.5626 0.412,0.8716 1.1501,1.1867 0.7686,0.3282 1.0362,0.6171 1.1641,1.2568 0.1653,0.8263 0.175,0.8306 1.8264,0.8235 0.9132,0 4.0978,-0.1164 7.0769,-0.2499 2.9792,-0.1334 5.4468,-0.2125 5.4837,-0.1756 0.037,0.037 -0.5,3.2519 -1.1929,7.1446 -0.8604,4.8327 -1.3828,7.155296 -1.6472,7.322496 -0.213,0.1348 -1.1017,0.2486 -1.9748,0.2531 -1.6963,0.01 -1.6251,0.3645 0.1323,0.661405 1.7715,0.2993 1.7742,0.3115 0.7767,3.5499 l -0.9033,2.9323 h -1.1935 c -0.6564,0 -3.2676,-0.18 -5.8026,-0.3959 -2.535,-0.2159 -4.6557,-0.346 -4.7126,-0.2891 -0.057,0.057 -0.1717,0.7646 -0.255,1.5726 -0.1465,1.4187 -0.1278,1.4751 0.5453,1.644 0.5213,0.1309 0.6971,0.3424 0.6971,0.8386 0,0.6554 0.02,0.6615 1.6536,0.4963 0.9095,-0.092 2.9634,-0.2296 4.5641,-0.3058 1.6007,-0.076 3.7141,-0.2293 4.6964,-0.3403 l 1.7859,-0.2018 0.058,1.7336 c 0.032,0.9534 0.062,3.48671 0.066,5.62951 l 0.01,3.896 -1.8521,0.5892 -1.8521,0.5891 1.88,0.2434 1.88,0.2434 0.02,3.9004 0.021,3.9004 -3.8849,0.1526 c -2.1367,0.084 -5.4327,0.1495 -7.3245,0.1457 l -3.4395,-0.01 v 1.404 c 0,1.2167 0.084,1.4461 0.6335,1.7198 0.3484,0.1737 0.8776,0.7013 1.1759,1.1725 l 0.5424,0.8566 6.6954,-0.1551 6.6955,-0.1551 -0.017,0.9748 c -0.01,0.5362 -0.3393,4.13 -0.733,7.9863 l -0.7158,7.0115 -3.1697,-0.048 -3.1697,-0.048 3.0428,0.4565 3.0427,0.4564 -0.063,1.4432 c -0.035,0.7937 -0.134,1.9663 -0.2203,2.6057 l -0.1571,1.1626 -7.6844,-0.1918 -7.6845,-0.1918 0.1894,1.0136 c 0.1041,0.5575 0.2085,1.0171 0.2319,1.0214 0.023,0 0.4721,0.2027 0.9972,0.4409 0.7102,0.3221 0.9965,0.6419 1.1179,1.2489 0.1617,0.8085 0.1783,0.8159 1.8234,0.8087 0.9132,0 4.0978,-0.1164 7.0769,-0.2498 2.9792,-0.1335 5.4468,-0.2125 5.4837,-0.1757 0.037,0.037 -0.5,3.252 -1.193,7.1446 -0.8603,4.8327 -1.3828,7.1554 -1.6472,7.3226 -0.2129,0.1347 -1.1016,0.2486 -1.9747,0.253 -1.6963,0.01 -1.6251,0.3646 0.1323,0.6615 1.7715,0.2993 1.7742,0.3114 0.7766,3.5499 l -0.9032,2.9324 -1.7226,-0.032 c -0.9475,-0.017 -7.3633,-0.4888 -14.2574,-1.0474 z"
       id="path259"
       inkscape:connector-curvature="0" />
  </g>
</svg>
