<?xml version="1.0" encoding="UTF-8" standalone="no"?>
<!-- Created with Inkscape (http://www.inkscape.org/) -->

<svg
   xmlns:dc="http://purl.org/dc/elements/1.1/"
   xmlns:cc="http://creativecommons.org/ns#"
   xmlns:rdf="http://www.w3.org/1999/02/22-rdf-syntax-ns#"
   xmlns:svg="http://www.w3.org/2000/svg"
   xmlns="http://www.w3.org/2000/svg"
   xmlns:sodipodi="http://sodipodi.sourceforge.net/DTD/sodipodi-0.dtd"
   xmlns:inkscape="http://www.inkscape.org/namespaces/inkscape"
   width="1920"
   height="1080"
   viewBox="0 0 507.99999 285.75001"
   version="1.1"
   id="svg8"
   inkscape:version="0.92.2 (5c3e80d, 2017-08-06)"
   sodipodi:docname="02_bottom.svg">
  <defs
     id="defs2">
    <pattern
       y="0"
       x="0"
       height="6"
       width="6"
       patternUnits="userSpaceOnUse"
       id="EMFhbasepattern" />
  </defs>
  <sodipodi:namedview
     id="base"
     pagecolor="#ffffff"
     bordercolor="#666666"
     borderopacity="1.0"
     inkscape:pageopacity="0.0"
     inkscape:pageshadow="2"
     inkscape:zoom="0.50000001"
     inkscape:cx="1154.6709"
     inkscape:cy="645.52467"
     inkscape:document-units="mm"
     inkscape:current-layer="layer1"
     showgrid="false"
     inkscape:window-width="1920"
     inkscape:window-height="1017"
     inkscape:window-x="-8"
     inkscape:window-y="-8"
     inkscape:window-maximized="1"
     units="px"
     showguides="false" />
  <metadata
     id="metadata5">
    <rdf:RDF>
      <cc:Work
         rdf:about="">
        <dc:format>image/svg+xml</dc:format>
        <dc:type
           rdf:resource="http://purl.org/dc/dcmitype/StillImage" />
        <dc:title></dc:title>
      </cc:Work>
    </rdf:RDF>
  </metadata>
  <g
     inkscape:label="Layer 1"
     inkscape:groupmode="layer"
     id="layer1"
     transform="translate(0,-11.25)">
    <g
       id="g264">
      <path
         sodipodi:nodetypes="csccsssccsssccccsscccccscccssscccsscccccccccccccsscsccccccsccsccccccccsscccccccccc"
         inkscape:connector-curvature="0"
         id="path309"
         d="m 0.0017591,264.71663 c 0,-21.3431 0.09,-32.2792 0.2646,-32.2792 0.2509,0 0.3757998,0.5433 0.2866,1.2468 -0.022,0.1764 0.2611998,1.3618 0.6300999,2.6344 0.3689,1.2725 0.5304835,1.99139 0.6708,2.49143 0.1097982,0.39129 0.2125443,0.76239 0.2646,1.30027 0.014016,0.14482 0.3580443,1.09592 0.3580443,1.09592 0.1259345,0.32173 0.2081861,0.84518 0.4107,1.59881 0.2258,0.6368 0.3167835,1.24183 0.5139,1.87208 0.6138418,1.7117 0.4652722,1.26737 0.6372279,1.92218 0.034009,0.12951 0.3604304,1.13334 0.3604304,1.37514 0,0.2419 0.1225278,0.78836 0.2123974,1.50537 0.095605,0.76277 0.5118,2.12 0.6778,3.0659 0.1796,1.0236 0.4826,1.8534 0.7484,2.0498 0.2457,0.1815 0.6848,0.5452 0.9759,0.8083 0.291,0.2631 0.9458,0.6797 1.4552,0.9257 1.2056,0.5824 1.2897604,0.79824 1.653563,1.1071 0.12647,0.10737 0.681384,0.61414 0.812266,0.69847 0,0 0.471471,0.32413 1.105971,0.76063 0.6346,0.4366 1.32817,0.7938 1.32817,0.7938 0,0 0,0 0.809577,0.58587 0.079,0.2065 0.529653,0.46933 1.315453,0.84133 0.7857,0.3721 1.6432,0.8877 1.9055,1.146 0.5886,0.5796 2.864858,-0.72382 3.143684,-0.79591 1.530549,-0.3957 4.283387,2.20517 3.546583,2.834 -0.01,0.2013 -0.749067,2.54461 0.254233,2.98221 0.2182,0.095 0.4564,0.2457 0.5291,0.3345 0.073,0.089 0.7276,0.5431 1.4552,1.0097 0.7276,0.4666 1.5925,1.0798 1.922,1.3626 0.3295,0.2828 1.1629,0.7896 1.8521,1.1262 0.6892,0.3366 1.2924,0.7003 1.3404,0.8081 0.048,0.1079 0.5244,0.3994 1.0584,0.6477 0.534,0.2484 1.0304,0.5292 1.1032,0.6242 0.073,0.095 0.4002,0.3137 0.7276,0.4861 0.3274,0.1724 0.970198,0.84147 1.521342,1.00353 0.953813,0.28046 -0.702922,-0.0819 3.968758,1.15817 2.3283,0.4896 4.028317,0.98324 4.3656,1.0602 0.073,0.094 2.0968,0.605 4.4979,1.1365 l 4.365701,0.9664 11.509302,-0.2637 c 11.0949,-0.2541 36.990908,-0.6364 74.744808,-1.1032 9.8954,-0.1224 52.1031,-0.2674 93.7948,-0.3223 l 75.8031,-0.1 13.4938,-0.8549 c 17.7054,-1.1219 17.1764,-1.082 17.3296,-1.3051 0.073,-0.1064 5.2526,-0.456 11.51,-0.7768 6.2574,-0.3209 11.7866,-0.6492 12.2871,-0.7297 0.8071,-0.1297 0.8708,-0.099 0.5629,0.272 -0.1909,0.23 -0.4649,0.4183 -0.6089,0.4183 -0.144,0 -1.1162,0.8768 -2.1605,1.9485 -1.0443,1.0717 -2.2735,2.1425 -2.7317,2.3794 -0.8364,0.4325 -1.284,0.8992 -1.0688,1.1144 0.064,0.064 11.4757,0.7777 25.3604,1.5872 22.3673,1.304 29.06,1.5852 58.7147,2.4674 18.40842,0.5476 33.74428,0.9244 34.07974,0.8373 0.38963,-0.1011 -0.99602,-0.4736 -3.83646,-1.0312 -3.29115,-0.6462 -27.08758,-6.5739 -29.34688,-7.3104 -0.2081,-0.068 -0.2237,-0.5449 -0.054,-1.6301 0.1324,-0.8438 0.2797,-1.5733 0.3275,-1.6211 0.048,-0.048 6.67391,1.1644 14.72479,2.6937 8.05077,1.5294 14.67554,2.7429 14.72168,2.6967 0.0461,-0.046 -0.0575,-0.6965 -0.23035,-1.4453 -0.17285,-0.7488 -0.26416,-1.4072 -0.20293,-1.4632 0.0612,-0.056 1.24243,-0.1769 2.62488,-0.2688 l 2.51354,-0.167 1.66484,2.3844 1.66483,2.3843 h 7.39244 7.3924 l 6.40509,-3.0427 c 3.52279,-1.6735 6.44194,-3.0427 6.487,-3.0427 0.0451,0 0.0819,5.2388 0.0819,11.6417 v 11.6416 H 321.66857 135.33577 l 0.7937,-0.5338 0.7938,-0.5339 -4.8948,0.1689 c -2.6922,0.093 -5.7878,0.334 -6.8792,0.5356 -1.6547,0.3057 -12.2161,0.3666 -63.56611,0.3667 l -61.5818009,2e-4 z"
         style="fill:#846f00;fill-opacity:1;stroke-width:0.26458335" />
    </g>
  </g>
</svg>
