<?xml version="1.0" encoding="UTF-8" standalone="no"?>
<!-- Created with Inkscape (http://www.inkscape.org/) -->

<svg
   xmlns:dc="http://purl.org/dc/elements/1.1/"
   xmlns:cc="http://creativecommons.org/ns#"
   xmlns:rdf="http://www.w3.org/1999/02/22-rdf-syntax-ns#"
   xmlns:svg="http://www.w3.org/2000/svg"
   xmlns="http://www.w3.org/2000/svg"
   xmlns:sodipodi="http://sodipodi.sourceforge.net/DTD/sodipodi-0.dtd"
   xmlns:inkscape="http://www.inkscape.org/namespaces/inkscape"
   width="1920"
   height="1080"
   viewBox="0 0 507.99999 285.75001"
   version="1.1"
   id="svg8"
   inkscape:version="0.92.2 (5c3e80d, 2017-08-06)"
   sodipodi:docname="02_top.svg">
  <defs
     id="defs2">
    <pattern
       y="0"
       x="0"
       height="6"
       width="6"
       patternUnits="userSpaceOnUse"
       id="EMFhbasepattern" />
  </defs>
  <sodipodi:namedview
     id="base"
     pagecolor="#ffffff"
     bordercolor="#666666"
     borderopacity="1.0"
     inkscape:pageopacity="0.0"
     inkscape:pageshadow="2"
     inkscape:zoom="0.64"
     inkscape:cx="1205.1335"
     inkscape:cy="648.65447"
     inkscape:document-units="mm"
     inkscape:current-layer="layer1"
     showgrid="false"
     inkscape:window-width="1920"
     inkscape:window-height="1017"
     inkscape:window-x="-8"
     inkscape:window-y="-8"
     inkscape:window-maximized="1"
     units="px"
     showguides="false" />
  <metadata
     id="metadata5">
    <rdf:RDF>
      <cc:Work
         rdf:about="">
        <dc:format>image/svg+xml</dc:format>
        <dc:type
           rdf:resource="http://purl.org/dc/dcmitype/StillImage" />
        <dc:title></dc:title>
      </cc:Work>
    </rdf:RDF>
  </metadata>
  <g
     inkscape:label="Layer 1"
     inkscape:groupmode="layer"
     id="layer1"
     transform="translate(0,-11.25)">
    <g
       id="g264">
      <path
         inkscape:connector-curvature="0"
         id="path285"
         d="m 0.13490567,264.72217 c 0,-17.8263 0.032,-25.1188 0.07,-16.2057 0.039,8.9132 0.039,23.4983 0,32.4115 -0.039,8.9131 -0.07,1.6205 -0.07,-16.2058 z m -0.1281,-230.187497 v -23.2833 H 106.36531 212.72381 l 1.2901,0.7937 c 0.7095,0.4366 1.4554,0.802 1.6576,0.812 0.3649,0.018 -1.7993,0.6721 -6.1147,1.8476 -1.2369,0.337 -2.3085,0.6874 -2.3813,0.7788 -0.073,0.091 -0.9657,0.383 -1.9843,0.6482 -1.0187,0.2652 -1.9388,0.5588 -2.0447,0.6526 -0.1059,0.094 7.5141,0.7559 16.9334,1.4716 9.4192,0.7156 17.1854,1.3764 17.2581,1.4683 0.1155,0.1458 20.1455,1.7498 43.6563,3.4961 4.1473,0.308 7.6002,0.638 7.6729,0.7333 0.073,0.095 5.8525,0.6098 12.8439,1.1434 12.2866,0.9379 30.2768,2.7593 30.5478,3.0928 0.073,0.09 8.5857,1.0964 18.9177,2.2373 10.332,1.1409 18.8449,2.1478 18.9177,2.2375 0.073,0.09 6.8593,0.8997 15.0812,1.7999 l 14.949,1.6368 7.276,-0.6425 c 4.0019,-0.3534 10.848,-0.9431 15.2136,-1.3105 4.3656,-0.3674 8.3169,-0.7197 8.7806,-0.7829 0.9127,-0.1243 0.8624,-0.2135 1.294,2.2938 0.16,0.9299 0.1288,0.9922 -0.4981,0.9922 -0.3679,0 -0.7085,0.095 -0.7571,0.2103 -0.049,0.1156 -5.8627,0.6588 -12.9205,1.2071 -7.0577,0.5483 -17.7733,1.393 -23.8125,1.8771 l -10.9802,0.8803 -25.0031,-1.5385 c -13.7517,-0.8461 -27.8011,-1.6854 -31.2208,-1.8651 -3.4198,-0.1797 -6.2773,-0.4028 -6.35,-0.4957 -0.073,-0.093 -6.9784,-0.5496 -15.3459,-1.0149 -46.5046,-2.5862 -54.913,-3.0794 -55.0333,-3.2281 -0.073,-0.09 -8.2285,-0.6129 -18.1239,-1.1623 -9.8955,-0.5494 -25.7903,-1.4357 -35.3219,-1.9697 -10.3421,-0.5793 -18.0237,-0.899 -19.05,-0.7929 -0.9459,0.098 -9.9351,0.9851 -19.9761,1.9717 -10.0409,0.9866 -18.3157,1.8704 -18.3885,1.9639 -0.073,0.093 -3.0891,0.4478 -6.7031,0.7875 -7.3928,0.6948 -7.1763,0.533 -3.0279,2.2639 1.1236,0.4688 2.2332,1.0428 2.4659,1.2754 0.2326,0.2326 0.742,0.4998 1.132,0.5937 0.39,0.094 1.3904,0.5108 2.2229,0.9265 0.8326,0.4156 1.7256,0.7561 1.9844,0.7566 0.3235,8e-4 0.2063,0.1622 -0.3749,0.5166 -0.4651,0.2835 -1.048,0.8245 -1.2954,1.2021 -0.3806,0.5808 -0.5765,0.6592 -1.2712,0.5086 -0.4517,-0.098 -0.8808,-0.2573 -0.9535,-0.3542 -0.073,-0.097 -1.0848,-0.3852 -2.249,-0.6407 -1.1642,-0.2556 -3.1585,-0.6971 -4.4318,-0.9813 -1.2733,-0.2842 -3.3569,-0.7491 -4.6302,-1.0333 -1.2733,-0.2842 -3.2676,-0.7257 -4.4317,-0.9813 -1.1642,-0.2555 -2.1762,-0.5355 -2.249,-0.6221 -0.073,-0.087 -1.3159,-0.4258 -2.7626,-0.7539 -2.3119,-0.5242 -8.0496,-1.1861 -24.886405,-2.8706 -2.4738,-0.2475 -4.5574,-0.5212 -4.6302,-0.6082 -0.073,-0.087 -2.6699,-0.4216 -5.7715,-0.7435 l -5.6392,-0.5851 -5.6056,0.5781 c -3.083,0.318 -5.6651,0.654 -5.7378,0.7468 -0.073,0.093 -2.0969,0.3656 -4.498,0.6062 -20.644,2.0688 -34.0219,3.5083 -34.1385,3.6735 -0.077,0.1087 -1.7842,1.0395 -3.7944,2.0685 -2.0102,1.0289 -3.836,2.0519 -4.0574,2.2733 -0.2214,0.2214 -1.1382,0.7361 -2.0373,1.1438 -1.121,0.5082 -1.9225,1.1045 -2.5499996,1.897 -0.5032997,0.6357 -1.2485997,1.5176 -1.6563997,1.9598 -0.4077,0.4423 -1.122,1.3267 -1.5875,1.9654 -0.4654,0.6387 -1.1641,1.5016 -1.5527,1.9175 -1.4868,1.5914 -3.1298,3.6027 -3.1279,3.8289 0,0.4464 -1.45740003,3.8062 -1.65570003,3.8071 -0.1091,5e-4 -0.1984,-10.4766 -0.1984,-23.2825 z M 186.27241,15.486373 c 0.089,-0.1432 2.1788,-0.7352 4.645,-1.3156 5.7824,-1.3608 6.6148,-1.6344 4.4842,-1.474 -0.8731,0.066 -5.338,0.3856 -9.9219,0.7107 -4.5839,0.3251 -8.397,0.681 -8.4735,0.7908 -0.077,0.1099 -0.91,0.2359 -1.8521,0.2801 -1.5474,0.073 -1.3742,0.1164 1.7928,0.4541 1.9282,0.2055 3.5057,0.4669 3.5057,0.5808 0,0.5072 5.5055,0.4818 5.8198,-0.027 z m 316.58428,26.9197 c -0.4077,-1.5105 -0.4104,-1.7224 -0.031,-2.4474 0.7044,-1.3461 0.5341,-2.8824 -0.5302,-4.7857 -0.5219,-0.9331 -1.0458,-1.6966 -1.1643,-1.6966 -0.1186,0 -0.3275,0.4465 -0.4643,0.9922 l -0.2488,0.9922 -1.3302,-2.8069 c -0.7317,-1.5437 -2.01,-4.2892 -2.8408,-6.101 l -1.5105,-3.2942 -5.3373,-3.198 -5.3373,-3.198 -1.9844,0.1002 c -1.0914,0.055 -46.87088,-0.2521 -101.73228,-0.6827 -94.3319,-0.7405 -100.2722,-0.8146 -109.4052,-1.3641 -5.3115,-0.3197 -9.7168,-0.6556 -9.7896,-0.7466 -0.073,-0.091 -9.9549,-0.7315 -21.9604,-1.4233 -12.0054,-0.6918 -22.0662,-1.2949 -22.3573,-1.3403 -0.291,-0.045 65.1041,-0.099 145.3224,-0.1185 l 145.85158,-0.036 v 11.4987 11.4986 l -2.1684,4.9055 c -1.1927,2.6981 -2.251,4.9055 -2.3519,4.9055 -0.1009,0 -0.3843,-0.7441 -0.6298,-1.6536 z"
         style="fill:#846f00;fill-opacity:1;stroke-width:0.26458332" />
    </g>
  </g>
</svg>
