<?xml version="1.0" encoding="UTF-8" standalone="no"?>
<!-- Created with Inkscape (http://www.inkscape.org/) -->

<svg
   xmlns:dc="http://purl.org/dc/elements/1.1/"
   xmlns:cc="http://creativecommons.org/ns#"
   xmlns:rdf="http://www.w3.org/1999/02/22-rdf-syntax-ns#"
   xmlns:svg="http://www.w3.org/2000/svg"
   xmlns="http://www.w3.org/2000/svg"
   xmlns:sodipodi="http://sodipodi.sourceforge.net/DTD/sodipodi-0.dtd"
   xmlns:inkscape="http://www.inkscape.org/namespaces/inkscape"
   width="1920"
   height="1080"
   viewBox="0 0 507.99999 285.75001"
   version="1.1"
   id="svg8"
   inkscape:version="0.92.2 (5c3e80d, 2017-08-06)"
   sodipodi:docname="03_bottom.svg">
  <defs
     id="defs2">
    <pattern
       y="0"
       x="0"
       height="6"
       width="6"
       patternUnits="userSpaceOnUse"
       id="EMFhbasepattern" />
  </defs>
  <sodipodi:namedview
     id="base"
     pagecolor="#ffffff"
     bordercolor="#666666"
     borderopacity="1.0"
     inkscape:pageopacity="0.0"
     inkscape:pageshadow="2"
     inkscape:zoom="0.35355339"
     inkscape:cx="985.11122"
     inkscape:cy="120.94766"
     inkscape:document-units="mm"
     inkscape:current-layer="layer1"
     showgrid="false"
     inkscape:window-width="1920"
     inkscape:window-height="1017"
     inkscape:window-x="-8"
     inkscape:window-y="-8"
     inkscape:window-maximized="1"
     units="px"
     showguides="false" />
  <metadata
     id="metadata5">
    <rdf:RDF>
      <cc:Work
         rdf:about="">
        <dc:format>image/svg+xml</dc:format>
        <dc:type
           rdf:resource="http://purl.org/dc/dcmitype/StillImage" />
        <dc:title></dc:title>
      </cc:Work>
    </rdf:RDF>
  </metadata>
  <g
     inkscape:label="Layer 1"
     inkscape:groupmode="layer"
     id="layer1"
     transform="translate(0,-11.25)">
    <path
       style="fill:#846f00;fill-opacity:1;stroke-width:0.26458332"
       d="m -9.466167e-4,237.12907 c 0,-50.329 0.0579999967,-59.922 0.3606999967,-60.0382 0.47389997,-0.1819 0.42989997,-0.8372 1.92510012,28.6567 0.6898,13.6062 1.3293,24.7981 1.4212,24.8709 0.092,0.073 0.3573,3.9545 0.59,8.6261 l 0.423,8.4939 0.9803,3.1478 c 0.5392,1.7313 1.1143,3.2326 1.278,3.3361 0.1826,0.1155 0.3321,1.3434 0.3867,3.175 l 0.089,2.9867 0.9176,0.6615 c 0.5046,0.3638 1.0365,0.9538 1.1819,1.3111 0.2214,0.5441 0.1654,0.7243 -0.3445,1.109 -0.5837,0.4403 -0.6335,0.4361 -1.2047,-0.1005 l -0.5959,-0.5598 v 0.9722 c 0,0.5347 -0.1111,0.9721 -0.247,0.9721 -0.1358,0 -0.8659,0.3848 -1.6225,0.8551 l -1.3755,0.855 4.0699,0.9928 c 2.2384995,0.5461 5.2246995,1.2739 6.6359995,1.6175 l 2.5661,0.6247 2.5933,-3.3116 c 1.4263,-1.8214 2.6528,-3.3899 2.7256,-3.4856 0.073,-0.096 9.0619,0.073 19.976,0.376 l 19.8438,0.5501 14.6843,-1.9073 c 9.2207,-1.1976 16.2351,-1.9759 18.852,-2.0919 l 4.167707,-0.1846 -0.827907,1.9833 -0.8278,1.9833 -2.3502,0.8777 c -1.2927,0.4827 -2.3193,0.9079 -2.2815,0.945 0.038,0.037 22.928807,-1.2939 50.868807,-2.9576 l 50.8,-3.0249 14.7496,-4.086 14.7497,-4.086 1.0279,1.1019 1.0279,1.1019 -14.8515,5.68 c -8.1684,3.124 -14.8938,5.7122 -14.9455,5.7516 -0.052,0.039 0.361,0.4659 0.917,0.9478 0.5561,0.4819 1.3565,1.1798 1.7789,1.5509 l 0.7679,0.6748 -0.7044,1.3899 c -0.5249,1.0358 -0.8193,1.3554 -1.1557,1.2544 -0.2483,-0.075 -3.7852,-0.9635 -7.8597,-1.9755 l -7.4084,-1.8399 -21.2989,3.7901 c -11.7145,2.0845 -20.9875,3.8005 -20.6068,3.8134 0.3807,0.013 3.4499,1.0232 6.8205,2.2453 5.2573,1.9061 6.4,2.4207 8.0391,3.6204 1.0509,0.7692 2.2799,1.6511 2.7312,1.9596 l 0.8205,0.5611 55.4265,0.6324 55.4266,0.6325 50.7769,-0.4619 50.7769,-0.4619 6.35,-0.901 c 3.4925,-0.4955 12.7794,-1.8006 20.6375,-2.9001 7.8582,-1.0995 14.9721,-2.0976 15.8089,-2.2179 l 1.5213,-0.2187 v 1.6658 1.6658 l -2.5797,0.7808 c -4.4063,1.3335 -12.5444,3.7691 -14.4859,4.3353 -1.0186,0.2971 -4.531,1.3613 -7.8052,2.3649 -3.8749,1.1878 -6.7382,1.9098 -8.2021,2.0683 -10.7519,1.1639 -19.9687,1.9371 -30.2948,2.5415 -6.6939,0.3918 -12.2605,0.7899 -12.3701,0.8847 -0.2058,0.1779 22.663,1.0923 26.9663,1.0782 1.3339,0 2.465,-0.1025 2.5136,-0.218 0.049,-0.1154 1.6955,-0.4233 3.66,-0.6842 7.0926,-0.942 13.1653,-1.7812 16.6688,-2.3035 3.0286,-0.4514 6.65,-0.6071 23.8125,-1.0232 18.5955,-0.4509 21.1653,-0.5697 31.61764,-1.4619 6.25739,-0.5341 11.58435,-1.0516 11.83767,-1.1499 0.30114,-0.1169 -1.94295,-1.0191 -6.4823,-2.606 l -6.94285,-2.4272 -3.70416,0.4741 c -2.0373,0.2607 -3.7824,0.4005 -3.878,0.3105 -0.096,-0.09 -0.3575,-0.61 -0.5819,-1.1557 l -0.4079,-0.9922 h 2.7646 c 1.5206,0 2.7647,-0.095 2.7647,-0.2108 0,-0.116 -3.6367,-1.3305 -8.0814,-2.6988 -4.4448,-1.3685 -8.1846,-2.6131 -8.3107,-2.7658 -0.1261,-0.1527 -0.3152,-0.7372 -0.4202,-1.2988 -0.1718,-0.9192 -0.1411,-1.0061 0.3071,-0.8709 1.4364,0.4333 27.58466,7.5805 27.73349,7.5805 0.0964,0 -0.54364,-1.0304 -1.42235,-2.2898 l -1.59763,-2.2898 0.98904,-0.8742 c 0.54398,-0.4808 1.08257,-0.8791 1.19689,-0.8852 0.1143,-0.01 1.45047,1.0903 2.96926,2.4364 l 2.76141,2.4474 13.53724,2.0961 13.53728,2.0961 2.27888,-0.5731 c 6.53224,-1.6429 6.25205,-1.4697 8.5068,-5.2569 0.76333,-1.282 1.52548,-2.45 1.69371,-2.5955 0.16822,-0.1455 0.8858,-1.2171 1.59459,-2.3813 0.70882,-1.1641 1.42385,-2.2357 1.58901,-2.3812 0.16512,-0.1455 0.93583,-1.3362 1.71267,-2.6459 0.77684,-1.3096 1.56057,-2.5035 1.74165,-2.6529 0.18105,-0.1495 0.89871,-1.221 1.5948,-2.3813 2.37352,-3.9562 2.27946,-4.121 2.18453,3.828 -0.0547,4.5812 -0.17925,6.9783 -0.36901,7.1032 -0.23014,0.1514 -2.25105,8.8935 -2.23224,9.6564 0.003,0.1142 0.60042,0.1286 1.32802,0.032 l 1.32292,-0.1755 v 6.9133 6.9132 l -122.83276,-0.023 -122.8328,-0.023 1.8521,-0.6329 1.852,-0.633 -2.6458,0.1261 c -1.4552,0.069 -4.9675,0.1928 -7.8052,0.2744 -2.8377,0.082 -8.7302,0.3201 -13.0945,0.53 -6.6522,0.3199 -26.8961,0.3816 -125.2141,0.3816 l -117.2789066167,-2e-4 z M 119.60606,280.70157 c 0.6166,-0.9763 1.3714,-1.9844 1.6774,-2.2401 0.5452,-0.4557 0.5457,-0.4649 0.027,-0.4594 -0.2911,0 -4.6964,0.7571 -9.7896,1.6757 -7.203,1.299 -9.04,1.7073 -8.2683,1.8377 0.5457,0.092 1.4387,0.244 1.9844,0.3373 0.8296,0.142 5.7086,0.38 11.8826,0.5798 l 1.3653,0.044 z M 0.10615338,15.379872 c 3e-4,-2.3283 0.041,-3.2454 0.09,-2.0379 0.049,1.2074 0.049,3.1124 -6e-4,4.2333 -0.049,1.1209 -0.09,0.133 -0.089,-2.1954 z"
       id="path346"
       inkscape:connector-curvature="0" />
  </g>
</svg>
