<?xml version="1.0" encoding="UTF-8" standalone="no"?>
<!-- Created with Inkscape (http://www.inkscape.org/) -->

<svg
   xmlns:dc="http://purl.org/dc/elements/1.1/"
   xmlns:cc="http://creativecommons.org/ns#"
   xmlns:rdf="http://www.w3.org/1999/02/22-rdf-syntax-ns#"
   xmlns:svg="http://www.w3.org/2000/svg"
   xmlns="http://www.w3.org/2000/svg"
   xmlns:sodipodi="http://sodipodi.sourceforge.net/DTD/sodipodi-0.dtd"
   xmlns:inkscape="http://www.inkscape.org/namespaces/inkscape"
   width="1920"
   height="1080"
   viewBox="0 0 507.99999 285.75001"
   version="1.1"
   id="svg8"
   inkscape:version="0.92.2 (5c3e80d, 2017-08-06)"
   sodipodi:docname="03_top.svg">
  <defs
     id="defs2">
    <pattern
       y="0"
       x="0"
       height="6"
       width="6"
       patternUnits="userSpaceOnUse"
       id="EMFhbasepattern" />
  </defs>
  <sodipodi:namedview
     id="base"
     pagecolor="#ffffff"
     bordercolor="#666666"
     borderopacity="1.0"
     inkscape:pageopacity="0.0"
     inkscape:pageshadow="2"
     inkscape:zoom="0.35355339"
     inkscape:cx="985.11122"
     inkscape:cy="120.94766"
     inkscape:document-units="mm"
     inkscape:current-layer="layer1"
     showgrid="false"
     inkscape:window-width="1920"
     inkscape:window-height="1017"
     inkscape:window-x="-8"
     inkscape:window-y="-8"
     inkscape:window-maximized="1"
     units="px"
     showguides="false" />
  <metadata
     id="metadata5">
    <rdf:RDF>
      <cc:Work
         rdf:about="">
        <dc:format>image/svg+xml</dc:format>
        <dc:type
           rdf:resource="http://purl.org/dc/dcmitype/StillImage" />
        <dc:title></dc:title>
      </cc:Work>
    </rdf:RDF>
  </metadata>
  <g
     inkscape:label="Layer 1"
     inkscape:groupmode="layer"
     id="layer1"
     transform="translate(0,-11.25)">
    <path
       style="fill:#846f00;fill-opacity:1;stroke-width:0.26458332"
       d="m 0.19002927,132.00417 c -0.099,-0.099 -0.1804,-27.3068 -0.1804,-60.461296 v -60.2809 l 61.44949973,0.031 c 40.033401,0.02 60.965401,0.1198 60.060401,0.2848 -0.764,0.1393 -1.3891,0.3423 -1.3891,0.451 0,0.1087 -0.9525,0.3588 -2.1166,0.5557 -1.1642,0.1969 -2.1167,0.4379 -2.1167,0.5355 0,0.098 -1.1906,0.3866 -2.6458,0.6422 -1.4552,0.2556 -2.6459,0.5714 -2.6459,0.7019 0,0.1304 -0.2682,0.2371 -0.5961,0.2371 -0.3279,0 -1.3697,0.2178 -2.3151,0.4841 -0.9454,0.2663 -3.1477,0.7673 -4.894,1.1134 -1.7462,0.346 -3.234803,0.7126 -3.307903,0.8145 -0.073,0.1019 -0.608797,0.2662 -1.190597,0.365 -3.7686,0.6406 -9.5458,1.8196 -9.6567,1.9708 -0.073,0.099 -1.3824,0.4034 -2.9104,0.6761 -1.528,0.2728 -2.837701,0.5729 -2.910401,0.667 -0.073,0.094 -1.2634,0.3943 -2.6458,0.6672 -1.3825,0.2729 -2.5731,0.5652 -2.6459,0.6494 -0.073,0.084 -1.6206,0.4268 -3.4396,0.7611 -3.7492,0.6892 -5.8208,1.2788 -5.8208,1.6568 0,0.1418 -0.6298,0.5364 -1.3997,0.8769 -0.7698,0.3404 -1.5582,0.8101 -1.7521,1.0437 -0.1939,0.2337 -0.5761,0.4248 -0.8493,0.4248 -0.2733,0 -0.4968,0.1114 -0.4968,0.2475 0,0.1361 -0.4167,0.3981 -0.9261,0.5823 -0.5093,0.1842 -0.926,0.4267 -0.926,0.5389 0,0.1123 -0.5953,0.4602 -1.3229,0.7732 -0.7276,0.313 -1.3229,0.6576 -1.3229,0.7657 0,0.1081 -0.8335,0.5692 -1.8521,1.0247 -1.0187,0.4555 -1.8521,0.9348 -1.8521,1.0651 0,0.1303 -0.3072,0.314 -0.6827,0.4083 -1.1838,0.2971 -4.1897,1.803 -4.7456,2.3774 -0.5826,0.602 -2.8266,1.7419 -3.4292,1.7419 -0.2071,0 -0.4718,0.1622 -0.5882,0.3603 -0.1164,0.1982 -1.1503,0.8095 -2.2977,1.3585 -1.1473,0.549 -2.2915,1.2036 -2.5426,1.4547 -0.2511,0.2511 -1.009,0.7324 -1.6842,1.0697 -0.6752,0.3372 -1.2277,0.7063 -1.2277,0.8201 0,0.3103 -1.4042,1.5513 -1.7553,1.5513 -0.168,0 -0.67,0.3406 -1.1157,0.7569 -0.4456,0.4163 -1.2024,0.9122 -1.6816,1.1019 -0.4793,0.1898 -1.05,0.4794 -1.2682,0.6436 -0.2183,0.1642 -0.7079,0.4536 -1.0881,0.6431 -0.5358,0.2671 -0.7636,0.6682 -1.0136,1.7856 -0.1774,0.7926 -0.4907,1.7636 -0.6963,2.1576 -0.2056,0.3941 -0.3745,0.9249 -0.3754,1.1795 -8e-4,0.2547 -0.1088,0.463 -0.2398,0.463 -0.131,0 -0.3746,0.6251 -0.5414,1.3891 -0.1667,0.764 -0.4607,1.7463 -0.6533,2.1828 -0.5107,1.1579 -1.213,3.6605 -1.213,4.3228 0,0.3146 -0.119,0.572 -0.2646,0.572 -0.1455,0 -0.2646,0.1786 -0.2646,0.3969 0,0.2183 -0.098,0.3969 -0.2179,0.3969 -0.1199,0 -0.4981,1.1311 -0.8404,2.5135 -0.3423,1.3825 -0.7156,2.5135 -0.8297,2.5135 -0.1141,0 -0.3501,0.4763 -0.5245,1.0584 -0.1744,0.5821 -0.401,1.0583 -0.5036,1.0583 -0.1026,0 -0.3374,0.7442 -0.5217,1.6537 -0.1844,0.9095 -0.4802,1.8917 -0.6575,2.1828 -0.1773,0.291 -0.4713,1.1542 -0.6534,1.9182 -0.1821,0.764 -0.4383,1.3891 -0.5693,1.3891 -0.131,0 -0.2382,0.3307 -0.2382,0.7348 0,0.4042 -0.1682,0.9751 -0.3738,1.2686 -0.2056,0.2935 -0.6504,1.659498 -0.9885,3.035398 -0.3381,1.376 -0.7056,2.5415 -0.8168,2.59 -0.1112,0.049 -0.2022,0.3164 -0.2022,0.5953 0,0.2789 -0.1071,0.5071 -0.238,0.5071 -0.1309,0 -0.4361,0.8907 -0.6783,1.9792 -0.2422,1.0886 -0.5383,2.0398 -0.6581,2.1138 -0.1197,0.074 -0.2961,0.5525 -0.3919,1.0635 -0.096,0.5109 -0.2775,0.9289 -0.4036,0.9289 -0.1262,0 -0.3098,0.4763 -0.4082,1.0584 -0.098,0.582 -0.2735,1.0583 -0.3893,1.0583 -0.1157,0 -0.2769,0.2679 -0.3582,0.5953 -0.7454,3.0037 -2.2706,7.342198 -2.5811,7.342198 -0.086,0 -0.3742,0.9525 -0.6401,2.1167 -0.2659,1.1641 -0.5702,2.1166 -0.6763,2.1166 -0.106,0 -0.397,0.8335 -0.6466,1.8521 -0.2497001,1.0187 -0.5602001,1.8521 -0.6900001,1.8521 -0.1297996,0 -0.2398996,0.2084 -0.2444996,0.463 0,0.2547 -0.178,0.6871 -0.3853,0.9609 -0.2073,0.2738 -0.5097,1.137 -0.6718,1.9182 -0.1622,0.7812 -0.3907,1.4204 -0.5077,1.4204 -0.117,0 -0.2813,0.3428 -0.3651,0.7619 -0.084,0.419 -0.3368,0.9463 -0.5622,1.1717 -0.2255,0.2254 -0.4114,0.5672 -0.4133,0.7595 0,0.5032 -1.0291,3.7011 -1.2926,4.0359 -0.1222,0.1554 -0.3687,0.9075 -0.5478,1.6715 -0.1791,0.764 -0.4196,1.3891 -0.5344,1.3891 -0.1148,0 -0.2869,0.4167 -0.3825,0.926 -0.095,0.5093 -0.2659,0.9261 -0.3786,0.9261 -0.1127,0 -0.4859,1.1906 -0.8295,2.6458 -0.3435,1.4552 -0.7221,2.6458 -0.8414,2.6458 -0.1193,0 -0.2169,0.1786 -0.2169,0.3969 0,0.2183 -0.119,0.3969 -0.2646,0.3969 -0.14550002,0 -0.26640002,0.2083 -0.26860002,0.463 -0.01,0.601 -0.37800001,1.1834 -0.60930001,0.9521 z M 505.49904,58.270274 l -2.36853,-6.4376 -4.10887,-2.1348 c -3.82085,-1.9851 -4.97131,-2.4147 -16.412,-6.1284 l -12.30312,-3.9936 -17.85938,-2.0775 -17.85941,-2.0776 -44.45,0.9967 c -38.3522,0.8599 -66.9618,1.7003 -75.7247,2.2245 l -2.4351,0.1456 -1.3566,-1.7904 -1.3566,-1.7904 1.675,-0.1632 c 0.9213,-0.09 8.4021,-0.2437 16.6241,-0.3421 l 14.9489,-0.179 16.533,-2.7852 c 9.0931,-1.5319 16.5788,-2.8311 16.6348,-2.8872 0.056,-0.056 -0.5005,-0.8589 -1.2368,-1.7843 -0.7363,-0.9253 -1.3759,-1.8432 -1.4213,-2.0397 -0.058,-0.2521 0.5535,-0.4879 2.0767,-0.8004 l 2.1593,-0.4431 3.2697,2.556 3.2698,2.556 9.3876,-0.8758 c 19.254,-1.7961 62.9702,-5.1289 74.83237,-5.705 6.59937,-0.3204 11.77858,-0.667 11.50937,-0.77 -1.3407,-0.5133 -45.57004,-2.8374 -97.59164,-5.1282 l -57.15,-2.5165 -75.8031,-1.2847 -75.8031,-1.2848 167.4151,-0.034 167.41511,-0.034 v 26.7229 c 0,14.6976 -0.032,26.7229 -0.071,26.7229 -0.0391,0 -1.13686,-2.8969 -2.43956,-6.4375 z m -391.94921,-29.8509 c -2.2369,-0.7281 -3.9634,-1.4153 -3.8365,-1.5271 0.1269,-0.1119 5.9285,-3.6757 12.8925,-7.9196 l 12.6617,-7.7162 11.5906,0.069 11.5906,0.069 -19.8427,9.1281 c -10.9134,5.0205 -20.1006,9.149 -20.4159,9.1745 -0.3152,0.025 -2.4034,-0.5493 -4.6403,-1.2775 z"
       id="path322"
       inkscape:connector-curvature="0" />
  </g>
</svg>
