<?xml version="1.0" encoding="UTF-8" standalone="no"?>
<!-- Created with Inkscape (http://www.inkscape.org/) -->

<svg
   xmlns:dc="http://purl.org/dc/elements/1.1/"
   xmlns:cc="http://creativecommons.org/ns#"
   xmlns:rdf="http://www.w3.org/1999/02/22-rdf-syntax-ns#"
   xmlns:svg="http://www.w3.org/2000/svg"
   xmlns="http://www.w3.org/2000/svg"
   xmlns:sodipodi="http://sodipodi.sourceforge.net/DTD/sodipodi-0.dtd"
   xmlns:inkscape="http://www.inkscape.org/namespaces/inkscape"
   width="1920"
   height="1080"
   viewBox="0 0 507.99999 285.75001"
   version="1.1"
   id="svg8"
   inkscape:version="0.92.2 (5c3e80d, 2017-08-06)"
   sodipodi:docname="04_bottom.svg">
  <defs
     id="defs2">
    <pattern
       y="0"
       x="0"
       height="6"
       width="6"
       patternUnits="userSpaceOnUse"
       id="EMFhbasepattern" />
  </defs>
  <sodipodi:namedview
     id="base"
     pagecolor="#ffffff"
     bordercolor="#666666"
     borderopacity="1.0"
     inkscape:pageopacity="0.0"
     inkscape:pageshadow="2"
     inkscape:zoom="0.3535534"
     inkscape:cx="1853.0804"
     inkscape:cy="9.4704323"
     inkscape:document-units="mm"
     inkscape:current-layer="layer1"
     showgrid="false"
     inkscape:window-width="1920"
     inkscape:window-height="1017"
     inkscape:window-x="-8"
     inkscape:window-y="-8"
     inkscape:window-maximized="1"
     units="px"
     showguides="false" />
  <metadata
     id="metadata5">
    <rdf:RDF>
      <cc:Work
         rdf:about="">
        <dc:format>image/svg+xml</dc:format>
        <dc:type
           rdf:resource="http://purl.org/dc/dcmitype/StillImage" />
        <dc:title></dc:title>
      </cc:Work>
    </rdf:RDF>
  </metadata>
  <g
     inkscape:label="Layer 1"
     inkscape:groupmode="layer"
     id="layer1"
     transform="translate(0,-11.25)">
    <path
       style="fill:#846f00;fill-opacity:1;stroke-width:0.26458332"
       d="m -0.00231051,294.68074 v -2.3389 l 6.54840001,-0.1655 c 3.6016995,-0.091 13.9302995,-0.31 22.9525995,-0.4865 9.0223,-0.1765 16.4637,-0.3981 16.5365,-0.4925 0.073,-0.094 6.5617,-0.302 14.4198,-0.4614 92.174991,-1.8703 146.083191,-3.1233 146.370991,-3.4021 0.2468,-0.2391 -0.4107,-0.355 -2.8443,-0.5012 -1.7409,-0.1046 -3.1653,-0.2786 -3.1653,-0.3868 0,-0.1081 -2.2213,-0.3518 -4.9364,-0.5416 -5.4953,-0.384 -5.6553,-0.4443 -6.1611,-2.3227 -0.1526,-0.5668 -0.5161,-1.3057 -0.8077,-1.6419 l -0.5302,-0.6113 v 2.0579 2.0579 l -0.7276,-0.1402 c -0.4002,-0.077 -2.3349,-0.4098 -4.2995,-0.7393 -1.9645,-0.3295 -3.6314,-0.6742 -3.7041,-0.7661 -0.073,-0.092 -2.0128,-0.4906 -4.3112,-0.8863 -3.9213,-0.675 -5.2138,-1.0673 -5.2138,-1.5825 0,-0.238 -1.4096,-2.1971 -2.5701,-3.5721 -0.4055,-0.4804 -0.9456,-1.2543 -1.2004,-1.7198 -0.2547,-0.4654 -0.7851,-1.1888 -1.1787,-1.6075 -0.3935,-0.4187 -1.0456,-1.2819 -1.4492,-1.9183 -0.4227,-0.6666 -0.9324,-1.1538 -1.2026,-1.1494 -1.8357,0.029 -19.8106,-0.928 -19.9157,-1.0607 -0.1257,-0.1588 -45.389291,-2.4228 -47.889591,-2.3954 -0.6548,0.01 -18.7523,3.8641 -40.2166,8.5708 -21.4644,4.7068 -54.38649951,11.1766 -54.40289951,11.1617 -0.016,-0.015 -0.1079,-1.1859 -0.20340004,-2.6024 l -0.1738,-2.5754 -0.048,-1.8588 7.33369995,-1.7859 36.3814996,-7.6258 c 24.1446,-5.7336 22.9924,-5.0982 10.268,-5.6629 -4.265,-0.1893 -7.814,-0.4215 -7.8868,-0.516 -0.073,-0.094 -9.4192,-0.6177 -20.7698,-1.1628 -11.3506,-0.545 -21.6196996,-1.0612 -22.8202996,-1.1471 l -2.18280001,-0.1561 v -2.1155 -2.1155 l 2.57970001,0.1623 c 1.4188,0.089 7.8779996,0.3667 14.3535996,0.6164 6.4757,0.2497 11.8335,0.5298 11.9063,0.6224 0.073,0.092 5.3115,0.3746 11.6416,0.6269 6.3302,0.2522 18.2365,0.7378 26.4584,1.0791 l 14.9489,0.6205 33.322491,-7.9184 c 18.3274,-4.3551 33.3408,-7.945 33.3631,-7.9775 0.022,-0.033 1.6791,-3.2552 3.6815,-7.1615 3.1404,-6.1261 3.7507,-7.1485 4.4396,-7.4382 0.8983,-0.3777 0.7754,-0.524 -0.6572,-0.7825 -0.5457,-0.099 -0.9922,-0.2771 -0.9922,-0.397 0,-0.1199 -0.3869,-0.2903 -0.8599,-0.3787 -0.4729,-0.088 -1.6933,-0.4023 -2.7119,-0.6975 l -1.8521,-0.5368 -6.4823,0.7129 c -3.5653,0.3922 -6.5418,0.7863 -6.6146,0.8759 -0.073,0.09 -4.8353,0.6845 -10.5833,1.3218 -5.7481,0.6374 -10.5106,1.2331 -10.5834,1.3238 -0.073,0.091 -4.8352,0.6868 -10.58329,1.3247 -5.748101,0.6379 -10.510601,1.2332 -10.583301,1.3229 -0.073,0.09 -4.8353,0.6851 -10.5834,1.3229 -5.748,0.6379 -10.5105,1.234 -10.5833,1.3247 -0.073,0.091 -4.8353,0.6864 -10.5833,1.3238 -5.7481,0.6374 -10.5106,1.2339 -10.5834,1.3256 -0.073,0.092 -4.8352,0.687 -10.5833,1.3229 -5.7481,0.6358 -10.5106,1.2328 -10.5833,1.3265 -0.073,0.094 -4.8353,0.6886 -10.5834,1.322 -5.748,0.6333 -10.5104994,1.2271 -10.5832994,1.3195 -0.073,0.092 -2.2457002,0.4037 -4.8286002,0.6919 l -4.69640001,0.5238 v -3.1236 c 0,-2.9021 0.036,-3.1237 0.5071,-3.1237 0.2789,0 0.54680001,-0.094 0.59530001,-0.2096 0.048,-0.1153 4.9698,-0.7264 10.9360996,-1.358 5.9664,-0.6316 10.9075,-1.2275 10.9802,-1.3243 0.073,-0.097 5.133,-0.6994 11.2448,-1.339 6.1119,-0.6396 11.1721,-1.2375 11.2448,-1.3286 0.1118,-0.1399 14.469,-1.7707 20.1745,-2.2915 0.9823,-0.09 1.7859,-0.2477 1.7859,-0.3511 0,-0.1035 0.8037,-0.2611 1.786,-0.3504 5.527,-0.5023 20.062,-2.1534 20.1745,-2.2917 0.073,-0.09 5.0138,-0.6785 10.980201,-1.3089 5.9663,-0.6304 10.90739,-1.2254 10.98019,-1.3222 0.073,-0.097 5.1329,-0.6993 11.2448,-1.3389 6.1118,-0.6396 11.172,-1.2379 11.2448,-1.3295 0.073,-0.092 3.1684,-0.4904 6.8791,-0.8863 6.6623,-0.7108 6.7569,-0.7294 7.5407,-1.4868 1.7659,-1.7065 3.4036,-3.1943 4.5529,-4.1361 0.6672,-0.5467 1.6606,-1.4182 2.2076,-1.9367 0.547,-0.5185 1.7264,-1.5976 2.621,-2.3979 0.8945,-0.8004 2.1326,-1.963 2.7513,-2.5836 1.0157,-1.0188 1.3934,-1.1957 3.8888,-1.821 1.5201,-0.3809 2.8233,-0.7777 2.8961,-0.8817 0.1546,-0.221 6.6616,-1.8986 6.8056,-1.7546 0.053,0.053 -0.2373,0.4392 -0.6462,0.8571 -0.409,0.4179 -0.9493,1.0575 -1.2007,1.4213 -0.2514,0.3638 -0.6661,0.9591 -0.9214,1.3229 l -0.4643,0.6614 0.9739,-0.7276 c 0.5357,-0.4001 1.0919,-0.7276 1.2359,-0.7276 0.144,0 0.5985,-0.3353 1.0098,-0.7452 1.0312,-1.0274 3.6934,-2.6944 4.303,-2.6944 0.276,0 0.5416,-0.1035 0.5901,-0.23 0.079,-0.2071 2.6771,-0.8178 8.8195,-2.0735 1.1641,-0.238 2.1762,-0.5164 2.2489,-0.6188 0.073,-0.1024 0.6886,-0.3038 1.3686,-0.4476 1.1699,-0.2473 1.2197,-0.2349 0.9285,0.2314 -0.1692,0.271 -0.4156,0.4927 -0.5475,0.4927 -0.1319,0 -0.7284,0.3957 -1.3254,0.8794 -0.5971,0.4836 -1.294,0.9561 -1.5486,1.05 -0.2547,0.094 -0.4631,0.2823 -0.4631,0.4186 0,0.1364 -0.5562,0.6164 -1.236,1.0667 -0.6797,0.4502 -1.1511,0.8186 -1.0474,0.8186 0.3008,0 3.441,-1.6668 3.8014,-2.0179 0.1801,-0.1753 1.2219,-0.7434 2.3151,-1.2623 1.0933,-0.5189 1.9878,-1.0647 1.9878,-1.2129 0,-0.1481 0.1252,-0.2694 0.2783,-0.2694 0.1531,0 1.2328,-0.4762 2.3993,-1.0583 1.2367,-0.6171 2.4994,-1.0583 3.0289,-1.0583 0.4994,0 0.908,-0.1001 0.908,-0.2224 0,-0.1816 4.9993,-0.8512 5.2278,-0.7003 0.1201,0.079 -11.6332,11.7706 -11.833,11.7706 -0.1056,0 -0.4187,0.2539 -0.6959,0.5643 -0.4969,0.5563 -0.4965,0.5623 0.025,0.42 0.291,-0.079 1.6603,-0.4152 3.0427,-0.7462 1.3825,-0.3311 2.5731,-0.6864 2.6458,-0.7898 0.073,-0.1033 0.4674,-0.2298 0.8769,-0.2811 0.6573,-0.082 0.8278,0.062 1.4552,1.2297 0.3909,0.7276 0.8,1.3626 0.9091,1.4111 0.1091,0.048 0.1984,0.2698 0.1984,0.4917 0,0.2973 0.1725,0.3602 0.6556,0.239 0.7986,-0.2005 0.9021,0.1242 0.9976,3.1305 l 0.067,2.0973 3.1023,-4.135 c 1.7063,-2.2743 3.3136,-4.2474 3.5719,-4.3848 0.6415,-0.3413 25.4575,-6.7048 25.7522,-6.6036 0.1296,0.044 -2.0043,5.0815 -4.7419,11.1934 -2.7377,6.1118 -5.4643,12.2094 -6.0592,13.55 l -1.0817,2.4376 0.973,-0.379 c 0.5352,-0.2084 2.4562,-0.9199 4.2689,-1.581 l 3.296,-1.202 1.6399,0.5457 c 1.3436,0.4471 1.8152,0.7704 2.6103,1.7893 0.9638,1.2352 0.9692,1.256 0.7934,3.0956 -0.097,1.0187 -0.3299,2.0122 -0.5168,2.2079 -0.187,0.1957 -3.2177,1.2238 -6.735,2.2846 -3.5174,1.0608 -6.4523,1.9859 -6.5222,2.0557 -0.07,0.07 3.3284,2.4859 7.5517,5.3689 4.2232,2.8829 7.65,5.2699 7.615,5.3044 -0.035,0.034 -5.8775,1.7519 -12.9833,3.8167 l -12.9198,3.754 -4.9396,-2.1719 c -2.7168,-1.1945 -5.1183,-2.2348 -5.3365,-2.3118 -0.2183,-0.077 0.7281,1.0035 2.103,2.4012 1.375,1.3976 2.4465,2.5915 2.3813,2.6531 -0.065,0.062 -1.8451,0.6309 -3.9552,1.2652 -3.5602,1.0702 -3.751,1.1593 -2.6501,1.2376 0.6524,0.046 1.2477,0.1751 1.3229,0.286 0.075,0.1109 3.2918,0.4722 7.1481,0.8029 3.8563,0.3307 7.0439,0.6313 7.0835,0.668 0.04,0.037 -0.6582,0.7881 -1.5508,1.6697 l -1.6228,1.6029 3.2705,-0.9208 c 1.7989,-0.5064 3.3103,-1.0319 3.3588,-1.1678 0.1072,-0.3004 1.6316,-0.3337 1.6316,-0.036 0,0.1163 3.1254,0.4189 6.9453,0.6724 3.8199,0.2534 7.6378,0.5317 8.4842,0.6183 l 1.5388,0.1576 -0.7247,0.4754 c -0.3986,0.2615 -0.8291,0.6619 -0.9567,0.8899 -0.1276,0.228 -0.3469,0.4145 -0.4874,0.4145 -0.2965,0 -3.1629,1.8408 -3.5547,2.2828 -0.1455,0.1642 -0.979,0.745 -1.8521,1.2907 -0.8731,0.5458 -1.6827,1.1556 -1.7991,1.3552 -0.1163,0.1996 -0.4041,0.3629 -0.6394,0.3629 -1.0674,0 0.04,0.2506 2.8354,0.6415 4.8731,0.6816 4.7625,0.6537 4.7625,1.2006 0,0.2723 0.1488,0.5447 0.3307,0.6053 0.4455,0.1485 0.4417,3.1251 0,3.6446 -0.1844,0.2147 -0.6889,0.8932 -1.121,1.5078 -0.4322,0.6146 -0.9361,1.0723 -1.1199,1.0171 -0.1837,-0.055 -1.108,-0.2508 -2.0539,-0.4345 -0.9459,-0.1838 -1.7793,-0.4137 -1.8521,-0.511 -0.124,-0.1659 -2.9799,-0.8047 -3.0963,-0.6925 -0.1275,0.1229 1.0461,4.2758 1.2427,4.3973 0.1197,0.074 0.3019,0.5839 0.4049,1.1332 l 0.1874,0.9987 2.2843,-0.1343 c 1.2564,-0.074 5.7371,-0.2012 9.9572,-0.2829 l 7.673,-0.1484 1.4972,-1.0473 c 0.8235,-0.576 1.6213,-1.0472 1.7728,-1.0472 0.1516,0 0.3708,-0.1496 0.4871,-0.3323 0.288,-0.4523 1.8544,-1.6005 3.2618,-2.391 0.638,-0.3584 1.5224,-0.9646 1.9653,-1.3472 0.443,-0.3826 1.7579,-1.3137 2.922,-2.0692 1.1642,-0.7555 2.1762,-1.4539 2.249,-1.5519 0.073,-0.098 1.2038,-0.8656 2.5135,-1.7057 1.3097,-0.84 2.5003,-1.6704 2.6459,-1.8452 0.1455,-0.1748 1.4462,-1.0755 2.8905,-2.0015 1.4442,-0.926 2.8891,-1.9266 3.2107,-2.2235 1.0437,-0.9635 4.8001,-3.0534 5.4881,-3.0534 0.3683,0 0.7094,-0.1005 0.7579,-0.2234 0.049,-0.1228 1.9932,-0.5413 4.3215,-0.9299 2.3283,-0.3886 5.4606,-0.9237 6.9605,-1.1893 l 2.7272,-0.4827 0.3885,0.7512 c 0.2136,0.4131 0.4883,0.7512 0.6103,0.7512 0.122,0 0.4274,0.5382 0.6786,1.1959 l 0.4567,1.1959 0.5052,-0.6423 c 0.2779,-0.3533 0.5053,-0.7515 0.5053,-0.8848 0,-0.1334 0.4701,-0.7098 1.0446,-1.2809 0.8171,-0.8122 1.3789,-1.1079 2.5797,-1.3579 0.8443,-0.1757 1.8526,-0.3247 2.2406,-0.331 0.3881,-0.01 0.7453,-0.1107 0.7938,-0.232 0.049,-0.1212 2.8266,-0.6594 6.1736,-1.1959 12.2132,-1.9578 14.8192,-2.405 14.9489,-2.5651 0.1141,-0.1407 5.0848,-1.0478 5.2025,-0.9494 0.085,0.071 -2.2596,5.0701 -2.5129,5.3566 -0.3608,0.408 -1.3666,2.4086 -1.3666,2.7183 0,0.1402 0.3338,-0.063 0.7419,-0.4524 0.4081,-0.389 1.8571,-1.7193 3.2201,-2.9563 1.3629,-1.2369 3.0661,-2.8145 3.7847,-3.5057 0.7186,-0.6912 1.4081,-1.2567 1.5321,-1.2567 0.3408,0 15.9202,-2.1096 16.4471,-2.2271 0.5291,-0.118 -1.4156,2.1598 -4.0962,4.7977 -0.9823,0.9666 -1.786,1.8286 -1.786,1.9157 0,0.087 -1.0418,1.2341 -2.3151,2.549 -2.3066,2.3821 -4.2895,4.4964 -8.8892,9.4783 -1.3319,1.4426 -3.1659,3.3353 -4.0754,4.2059 -0.9095,0.8706 -1.6536,1.7066 -1.6536,1.8578 0,0.1513 -0.2679,0.5645 -0.5953,0.9182 l -0.5953,0.6433 0.7937,-0.1465 c 0.4366,-0.08 3.8108,-0.1837 7.4983,-0.2293 l 6.7045,-0.083 0.9283,1.7859 c 0.7403,1.4243 1.0525,1.7859 1.5417,1.7859 0.3373,0 0.653,-0.11 0.7015,-0.2446 0.049,-0.1345 1.636,-0.5669 3.5278,-0.9608 1.8918,-0.3939 3.4991,-0.8053 3.5719,-0.9143 0.073,-0.1089 1.4419,-0.4734 3.0427,-0.8098 1.6007,-0.3365 2.9704,-0.6974 3.0437,-0.802 0.073,-0.1046 1.6173,-0.5035 3.431,-0.8864 1.8136,-0.3829 3.3609,-0.7873 3.4385,-0.8987 0.077,-0.1113 1.4506,-0.4777 3.0514,-0.8142 1.6007,-0.3365 2.9699,-0.703 3.0427,-0.8146 0.073,-0.1115 1.3824,-0.4568 2.9104,-0.7674 1.528,-0.3106 2.8178,-0.6813 2.8663,-0.8238 0.049,-0.1426 0.2783,-0.2592 0.5106,-0.2592 0.7729,0 6.1481,-1.3659 6.1481,-1.5623 0,-0.1063 0.8334,-0.4665 1.8521,-0.8005 1.1114,-0.3643 1.852,-0.754 1.852,-0.9743 0,-0.2019 0.105,-0.3671 0.2333,-0.3671 0.2192,0 0.9504,-1.7881 1.2713,-3.1088 0.08,-0.3274 0.2357,-0.5953 0.3471,-0.5953 0.1114,0 0.5393,-1.0418 0.9509,-2.3151 0.4117,-1.2733 0.8722,-2.4438 1.0235,-2.601 0.1512,-0.1572 0.5085,-0.9907 0.794,-1.8521 0.2855,-0.8614 0.5927,-1.6257 0.6828,-1.6985 0.09,-0.073 0.4431,-0.6978 0.7846,-1.3891 0.3415,-0.6912 0.7,-1.2567 0.7966,-1.2567 0.097,0 0.4996,-0.5953 0.8956,-1.323 0.396,-0.7276 0.8233,-1.3229 0.9496,-1.3229 0.1262,0 0.497,-0.5357 0.8241,-1.1906 0.327,-0.6548 0.6707,-1.1906 0.7636,-1.1906 0.093,0 0.4508,-0.506 0.7953,-1.1245 0.3446,-0.6185 0.8578,-1.2906 1.1405,-1.4936 0.4714,-0.3385 0.499,-0.5802 0.3321,-2.9104 -0.2445,-3.4126 -0.3086,-3.6074 -1.2929,-3.9325 -2.5655,-0.8472 -6.4152,-2.2833 -6.5295,-2.4357 -0.1611,-0.2151 -7.6814,-2.92 -8.1181,-2.92 -0.1709,0 -0.5191,-0.2083 -0.7738,-0.463 -0.3489,-0.3488 -0.8227,-0.4469 -1.9209,-0.3978 -0.8018,0.036 -1.5247,0.1686 -1.6063,0.295 -0.082,0.1264 -0.982,0.3679 -2.0006,0.5366 -1.0187,0.1687 -2.1795,0.3729 -2.5797,0.4536 -0.9503,0.1918 -0.9424,-0.072 0.1004,-3.3615 0.7431,-2.3441 0.8855,-2.5992 1.389,-2.4873 0.9764,0.2169 6.5904,0.9385 6.6714,0.8575 0.043,-0.043 -0.5692,-0.6102 -1.3597,-1.2611 -0.7906,-0.6509 -2.041,-1.8681 -2.7789,-2.7048 -0.7378,-0.8367 -1.4614,-1.5214 -1.608,-1.5214 -0.1466,0 -1.5032,-1.2203 -3.0147,-2.7119 -1.5115,-1.4916 -4.7268,-4.617 -7.1452,-6.9453 -8.1402,-7.8371 -13.3262,-13.0374 -13.1636,-13.2 0.089,-0.089 0.3699,-0.1615 0.6245,-0.1615 0.2547,0 0.5027,-0.096 0.5513,-0.2139 0.049,-0.1176 1.6011,-0.554 3.4502,-0.9697 1.8491,-0.4157 3.3027,-0.852 3.2301,-0.9695 -0.073,-0.1174 -0.5971,-0.3529 -1.1655,-0.5232 -1.1416,-0.342 -1.4214,-0.7198 -0.9654,-1.3035 0.8788,-1.1253 1.0648,-1.1362 3.9273,-0.2297 1.4982,0.4744 2.7835,0.9447 2.8562,1.0451 0.073,0.1005 0.43,0.2669 0.7938,0.3698 2.5062,0.7091 6.7697,2.1195 6.8792,2.2758 0.073,0.1039 1.7991,0.6912 3.8364,1.3052 2.0373,0.614 3.7649,1.2146 3.8391,1.3346 0.074,0.12 2.5149,0.7256 5.4239,1.3459 2.909,0.6203 5.3486,1.2082 5.4214,1.3065 0.073,0.098 2.454,0.6959 5.2917,1.3281 2.8376,0.6321 5.2201,1.2348 5.2943,1.3394 0.1503,0.2118 4.4008,1.124 5.0244,1.0783 0.7047,-0.052 3.4396,0.5426 3.4396,0.7473 0,0.1091 0.5358,0.2788 1.1906,0.377 0.6549,0.098 1.1906,0.2672 1.1906,0.3756 0,0.1084 2.3515,0.7197 5.2256,1.3584 2.874,0.6387 5.285,1.2317 5.3578,1.3178 0.073,0.086 2.7516,0.7356 5.9531,1.4433 3.20151,0.7078 5.88701,1.3873 5.96781,1.51 0.138,0.2097 5.0582,0.8756 14.5373,1.9676 2.2556,0.2599 4.1606,0.5497 4.2334,0.6442 0.073,0.094 4.5971,0.6916 10.0541,1.3271 5.45704,0.6355 9.98141,1.2331 10.05417,1.328 0.1074,0.1402 12.24304,1.6658 18.25625,2.2951 0.80037,0.084 1.51474,0.2315 1.5875,0.3284 0.0728,0.097 1.44198,0.3201 3.04271,0.4962 1.60073,0.1761 3.83315,0.4498 4.96094,0.6083 l 2.05052,0.2882 v 14.3894 c 0,7.9141 -0.0893,14.3892 -0.19844,14.389 -0.10914,-10e-5 -0.91281,-0.6505 -1.78594,-1.4452 -0.87312,-0.7947 -1.63144,-1.3176 -1.68513,-1.162 -0.15181,0.4399 2.15183,27.5938 2.35363,27.7429 0.0984,0.073 0.24643,1.0476 0.32888,2.1662 0.11033,1.4966 0.0683,1.9998 -0.15915,1.9048 -0.33769,-0.1411 -1.74437,-1.966 -2.88293,-3.7401 -0.39698,-0.6185 -0.83269,-1.1246 -0.96826,-1.1246 -0.13558,0 -0.78217,-0.8131 -1.43685,-1.8068 -0.65469,-0.9938 -1.5584,-2.1543 -2.00827,-2.5789 -0.44987,-0.4246 -0.81796,-0.9027 -0.81796,-1.0626 0,-0.666 -1.15795,-1.1687 -5.35839,-2.3262 -2.43782,-0.6717 -4.61071,-1.2214 -4.82865,-1.2214 -0.21796,0 -0.39629,-0.1028 -0.39629,-0.2286 0,-0.1258 -1.63711,-0.6777 -3.63802,-1.2266 -7.10846,-1.9499 -8.40208,-2.3304 -8.53281,-2.5097 -0.0728,-0.1 -0.9062,-0.3814 -1.85209,-0.6258 -0.94588,-0.2443 -2.31512,-0.61 -3.04272,-0.8127 -0.7276,-0.2026 -2.6921,-0.7435 -4.3656,-1.2018 -1.6735,-0.4584 -3.0824,-0.9456 -3.1309,-1.0828 -0.048,-0.1372 -0.2952,-0.2494 -0.5482,-0.2494 -0.253,0 -0.9872,-0.1678 -1.6316,-0.3729 -0.6443,-0.205 -2.8193,-0.8195 -4.8332,-1.3654 -2.0139,-0.5459 -3.7998,-1.1257 -3.9687,-1.2884 -0.1689,-0.1628 -0.7238,-0.4286 -1.2331,-0.5908 -3.0148,-0.9602 -8.8867,-3.115 -9.0145,-3.308 -0.083,-0.1254 -0.4997,-0.334 -0.926,-0.4637 -0.4263,-0.1296 -2.1444,-0.7328 -3.8179,-1.3404 -1.67351,-0.6076 -3.48921,-1.2283 -4.03491,-1.3792 -0.5457,-0.1509 -0.9922,-0.3743 -0.9922,-0.4965 0,-0.1222 -0.5655,-0.3979 -1.2567,-0.6128 -2.4341,-0.7565 -7.32,-2.5544 -7.4625,-2.7461 -0.079,-0.1066 -0.6205,-0.3589 -1.2026,-0.5606 -0.5821,-0.2017 -1.2072,-0.4221 -1.3891,-0.4899 -0.2027,-0.076 -0.3307,0.1058 -0.3307,0.4686 0,0.557 1.0897,1.8788 3.1088,3.7711 0.473,0.4432 0.8599,0.8905 0.8599,0.9941 0,0.1035 1.3509,1.5429 3.002,3.1986 2.7619,2.7696 3.0294,3.1268 3.3457,4.4656 0.189,0.8003 0.4362,1.516 0.5493,1.5903 0.113,0.074 0.5217,1.3828 0.9082,2.9076 0.3866,1.5248 0.794,2.8332 0.9055,2.9076 0.1114,0.074 0.4352,1.0876 0.7195,2.2518 l 0.5168,2.1166 2.10411,0.3667 c 1.1573,0.2017 2.1637,0.4474 2.2364,0.5461 0.073,0.099 1.6801,0.4582 3.5719,0.7989 1.8918,0.3407 3.4991,0.6986 3.5719,0.7951 0.073,0.097 1.7992,0.4569 3.8364,0.8005 2.0373,0.3437 3.7661,0.715 3.8418,0.8251 0.076,0.1101 1.9807,0.523 4.2333,0.9176 2.2527,0.3946 4.1552,0.7987 4.228,0.898 0.073,0.099 0.9359,0.3197 1.9182,0.4897 0.9823,0.1701 2.5896,0.4483 3.5719,0.6184 0.9822,0.17 1.8454,0.3918 1.9182,0.4928 0.073,0.101 1.9768,0.5075 4.23121,0.9033 2.25441,0.3958 4.15941,0.8073 4.23333,0.9145 0.0739,0.1072 1.80128,0.4761 3.83857,0.8198 2.0373,0.3437 3.7637,0.707 3.83646,0.8074 0.0728,0.1004 1.68011,0.4588 3.57188,0.7963 1.89177,0.3375 3.49911,0.6944 3.57187,0.7929 0.11922,0.1616 1.56314,0.448 6.87917,1.3648 0.94589,0.1631 1.77932,0.3798 1.85208,0.4815 0.0728,0.1018 1.44198,0.4091 3.04271,0.683 l 2.91042,0.4981 0.0743,3.2411 0.0743,3.2412 H 254.01038 L 0.00228949,297.01904 Z M 214.49428,287.03924 c -0.462,-0.069 -0.8523,-0.354 -1.0346,-0.7541 -0.161,-0.3534 -0.3841,-0.6425 -0.4957,-0.6425 -0.1116,0 -0.5179,-0.666 -0.903,-1.4799 -0.385,-0.8139 -0.7449,-1.435 -0.7998,-1.3802 -0.089,0.089 0.5362,3.2662 0.8095,4.1168 0.071,0.2206 0.6156,0.3176 1.6359,0.2911 0.8413,-0.022 1.1958,-0.09 0.7877,-0.1512 z m 71.9147,-3.2816 c 0.582,-0.6 1.594,-1.4529 2.249,-1.8955 0.6549,-0.4426 1.7202,-1.3327 2.3674,-1.9781 0.6471,-0.6453 1.4446,-1.2752 1.7721,-1.3998 0.771,-0.2931 1.313,-1.1754 1.535,-2.4989 l 0.1775,-1.0584 -3.389,3.4451 c -3.773,3.8355 -6.1952,6.4769 -5.939,6.4766 0.093,-10e-5 0.645,-0.4911 1.227,-1.091 z m 32.71,-8.3676 c 0.329,-0.4197 0.3197,-0.429 -0.1,-0.1 -0.2547,0.1997 -0.4631,0.408 -0.4631,0.463 0,0.2177 0.2173,0.078 0.563,-0.3631 z m 3.0666,-2.6379 c -0.3576,-0.7848 -0.9336,-0.7697 -1.2386,0.033 -0.1329,0.3496 -0.3674,0.7135 -0.5211,0.8085 -0.1538,0.095 -0.4025,0.4025 -0.5528,0.6833 -0.2416,0.4514 -0.1073,0.4275 1.157,-0.2052 1.3179,-0.6596 1.4087,-0.7632 1.1555,-1.3191 z m -162.4032,-7.2924 c -7.1523,-5.4824 -12.2567,-9.3122 -12.3829,-9.2909 -0.089,0.015 -7.7594,1.6819 -17.0462,3.7042 l -16.8849,3.6769 3.1266,0.1642 c 1.7197,0.09 8.6035,0.3795 15.2975,0.6427 6.6939,0.2632 12.2304,0.5608 12.3031,0.6612 0.073,0.1005 2.9303,0.2967 6.35,0.4361 9.4047,0.3833 9.7298,0.3835 9.2368,0.01 z m 302.44231,-28.6019 c 0,-0.056 -0.2977,-0.1584 -0.6615,-0.2279 -0.3638,-0.07 -0.6614,-0.024 -0.6614,0.1014 0,0.1254 0.2976,0.2279 0.6614,0.2279 0.3638,0 0.6615,-0.046 0.6615,-0.1014 z m -2.6458,-0.7692 c -0.5094,-0.1581 -0.9856,-0.3621 -1.0584,-0.4533 -0.1487,-0.1864 -7.8979,-2.3922 -8.3784,-2.3849 -0.1697,0 -0.3483,-0.099 -0.3968,-0.2255 -0.048,-0.1266 -1.8035,-0.7152 -3.8999,-1.3081 -2.0965,-0.5929 -3.8824,-1.1866 -3.9688,-1.3194 -0.086,-0.1327 -1.8834,-0.7518 -3.9935,-1.3757 -2.11001,-0.6238 -3.89601,-1.2179 -3.96871,-1.32 -0.073,-0.1021 -1.8587,-0.7052 -3.9688,-1.3401 -2.11,-0.635 -3.896,-1.2326 -3.9687,-1.328 -0.1499,-0.1967 -6.8695,-2.3619 -7.3298,-2.3619 -0.1645,0 -0.3676,-0.1488 -0.4514,-0.3307 -0.084,-0.1819 -0.082,0.979 0.01,2.5797 0.087,1.6007 0.2643,2.9501 0.3949,2.9986 0.1305,0.049 0.2373,0.7127 0.2373,1.4759 v 1.3877 l 1.2568,0.3079 c 0.6912,0.1694 2.0902,0.5423 3.1088,0.8289 1.0187,0.2865 2.7451,0.6026 3.8365,0.7023 1.0914,0.1 2.0439,0.2621 2.1167,0.3607 0.073,0.099 4.8352,0.6852 10.58331,1.3035 5.7481,0.6182 12.2965,1.3374 14.552,1.598 2.2556,0.2606 4.5773,0.4779 5.1594,0.4828 l 1.0583,0.01 -0.926,-0.2874 z m -58.43321,-14.8721 c 0.022,-2.2555 0.052,-4.2403 0.066,-4.4106 0.025,-0.2927 -3.4707,-1.5267 -4.3553,-1.5375 -0.2779,0 -0.5289,0.4471 -0.767,1.3762 -0.1947,0.7597 -0.4927,1.5199 -0.6622,1.6893 -0.2673,0.2674 -1.2727,0.7284 -4.4417,2.0368 -0.8528,0.3521 -0.9237,0.6156 -0.2251,0.8373 0.2763,0.088 0.7823,0.433 1.1244,0.7672 0.3421,0.3343 0.9793,0.8116 1.4158,1.0606 0.7155,0.4083 6.6662,2.2077 7.4745,2.2603 0.2497,0.016 0.3405,-0.9833 0.3704,-4.0796 z m -10.4056,-5.2888 c 1.7919,-0.5109 3.4285,-0.9289 3.6369,-0.9289 0.2085,0 0.379,-0.119 0.379,-0.2646 0,-0.1455 -0.1686,-0.2646 -0.3748,-0.2646 -0.2061,0 -0.4145,-0.1063 -0.463,-0.2362 -0.097,-0.259 -6.2109,-2.145 -6.9538,-2.145 -0.2536,0 -0.7771,0.2214 -1.1633,0.492 -1.2173,0.8527 -2.6684,1.4266 -3.2335,1.2788 -0.4789,-0.1252 -0.4612,-0.065 0.1469,0.4986 0.3804,0.3526 0.7398,0.641 0.7986,0.641 0.059,0 0.7885,0.4775 1.6216,1.061 0.8331,0.5836 1.702,1.0016 1.931,0.9289 0.229,-0.073 1.8825,-0.5501 3.6744,-1.061 z m -9.4886,-3.7014 c 0.4162,-0.2153 0.7973,-0.4875 0.8468,-0.6049 0.049,-0.1175 0.4978,-0.5001 0.9962,-0.8503 l 0.9063,-0.6368 -1.0385,-0.4585 c -0.5712,-0.2522 -1.237,-0.4674 -1.4795,-0.4782 -0.2426,-0.011 -0.4811,-0.1397 -0.53,-0.2865 -0.084,-0.2513 -3.291,-1.58 -5.1806,-2.1462 -0.473,-0.1417 -0.8599,-0.3602 -0.8599,-0.4855 0,-0.1253 -0.6846,-0.4683 -1.5214,-0.7621 -3.0202,-1.0607 -4.6988,-1.7121 -4.8286,-1.8738 -0.1764,-0.2198 -1.6347,-0.8565 -1.7341,-0.7571 -0.1607,0.1607 1.6751,1.5897 3.8507,2.9974 1.237,0.8003 2.6263,1.7841 3.0874,2.1862 0.4612,0.402 1.1756,0.9027 1.5875,1.1126 0.9802,0.4992 2.4961,1.5969 2.9972,2.1703 0.3269,0.374 1.7701,1.257 2.0645,1.263 0.044,8e-4 0.4198,-0.1744 0.836,-0.3896 z m -380.96829051,2.8387 c -0.012,-1.3461 0.078,-2.4474 0.1999,-2.4474 0.2017,0 0.1258,4.0134 -0.087,4.6302 -0.05,0.1455 -0.1009,-0.8368 -0.1124,-2.1828 z M 505.21945,202.96884 c -1.98643,-0.5157 -5.23245,-1.7636 -5.63546,-2.1666 -0.1955,-0.1955 -0.4862,-0.3555 -0.64598,-0.3555 -0.50504,0 -5.62073,-1.9385 -5.71299,-2.1648 -0.0485,-0.1191 -0.18891,-0.2164 -0.31202,-0.2164 -0.30295,0 -3.36365,-2.0441 -3.47774,-2.3227 -0.0499,-0.1219 -0.67469,-0.62 -1.38832,-1.1069 -0.71364,-0.4869 -1.49143,-1.0753 -1.72847,-1.3075 -0.60047,-0.5884 -3.39969,-2.6713 -3.58995,-2.6713 -0.086,0 -0.43106,-0.3193 -0.76684,-0.7097 l -0.6105,-0.7098 -1.02388,0.4859 c -0.56314,0.2672 -1.18417,0.6461 -1.38007,0.842 -0.47601,0.476 -1.11215,0.4528 -1.11215,-0.041 0,-0.2183 -0.1,-0.3969 -0.22212,-0.3969 -0.23069,0 -0.83621,-1.1586 -0.83621,-1.6 0,-0.1386 0.68461,-0.2557 1.52135,-0.2601 1.28151,-0.01 1.43793,-0.056 0.99219,-0.3136 -0.29104,-0.1681 -0.68649,-0.4621 -0.87879,-0.6534 -0.1923,-0.1914 -0.50485,-0.3479 -0.69458,-0.3479 -0.43432,0 -4.4622,-1.8255 -4.64278,-2.1041 -0.13891,-0.2144 -3.39045,-1.6705 -4.43175,-1.9848 -0.3266,-0.099 -0.7433,-0.323 -0.9261,-0.4988 -0.1827,-0.1758 -1.401,-0.8052 -2.7072,-1.3987 l -2.375,-1.079 -0.3964,-1.5606 c -0.218,-0.8582 -0.4893,-1.6274 -0.6029,-1.7092 -0.1137,-0.082 0.2025,-0.3439 0.7026,-0.5824 l 0.9093,-0.4336 0.1702,0.8469 c 0.3242,1.6133 0.4334,1.7651 1.659,2.3073 0.6772,0.2995 1.295,0.6347 1.3729,0.7447 0.078,0.11 1.3321,0.7297 2.7873,1.3772 1.4552,0.6474 2.7054,1.2374 2.7782,1.311 0.073,0.074 0.59606,0.3486 1.16296,0.611 l 1.03071,0.4771 -0.16171,-1.3655 c -0.15555,-1.3132 -0.13931,-1.3595 0.42449,-1.2083 0.32243,0.086 0.7751,0.1588 1.00595,0.1608 0.30731,0 0.54962,0.5722 0.90458,2.1264 0.43183,1.8906 0.55957,2.14 1.16777,2.2799 3.38786,0.779 7.20571,1.9072 7.42979,2.1955 0.0728,0.094 1.91823,0.7512 4.10104,1.4612 2.18281,0.71 4.02828,1.3669 4.10104,1.4597 0.0728,0.093 0.89342,0.4148 1.8237,0.7155 1.661,0.5369 1.71614,0.538 3.06927,0.062 l 1.3779,-0.4843 3.26704,1.0499 c 1.7969,0.5775 3.33275,1.1526 3.41302,1.2781 0.0803,0.1255 0.5329,0.3122 1.00584,0.4148 l 0.8599,0.1865 v 4.8738 4.8737 l -0.7276,-0.022 c -0.40019,-0.012 -1.32292,-0.1771 -2.05053,-0.3659 z"
       id="path383"
       inkscape:connector-curvature="0"
       sodipodi:nodetypes="cccsccccsccccccccccsccccccccccccccccccccccscccccccccscccccccscccccccccccssccccccscccccccccsccccscscccscscccccsccscsccsscsscscccccccscccscccsccccccccccccccccccsccscccccsccccsscccscsccccccccccccccscccccccccscscccscccsccccccccsccssccsccssccccccscscccccccscsscsscsccsccscscscccccscccccscsccsscsscscccccccscsccccscsccccccscccsccscccccccscsscssccccccscsccccsssccscscssccccccccsccccccccscscsccccccccccccscccccccsccccccccsccccccccccccccsccccscsssccccccccccscccsccccccccccccccccsccccccsssscscccsccsccccccccsccscccccccscccccscscccsccccssscccsccccccccccccccccccccccsccccccccccccc" />
  </g>
</svg>
