<?xml version="1.0" encoding="UTF-8" standalone="no"?>
<!-- Created with Inkscape (http://www.inkscape.org/) -->

<svg
   xmlns:dc="http://purl.org/dc/elements/1.1/"
   xmlns:cc="http://creativecommons.org/ns#"
   xmlns:rdf="http://www.w3.org/1999/02/22-rdf-syntax-ns#"
   xmlns:svg="http://www.w3.org/2000/svg"
   xmlns="http://www.w3.org/2000/svg"
   xmlns:sodipodi="http://sodipodi.sourceforge.net/DTD/sodipodi-0.dtd"
   xmlns:inkscape="http://www.inkscape.org/namespaces/inkscape"
   width="1920"
   height="1080"
   viewBox="0 0 507.99999 285.75001"
   version="1.1"
   id="svg8"
   inkscape:version="0.92.2 (5c3e80d, 2017-08-06)"
   sodipodi:docname="04_top.svg">
  <defs
     id="defs2">
    <pattern
       y="0"
       x="0"
       height="6"
       width="6"
       patternUnits="userSpaceOnUse"
       id="EMFhbasepattern" />
  </defs>
  <sodipodi:namedview
     id="base"
     pagecolor="#ffffff"
     bordercolor="#666666"
     borderopacity="1.0"
     inkscape:pageopacity="0.0"
     inkscape:pageshadow="2"
     inkscape:zoom="0.3535534"
     inkscape:cx="1853.0804"
     inkscape:cy="9.4704323"
     inkscape:document-units="mm"
     inkscape:current-layer="layer1"
     showgrid="false"
     inkscape:window-width="1920"
     inkscape:window-height="1017"
     inkscape:window-x="-8"
     inkscape:window-y="-8"
     inkscape:window-maximized="1"
     units="px"
     showguides="false" />
  <metadata
     id="metadata5">
    <rdf:RDF>
      <cc:Work
         rdf:about="">
        <dc:format>image/svg+xml</dc:format>
        <dc:type
           rdf:resource="http://purl.org/dc/dcmitype/StillImage" />
        <dc:title></dc:title>
      </cc:Work>
    </rdf:RDF>
  </metadata>
  <g
     inkscape:label="Layer 1"
     inkscape:groupmode="layer"
     id="layer1"
     transform="translate(0,-11.25)">
    <path
       style="fill:#846f00;fill-opacity:1;stroke-width:0.26458332"
       d="M -0.00341446,114.28671 V 11.231508 l 118.46720446,0.032 118.4672,0.032 -18.2003,0.8847 -18.2002,0.8847 -15.2696,1.9969 c -8.3982,1.0982 -15.4042,2.025 -15.5688,2.0595 -0.2957,0.062 0.995,8.2543 3.0944,19.6419 l 0.878,4.762501 1.2771,1.1957 1.277,1.1957 -0.4314,1.266 c -0.2372,0.6963 -0.3716,1.3258 -0.2985,1.3989 0.073,0.073 11.8795,-0.8403 26.2366,-2.0297 14.3571,-1.1894 26.1594,-2.1069 26.2273,-2.039 0.068,0.068 0.476,3.6835 0.9069,8.0346 0.4309,4.3511 0.8339,8.2721 0.8957,8.7132 0.1051,0.7506 0,0.8697 -1.7115,1.8521 -1.003,0.5775 -1.8248,1.1292 -1.826,1.2261 0,0.097 0.7064,0.6921 1.5727,1.3229 1.3759,1.0018 1.5929,1.2806 1.7165,2.2052 0.2026,1.5152 1.2293,15.281603 1.1447,15.349203 -0.039,0.031 -32.9914,1.1447 -73.2279,2.4748 -40.2365,1.3302 -74.347903,2.4863 -75.803103,2.5692 l -2.6459,0.1507 -0.998,-1.9376 c -0.5489,-1.0657 -0.9953,-2.0102 -0.9922,-2.099 0,-0.089 1.5148,-1.1603 3.3591,-2.3812 l 3.3533,-2.2199 -3.2823,-0.1323 -3.2822,-0.1323 -1.357,-6.905503 c -0.7464,-3.798 -1.4383,-7.3384 -1.5376,-7.8676 l -0.1805,-0.9622 2.2603,-1.121 c 1.2431,-0.6165 2.2602,-1.1941 2.2602,-1.2834 0,-0.089 -1.116,-0.5472 -2.48,-1.0173 l -2.48,-0.8549 -0.1658,-1.2096 c -0.091,-0.6653 -0.1658,-1.8425 -0.1658,-2.6159 0,-1.3825 0.014,-1.4086 0.8599,-1.5414 0.4729,-0.074 7.825,-0.6151 16.338,-1.2018 8.513,-0.5867 16.143003,-1.136 16.955703,-1.2207 l 1.4776,-0.154 -0.3551,-2.5588 c -0.3795,-2.7341 -0.3883,-2.701 0.9119,-3.4508 0.2706,-0.1561 0.281,-1.3911 0.053,-6.265801 -0.1562,-3.3392 -0.2032,-7.4703 -0.1046,-9.1802 0.099,-1.7099 0.1343,-3.1078 0.079,-3.1066 -0.055,0 -3.553,0.4631 -7.7731,1.0263 -7.423903,0.9907 -7.776003,1.0644 -10.847903,2.2722 -6.6137,2.6001 -3.6033,1.9359 -29.5011,6.5093 -4.971102,0.8778 -6.961802,1.3775 -12.068502,3.0289 -3.3634,1.087701 -6.2067,1.977701 -6.3184,1.977701 -0.1116,0 -0.783,0.4167 -1.492,0.926 -0.7089,0.5094 -1.3418,0.9261 -1.4064,0.9261 -0.065,0 -1.7015,1.0626 -3.6374,2.3614 -2.4797,1.6635 -4.4493,3.2697 -6.6648,5.4352 -1.7296,1.6907 -4.36,4.2008 -5.8452,5.5782 -2.0505,1.9013 -2.7873,2.7669 -3.0607,3.5955 -0.1981,0.6002 -0.491,1.2244 -0.6509,1.3871 -0.1599,0.1626 -0.9311,1.9031 -1.7138,3.8676 -0.7827,1.9645 -1.5165,3.6358 -1.6305,3.714 -0.114,0.078 -0.5101,0.9468 -0.8803,1.9302 -0.8031,2.133503 -2.1486,4.852903 -2.4642,4.980303 -0.1241,0.05 -0.8633,1.2817 -1.6426,2.7369 -0.7793,1.4552 -1.5004,2.7054 -1.6024,2.7782 -0.102,0.073 -0.8697994,1.5015 -1.7061994,3.175 -0.8365,1.6735 -1.6048,3.1022 -1.7074,3.175 -0.1026,0.073 -0.8073,1.438 -1.5659,3.034 -0.7586,1.5959 -1.4842,2.9665 -1.6123,3.0457 -0.3482,0.2152 -0.474,27.757798 -0.1278,27.993998 0.1531,0.1044 0.8445,3.5263 1.5365,7.6043 l 1.2581,7.4145 -0.5431,11.2386 c -0.5057,10.4632 -1.6639,23.18785 -2.1428,23.54185 -0.098,0.073 -0.8786,10.6991 -1.7337,23.614 -0.855,12.915 -1.64600006,23.4818 -1.75760006,23.4818 -0.1117,0 -0.203,-46.3748 -0.203,-103.05525 z M 148.03099,48.449609 c 4.1866,-0.8058 5.4342,-0.9337 10.3174,-1.0582 l 5.5548,-0.1416 0.625,-0.7451 c 1.3725,-1.6361 2.6119,-2.9255 3.7899,-3.9425 l 1.2371,-1.0681 -2.3995,-11.757801 c -1.3198,-6.4669 -2.4356,-11.8011 -2.4796,-11.8538 -0.044,-0.053 -2.9142,0.2728 -6.3782,0.7234 -21.0831,2.7426 -44.9163,5.8879 -44.9617,5.9336 -0.029,0.029 0.07,3.6849 0.2203,8.1232 0.3249,9.590501 0.2853,9.460201 3.54,11.656401 1.7021,1.1486 1.9589,1.4292 2.1046,2.3004 0.091,0.5457 0.1957,1.1113 0.2321,1.2568 0.036,0.1455 1.6042,0.3966 3.484,0.558 2.9995,0.2575 4.7137,0.2045 14.0013,-0.4324 5.8208,-0.3992 10.6161,-0.6969 10.6562,-0.6615 0.04,0.035 -1.1803,0.5108 -2.712,1.0565 -1.5317,0.5457 -2.7849,1.0517 -2.7849,1.1244 0,0.073 0.2679,0.068 0.5954,-0.012 0.3274,-0.079 2.7384,-0.5561 5.3578,-1.0602 z m 324.73356,28.003303 c -0.14555,-0.1455 -14.88456,-3.1467 -16.97787,-3.457 -0.41163,-0.061 -0.84732,-0.1721 -0.96819,-0.2468 -0.18041,-0.1115 -3.9915,-0.9177 -17.5979,-3.722503 -0.2911,-0.06 -1.3626,-0.2898 -2.3813,-0.5106 -1.0186,-0.2209 -3.2808,-0.7002 -5.0271,-1.0653 -1.7462,-0.365 -3.8298,-0.8275 -4.6302,-1.0278 l -1.4552,-0.3641 1.9623,-0.029 c 2.4045,-0.036 2.3527,-0.2157 -0.1176,-0.4085 -1.8568,-0.1449 -4.191,-0.3726 -5.4166,-0.5283 -0.3638,-0.046 -1.6735,-0.3492 -2.9104,-0.6732 -1.2369,-0.3241 -2.4871,-0.6278 -2.7781,-0.6749 -2.4637,-0.3989 -4.3286,-0.7897 -7.4637,-1.5639 -4.3562,-1.0757 -8.2793,-1.9249 -9.7342,-2.1071 -0.5821,-0.073 -2.249,-0.3688 -3.7042,-0.6578 -1.4552,-0.2889 -2.9435,-0.5805 -3.3073,-0.648 -0.3638,-0.067 -1.3758,-0.2542 -2.2489,-0.4149 -0.8732,-0.1608 -1.8852,-0.3508 -2.249,-0.4224 -0.7506,-0.1478 -3.5029,-0.6561 -4.4979,-0.8308 -0.3638,-0.064 -0.8732,-0.18 -1.132,-0.2582 -0.2588,-0.078 -0.7946,-0.1865 -1.1907,-0.2408 -0.396,-0.054 -1.3749,-0.2313 -2.1752,-0.3934 -0.8004,-0.1621 -1.7529,-0.3407 -2.1167,-0.3969 -0.3638,-0.056 -1.3163,-0.2354 -2.1167,-0.3984 -0.8003,-0.1629 -1.6933,-0.3289 -1.9843,-0.3689 -1.3656,-0.1876 -1.708,-0.4361 -1.6029,-1.1632 0.057,-0.3915 0.1794,-1.3073 0.273,-2.0349 0.094,-0.7276 0.4013,-2.7794 0.6839,-4.5596 0.2825,-1.7803 0.5137,-3.2899 0.5137,-3.3547 0,-0.065 0.6548,-0.2539 1.4552,-0.42 0.8003,-0.1662 1.4552,-0.33 1.4552,-0.364 0,-0.034 -0.4234,-0.5241 -0.941,-1.0891 -0.9901,-1.0809 -0.9862,-1.0508 -0.4841,-3.7063 0.1149,-0.607601 0.6389,-3.446501 0.7815,-4.233301 0.053,-0.2911 0.175,-1.0948 0.2718,-1.786 0.097,-0.6912 0.3012,-1.2568 0.4543,-1.2568 0.1531,0 1.1794,0.2256 2.2807,0.5013 3.0422,0.7616 6.6864,1.6218 7.4264,1.753 0.3638,0.064 1.6735,0.3667 2.9104,0.6717 1.2369,0.3049 3.4991,0.8503 5.0271,1.2121 1.5279,0.3617 3.4032,0.8129 4.1672,1.0026 1.1046,0.2742 1.389,0.2771 1.389,0.014 0,-0.4101 1.063,-1.1234 2.3257,-1.5606 l 0.9526,-0.3298 0.7021,-3.418 c 0.5709,-2.7797 0.7339,-4.4677 0.873,-9.0403 l 0.1711,-5.6224 -0.594,-0.01 c -0.3267,0 -11.5478,0.6052 -24.9357,1.3517 l -24.3417,1.3573 -7.4177,3.6754 c -4.0798,2.0214 -7.5262,3.6753 -7.6587,3.6753 -0.5801,0 -6.2084,-2.2717 -6.1423,-2.4792 0.04,-0.1266 0.5759,-0.5126 1.1903,-0.8576 0.965,-0.5421 2.1566,-1.309 4.1833,-2.6925 0.7992,-0.5455 -2.675,-0.318 -46.1997,3.0254 l -40.3489,3.0995 -3.986,-1.9672 -3.986,-1.9671 13.9079,-1.5297 c 7.6493,-0.8413 18.7894,-2.0023 24.7558,-2.58 5.9663,-0.5777 13.1696,-1.2794 16.0072,-1.5593 2.8377,-0.2799 12.7199,-1.1424 21.9605,-1.9167 15.5431,-1.3024 16.593,-1.4205 14.0229,-1.5763 -6.4165,-0.3889 -20.2087,-0.5223 -27.649,-0.2674 -7.4389,0.2549 -8.5085,0.2302 -17.0275,-0.3938 l -9.0899,-0.6658 -7.0497,1.0908 c -4.5259,0.7003 -7.8825,1.3652 -9.3764,1.8574 l -2.3269,0.7666 0.078,-1.7358 0.078,-1.7357 1.5875,-0.4945 c 1.5407,-0.4799 5.2009,-0.4946 124.1558,-0.4984 h 122.56818 l -0.0209,30.228601 c -0.0114,16.6258 -0.0889,30.050103 -0.17198,29.831803 -0.0831,-0.2183 -0.23744,-0.456403 -0.34298,-0.529203 -0.10554,-0.073 -0.6305,-1.561 -1.16655,-3.3072 -0.53607,-1.7463 -1.0963,-3.5631 -1.24497,-4.0374 -0.14864,-0.4742 -0.43712,-1.0291 -0.64103,-1.233 -0.20392,-0.2039 -1.05087,-1.6614 -1.88211,-3.2388 -0.83125,-1.5773 -1.61201,-2.9092 -1.73498,-2.9596 -0.12301,-0.05 -0.8096,-1.2593 -1.52578,-2.6865 -0.71617,-1.4271 -1.40276,-2.636 -1.52577,-2.6864 -0.12298,-0.05 -0.91361,-1.4014 -1.75691,-3.0021 -0.84331,-1.6007 -1.62142,-2.9699 -1.72913,-3.0427 -0.10772,-0.073 -0.83659,-1.3366 -1.61976,-2.8085 -0.99263,-1.8657 -1.62644,-2.7595 -2.09253,-2.9509 -0.36775,-0.1511 -2.45454,-1.070101 -4.63735,-2.042301 -2.18282,-0.9722 -4.6236,-2.036 -5.42396,-2.3639 -0.80037,-0.3279 -2.52677,-1.0775 -3.83646,-1.6658 -1.30969,-0.5883 -3.81,-1.694 -5.55625,-2.457 -6.97466,-3.0477 -9.11926,-3.9917 -11.98377,-5.275 -1.64341,-0.7363 -3.05174,-1.3387 -3.12968,-1.3387 -0.0779,0 -1.17412,-0.47 -2.43599,-1.0445 l -2.29428,-1.0445 -13.05626,-1.6199 c -7.1809,-0.891 -13.1186,-1.5576 -13.1948,-1.4814 -0.076,0.076 -0.06,0.4523 0.036,0.8357 0.1685,0.6712 0.1988,0.6815 0.8163,0.2769 0.3527,-0.2311 0.6878,-0.4202 0.7447,-0.4202 0.057,0 0.1653,4.0779 0.2409,9.062 l 0.1375,9.062 0.8268,2.133101 c 0.5781,1.4917 1.0653,2.3094 1.6201,2.7196 0.4363,0.3226 0.9611,0.9882 1.1662,1.4791 0.3912,0.9362 1.0311,1.2195 4.5226,2.0021 0.7276,0.163 2.543,0.5884 4.0341,0.9451 1.4912,0.3567 3.932,0.9372 5.424,1.2899 1.49197,0.3527 3.72474,0.8901 4.96166,1.1942 1.23693,0.3041 2.60615,0.6145 3.04271,0.6899 0.43656,0.075 1.68672,0.3597 2.77813,0.6319 1.0914,0.2722 3.23453,0.7929 4.7625,1.157 1.52797,0.3641 3.84968,0.9242 5.15937,1.2447 1.30969,0.3204 2.69679,0.6245 3.08248,0.6757 0.38565,0.051 1.57628,0.34 2.64583,0.6418 1.06953,0.3017 2.36133,0.6054 2.87065,0.6747 1.5916,0.2167 1.74191,0.341 2.09947,1.7362 0.35822,1.3976 0.19912,1.8041 -0.71041,1.8153 -0.54858,0.01 -0.70897,0.046 -1.15419,0.2845 -0.23461,0.1256 -0.82002,0.2976 -1.3009,0.3823 -1.42211,0.2506 -1.77168,0.5554 -0.88543,0.7722 0.41846,0.1024 1.37925,0.3637 2.13511,0.5807 l 1.37424,0.3945 -0.12914,2.9621 c -0.33639,7.715103 -0.21296,6.8927 -1.06471,7.095 -0.41849,0.1 -1.22333,0.260403 -1.78853,0.357703 l -1.02759,0.1769 1.58411,1.0351 1.58414,1.035 -0.21513,1.361 c -0.11832,0.7486 -0.28255,1.4284 -0.36491,1.5108 -0.1982,0.1982 -1.08953,0.3292 -1.2369,0.1818 z m -49.51176,-34.576003 1.3883,-0.5754 -0.1531,-4.517801 c -0.2165,-6.3889 -1.2387,-15.8233 -1.8941,-17.4824 l -0.5226,-1.3229 -8.1331,-1.0205 c -5.9823,-0.7506 -8.2894,-0.9492 -8.7246,-0.7509 -0.5694,0.2594 -0.5987,0.4472 -0.7779,4.9892 -0.111,2.8134 -0.4472,6.3541 -0.8324,8.7661 -0.3555,2.2256 -0.6463,4.2254 -0.6463,4.4441 0,0.2187 0.3477,0.5971 0.7725,0.841 0.5873,0.337 0.8112,0.6989 0.9338,1.509 0.089,0.5862 0.255,1.2161 0.3697,1.3999 0.2031,0.325601 3.004,1.206101 4.8228,1.516201 0.4985,0.085 1.7994,0.3776 2.8908,0.6503 3.9427,0.9852 7.554,1.8435 8.2021,1.9494 0.3638,0.059 0.7187,0.1243 0.7886,0.1441 0.07,0.02 0.7519,-0.2229 1.5155,-0.5394 z"
       id="path359"
       inkscape:connector-curvature="0" />
  </g>
</svg>
