<?xml version="1.0" encoding="UTF-8" standalone="no"?>
<!-- Created with Inkscape (http://www.inkscape.org/) -->

<svg
   xmlns:dc="http://purl.org/dc/elements/1.1/"
   xmlns:cc="http://creativecommons.org/ns#"
   xmlns:rdf="http://www.w3.org/1999/02/22-rdf-syntax-ns#"
   xmlns:svg="http://www.w3.org/2000/svg"
   xmlns="http://www.w3.org/2000/svg"
   xmlns:sodipodi="http://sodipodi.sourceforge.net/DTD/sodipodi-0.dtd"
   xmlns:inkscape="http://www.inkscape.org/namespaces/inkscape"
   width="1920"
   height="1080"
   viewBox="0 0 507.99999 285.75001"
   version="1.1"
   id="svg8"
   inkscape:version="0.92.2 (5c3e80d, 2017-08-06)"
   sodipodi:docname="05_bottom.svg">
  <defs
     id="defs2">
    <pattern
       y="0"
       x="0"
       height="6"
       width="6"
       patternUnits="userSpaceOnUse"
       id="EMFhbasepattern" />
  </defs>
  <sodipodi:namedview
     id="base"
     pagecolor="#ffffff"
     bordercolor="#666666"
     borderopacity="1.0"
     inkscape:pageopacity="0.0"
     inkscape:pageshadow="2"
     inkscape:zoom="0.35355339"
     inkscape:cx="261.5469"
     inkscape:cy="629.26785"
     inkscape:document-units="mm"
     inkscape:current-layer="layer1"
     showgrid="false"
     inkscape:window-width="1920"
     inkscape:window-height="1017"
     inkscape:window-x="-8"
     inkscape:window-y="-8"
     inkscape:window-maximized="1"
     units="px"
     showguides="true" />
  <metadata
     id="metadata5">
    <rdf:RDF>
      <cc:Work
         rdf:about="">
        <dc:format>image/svg+xml</dc:format>
        <dc:type
           rdf:resource="http://purl.org/dc/dcmitype/StillImage" />
        <dc:title></dc:title>
      </cc:Work>
    </rdf:RDF>
  </metadata>
  <g
     inkscape:label="Layer 1"
     inkscape:groupmode="layer"
     id="layer1"
     transform="translate(0,-11.25)">
    <g
       id="g276">
      <path
         inkscape:connector-curvature="0"
         id="path409"
         d="m 0.04459033,268.87649 c 0.022,-19.7649 0.112,-27.779 0.3021,-26.9885 0.1488,0.6185 0.3618,1.1245 0.4735,1.1245 0.1117,0 0.34369997,0.8334 0.51549997,1.8521 0.1718,1.0186 0.4078,1.8521 0.5244,1.8521 0.1166,0 0.2795,0.2679 0.362,0.5953 0.1504,0.5967 0.6954,1.4159 1.561,2.3465 0.2547,0.2738 0.463,0.6109 0.463,0.7492 0,0.1383 0.1491,0.3466 0.3312,0.463 0.1821,0.1164 0.5096,0.5688 0.7276,1.0053 0.218,0.4366 0.6048,1.0246 0.8595,1.3067 0.2546,0.2821 0.463,0.6691 0.463,0.8599 0,0.1908 0.1228,0.347 0.2729,0.347 0.1501,0 0.3493,0.1992 0.4428,0.4428 0.093,0.2435 0.3576,0.6517 0.5869999,0.9071 0.7274,0.8097 0.998,1.18 1.346,1.8417 0.1864,0.3547 0.5002,0.7401 0.6972,0.8564 0.1969998,0.1164 0.3581998,0.3414 0.3581998,0.5 0,0.1587 0.1907,0.4279 0.4238,0.5983 0.2444,0.1787 0.4845,0.8629 0.5674,1.6166 0.079,0.7188 0.2285,1.3664 0.3323,1.4392 0.1037,0.073 0.3112,1.7274 0.4611,3.677 0.222,2.8863 0.3568,3.5918 0.7258,3.7983 0.2493,0.1395 0.6463,0.4791 0.8823,0.7548 0.236,0.2756 0.5207,0.5011 0.6326,0.5011 0.1119,0 0.5448,0.3572 0.962,0.7938 0.4172,0.4365 0.873,0.7937 1.013,0.7937 0.2957,0 1.4081,1.2223 1.4081,1.5473 0,0.1211 -0.6549,0.3774 -1.4552,0.5694 -0.8004,0.192 -1.4552,0.4373 -1.4552,0.545 0,0.1078 -0.5953,0.3388 -1.323,0.5133 -0.7276,0.1746 -1.3229,0.4141 -1.3229,0.5323 0,0.1182 -0.4762,0.2954 -1.0583,0.3938 -0.5821,0.098 -1.0583,0.282 -1.0583,0.4081 0,0.1261 -0.4084998,0.306 -0.9077998,0.3996 -0.6306,0.1184 -0.8643,0.2836 -0.7654,0.5412 0.078,0.204 0.2941,0.3708 0.4797,0.3708 0.1856,0 0.8137,0.4763 1.3957998,1.0584 0.5821,0.5821 1.1406,1.0583 1.2412,1.0583 0.1006,0 0.6206,0.4166 1.1556,0.9258 2.1804,2.0754 3.6126,3.3075 3.8442,3.3075 0.1349,0 0.3796,0.1839 0.5439,0.4085 0.2476,0.3387 1.3264,0.4362 6.313,0.5709 3.3079,0.089 6.0143,0.2489 6.0143,0.3548 0,0.1058 3.7505,0.2803 8.3344,0.3877 4.5839,0.1075 8.3344,0.2809 8.3344,0.3854 0,0.1046 5.5959,0.3469 12.4354,0.5386 6.8395,0.1916 12.4354,0.4289 12.4354,0.5273 0,0.098 5.6555,0.3361 12.567704,0.5282 6.9123,0.1922 12.5677,0.435 12.5677,0.5395 0,0.1045 3.691,0.2778 8.202096,0.3851 4.5112,0.1073 8.2021,0.2826 8.2021,0.3894 0,0.1069 5.6555,0.3515 12.5677,0.5437 6.9123,0.1921 12.5677,0.4487 12.5677,0.5702 0,0.3808 6.0792,0.2717 6.1257,-0.11 0.022,-0.1819 0.068,-0.4498 0.1018,-0.5953 0.034,-0.1455 0.075,-0.5037 0.092,-0.7959 0.047,-0.8236 2.1236,-3.8343 2.6442,-3.8343 0.2505,0 0.5686,-0.1124 0.7069,-0.2498 0.3445,-0.3423 3.5124,-0.8237 5.0651,-0.7697 0.8527,0.03 1.7733,0.3139 2.7943,0.8626 3.9338,2.1142 4.8429,2.8512 5.7612,4.6703 0.4364,0.8646 0.9704,1.572 1.1866,1.572 0.2162,0 0.3931,0.1044 0.3931,0.232 0,0.1277 3.7504,0.32 8.3343,0.4274 4.5839,0.1074 8.3344,0.281 8.3344,0.3856 0,0.1047 5.6555,0.3476 12.5677,0.5397 6.9123,0.1922 12.5677,0.4295 12.5677,0.5274 0,0.098 5.5364,0.3355 12.3032,0.5281 6.7667,0.1926 12.3031,0.4512 12.3031,0.5747 0,0.1236 1.2501,0.2247 2.7781,0.2247 1.528,0 2.7781,-0.1 2.7781,-0.2212 0,-0.1216 17.9189,-0.3797 39.8198,-0.5734 21.9009,-0.1938 39.8198,-0.4515 39.8198,-0.5726 0,-0.1212 4.6732,-0.2209 10.3849,-0.2216 13.3311,0 36.5182,-0.4846 36.7019,-0.7644 0.078,-0.1185 2.5804,-0.2996 5.5615,-0.4024 l 5.4202,-0.187 1.4506,-1.4391 1.4507,-1.4391 -0.7854,0.01 c -2.7774,0.02 -19.5954,-0.66 -19.7031,-0.7967 -0.1,-0.1266 -42.3086,-1.7299 -50.1386,-1.9045 -1.6172,-0.036 -16.8808,1.6777 -17.0656,1.9161 -0.073,0.094 -0.7871,0.24 -1.5875,0.3247 -0.8004,0.085 -4.1151,0.4648 -7.3661,0.8447 l -5.9109,0.6906 -1.1006,-0.6459 c -1.1566,-0.6788 -2.7334,-2.0229 -2.3709,-2.0212 0.6881,0 10.554,-1.7085 10.6631,-1.8502 0.073,-0.094 3.347,-0.6893 7.276,-1.3219 3.9291,-0.6327 7.2033,-1.2259 7.2761,-1.3184 0.073,-0.092 2.1563,-0.493 4.6302,-0.89 4.2865,-0.6881 5.2875,-0.7402 21.2989,-1.1083 9.2406,-0.2125 19.1426,-0.3875 22.0046,-0.3889 2.8618,0 5.2431,-0.1068 5.2916,-0.2343 0.049,-0.1275 5.5364,-0.2764 12.1953,-0.3308 10.6181,-0.087 12.0884,-0.1476 11.9555,-0.4951 -0.083,-0.218 -0.2728,-0.9621 -0.4212,-1.6537 -0.1483,-0.6915 -0.3788,-1.2573 -0.5123,-1.2573 -0.6033,0 -0.1381,-0.4391 0.9312,-0.8788 1.3991,-0.5753 1.9184,-0.3856 3.0017,1.0969 0.6782,0.9282 1.298,1.6234 3.9373,4.4163 l 1.1014,1.1655 14.509,-0.3674 c 7.98,-0.202 26.0581,-0.6373 40.17364,-0.9672 14.11552,-0.3299 25.70427,-0.6956 25.75277,-0.8127 0.0485,-0.1172 1.17962,-0.2107 2.51354,-0.2078 2.66153,0.01 22.71779,-2.0833 22.93057,-2.3884 0.0728,-0.1044 1.73963,-0.3415 3.70416,-0.5269 2.62655,-0.2479 3.887,-0.491 4.7625,-0.9186 1.61317,-0.7879 2.39424,-1.2498 2.97797,-1.7611 0.27024,-0.2367 1.2288,-0.8155 2.13013,-1.2862 0.90133,-0.4707 1.734,-1.0211 1.85037,-1.2232 0.11636,-0.2021 0.35448,-0.3701 0.52916,-0.3734 0.95047,-0.018 1.49815,-0.9638 2.06415,-3.566 0.31649,-1.4552 0.65569,-2.7053 0.75372,-2.7781 0.0981,-0.073 0.3275,-0.8467 0.50988,-1.7198 1.1167,-5.3456 2.00054,-9.0075 2.19252,-9.084 0.12171,-0.049 0.22632,-0.3462 0.23249,-0.6615 0.006,-0.3153 0.17462,-1.2281 0.37436,-2.0285 0.31665,-1.2688 0.36605,1.5008 0.38568,21.6271 l 0.0225,23.0822 H 254.01279 0.01279033 l 0.032,-28.113 z m 0.079,-252.611902 c 0,-2.8377 0.039,-3.9985 0.087,-2.5797 0.048,1.4188 0.048,3.7405 0,5.1594 -0.047,1.4188 -0.087,0.2579 -0.087,-2.5797 z"
         style="fill:#846f00;fill-opacity:1;stroke-width:0.26458332" />
    </g>
  </g>
</svg>
