<?xml version="1.0" encoding="UTF-8" standalone="no"?>
<!-- Created with Inkscape (http://www.inkscape.org/) -->

<svg
   xmlns:dc="http://purl.org/dc/elements/1.1/"
   xmlns:cc="http://creativecommons.org/ns#"
   xmlns:rdf="http://www.w3.org/1999/02/22-rdf-syntax-ns#"
   xmlns:svg="http://www.w3.org/2000/svg"
   xmlns="http://www.w3.org/2000/svg"
   xmlns:sodipodi="http://sodipodi.sourceforge.net/DTD/sodipodi-0.dtd"
   xmlns:inkscape="http://www.inkscape.org/namespaces/inkscape"
   width="1920"
   height="1080"
   viewBox="0 0 507.99999 285.75001"
   version="1.1"
   id="svg8"
   inkscape:version="0.92.2 (5c3e80d, 2017-08-06)"
   sodipodi:docname="05_top.svg">
  <defs
     id="defs2">
    <pattern
       y="0"
       x="0"
       height="6"
       width="6"
       patternUnits="userSpaceOnUse"
       id="EMFhbasepattern" />
  </defs>
  <sodipodi:namedview
     id="base"
     pagecolor="#ffffff"
     bordercolor="#666666"
     borderopacity="1.0"
     inkscape:pageopacity="0.0"
     inkscape:pageshadow="2"
     inkscape:zoom="0.35355339"
     inkscape:cx="261.5469"
     inkscape:cy="629.26785"
     inkscape:document-units="mm"
     inkscape:current-layer="layer1"
     showgrid="false"
     inkscape:window-width="1920"
     inkscape:window-height="1017"
     inkscape:window-x="-8"
     inkscape:window-y="-8"
     inkscape:window-maximized="1"
     units="px"
     showguides="true" />
  <metadata
     id="metadata5">
    <rdf:RDF>
      <cc:Work
         rdf:about="">
        <dc:format>image/svg+xml</dc:format>
        <dc:type
           rdf:resource="http://purl.org/dc/dcmitype/StillImage" />
        <dc:title></dc:title>
      </cc:Work>
    </rdf:RDF>
  </metadata>
  <g
     inkscape:label="Layer 1"
     inkscape:groupmode="layer"
     id="layer1"
     transform="translate(0,-11.25)">
    <g
       id="g276">
      <path
         inkscape:connector-curvature="0"
         id="path396"
         d="m 0.14365962,268.93932 c 0,-15.498 0.032,-21.8381 0.071,-14.0891 0.039,7.749 0.039,20.4291 0,28.1781 -0.039,7.749 -0.071,1.4089 -0.071,-14.089 z M 442.66411,105.08402 c -5.6025,-0.1376 -10.24616,-0.3334 -10.31886,-0.4352 -0.073,-0.1018 -11.6206,-0.467 -25.6619,-0.8115 l -25.5295,-0.6265 -1.5109,-1.4717 c -0.831,-0.8095 -1.9205,-1.848995 -2.4211,-2.310195 -0.8978,-0.827 -0.9018,-0.8406 -0.2963,-0.9926 0.3377,-0.085 0.7711,-0.3083 0.9632,-0.4968 0.192,-0.1885 1.0338,-0.618802 1.8705,-0.956402 0.8368,-0.3375 1.5214,-0.6912 1.5214,-0.7859 0,-0.095 0.7441,-0.4679 1.6536,-0.8292 l 1.6537,-0.6569 -1.6814,-0.079 c -1.6499,-0.078 -1.7104,-0.1078 -3.228,-1.5875 -0.8506,-0.8295 -1.9561,-1.8854 -2.4567,-2.3466 -0.8978,-0.8269 -0.9018,-0.8406 -0.2963,-0.9925 0.3377,-0.085 0.7711,-0.3083 0.9632,-0.4968 0.192,-0.1885 1.0338,-0.6189 1.8705,-0.9564 0.8368,-0.3375 1.5218,-0.6891 1.5224,-0.7814 0,-0.092 0.5363,-0.3878 1.1906,-0.6569 0.6543,-0.2691 1.1896,-0.6561 1.1896,-0.8599 0,-0.2039 -0.1085,-0.3707 -0.2412,-0.3707 -0.1326,0 -0.5682,-0.8334 -0.9678,-1.8521 -0.3997,-1.0186 -0.805,-1.8521 -0.9008,-1.8521 -0.096,0 -0.4548,-0.6846 -0.7979,-1.5213 -0.3431,-0.8367 -0.7073,-1.5809 -0.8092,-1.6537 -0.102,-0.073 -0.4643,-0.7871 -0.805,-1.5875 -0.3408,-0.8003 -0.8023,-1.6541 -1.0254,-1.8972 -0.2232,-0.2432 -0.6404,-1.0468 -0.927,-1.786 -0.2867,-0.7391 -0.6004,-1.3438 -0.6969,-1.3438 -0.097,0 -0.45,-0.6846 -0.7852,-1.5214 -0.3353,-0.8367 -0.6988,-1.5833 -0.8078,-1.6589 -0.1091,-0.076 -0.4514,-0.7282 -0.7608,-1.4499 -0.3093,-0.7218 -0.6482,-1.3743 -0.7531,-1.4499 -0.1048,-0.076 -0.5382,-0.9711 -0.9632,-1.9897 -0.425,-1.0187 -0.9132,-1.9955 -1.0848,-2.1709 -0.1717,-0.1753 -0.5281,-0.9194 -0.7921,-1.6536 -0.264,-0.7342 -0.5618,-1.3349 -0.6616,-1.3349 -0.1,0 -0.4474,-0.6548 -0.7723,-1.4552 -0.3248,-0.8004 -0.6723,-1.4552 -0.7722,-1.4552 -0.1,0 -0.4023,-0.614 -0.6722,-1.3644 -0.2698,-0.7505 -0.6942,-1.568 -0.9429,-1.8167 -0.2487,-0.2488 -0.6677,-1.0164 -0.931,-1.7059 -0.2633,-0.6895 -0.6113,-1.39 -0.7733,-1.5567 -0.1619,-0.1668 -0.5727,-0.958 -0.9127,-1.7584 -0.3401,-0.8004 -0.7,-1.5147 -0.7998,-1.5875 -0.1,-0.073 -0.5195,-0.936 -0.9326,-1.9182 -0.413,-0.9823 -0.8286,-1.786 -0.9236,-1.786 -0.095,0 -0.3886,-0.6007 -0.6526,-1.3349 -0.264,-0.7342 -0.6196,-1.4783 -0.7901,-1.6536 -0.1706,-0.1753 -0.5884,-0.9736 -0.9284,-1.774 -0.3401,-0.8003 -0.7,-1.5147 -0.7998,-1.5875 -0.1,-0.073 -0.5195,-0.9359 -0.9325,-1.9182 -0.4131,-0.9823 -0.8332,-1.7859 -0.9336,-1.7859 -0.1004,0 -0.3387,-0.4732 -0.5295,-1.0515 -0.1909,-0.5783 -0.5708,-1.2916 -0.8442,-1.5851 -0.2735,-0.2936 -0.7482,-1.1896 -1.055,-1.9913 -0.3068,-0.8016 -0.6414,-1.4576 -0.7436,-1.4576 -0.1022,0 -0.5239,-0.8398 -0.9372,-1.8664 l -0.7513,-1.8664 -14.5141,0.081 c -9.9318,0.055 -14.5736,0.1699 -14.7026,0.3636 -0.1038,0.1558 -1.8556,0.49 -3.8929,0.7428 -2.0372,0.2529 -4.0775,0.5231 -4.5338,0.6006 -0.8108,0.1376 -0.8554,0.09 -1.9501,-2.0658 -0.6161,-1.2136 -1.225,-2.2462 -1.3531,-2.2948 -0.128,-0.049 -0.2328,-0.2767 -0.2328,-0.5071 0,-0.2304 -0.08,-0.3384 -0.1788,-0.24 -0.098,0.098 -0.256,1.2482 -0.3503,2.5551 -0.094,1.307 -0.2451,2.45 -0.3352,2.5401 -0.09,0.09 -5.9749,0.6512 -13.0774,1.2469 -7.1024,0.5957 -12.9531,1.1779 -13.0016,1.2939 -0.137,0.3274 -1.1035,0.2483 -1.4645,-0.1199 -0.3068,-0.313 -0.8618,-1.6267 -1.909,-4.5189 -0.5762,-1.5912 -0.7237,-1.3606 -1.3296,2.0792 -0.2556,1.451 -0.5437,2.6976 -0.6402,2.7704 -0.097,0.073 -0.2543,0.4539 -0.3504,0.8469 l -0.1748,0.7146 -1.3873,-0.6459 c -0.763,-0.3552 -1.5276,-0.647 -1.6991,-0.6484 -0.1715,0 -0.4849,-0.1757 -0.6964,-0.3872 -0.3497,-0.3497 -3.6949,-1.8395 -6.857,-3.0538 -0.6878,-0.2641 -1.4405,-0.6701 -1.6725,-0.9022 -0.2321,-0.232 -0.5335,-0.4219 -0.6698,-0.4219 -0.462,0 -6.6966,-2.7111 -7.0521,-3.0666 -0.1942,-0.1942 -0.736,-0.4667 -1.204,-0.6056 -1.27,-0.3768 -6.6226,-2.6536 -6.7906,-2.8885 -0.08,-0.1121 -0.9537,-0.5425 -1.9411,-0.9564 l -1.7953,-0.7525 -29.6901,0.7462 c -16.3296,0.4104 -29.7497,0.8254 -29.8224,0.9222 -0.073,0.097 -3.1089,0.2394 -6.7469,0.3169 -24.5876,0.5238 -127.024991,3.2487 -127.132291,3.3819 -0.073,0.09 -11.3242,0.4251 -25.0031,0.7442 -13.679,0.319 -25.4363993,0.6318 -26.1275993,0.6952 l -1.25680008,0.1151 v -5.0146 -5.0146 H 254.01605 508.01619 v 5.5163 5.5164 l -2.4474,0.1569 c -1.34606,0.086 -6.8527,0.3642 -12.237,0.6175 -5.3842,0.2534 -9.8292,0.5579 -9.8777,0.6768 -0.049,0.1188 -1.1797,0.23 -2.5136,0.247 -1.3339,0.017 -3.1869,0.1063 -4.1176,0.1985 l -1.6923,0.1675 -0.5536,1.5875 c -0.3045,0.8731 -0.6346,1.648 -0.7334,1.7219 -0.099,0.074 -0.4913,0.9625 -0.8722,1.9745 -0.381,1.0121 -0.7823,1.9041 -0.8919,1.9823 -0.1096,0.078 -0.4328,0.8469 -0.7183,1.7083 -0.2854,0.8615 -0.6601,1.7084 -0.8325,1.8822 -0.1725,0.1738 -0.5161,0.9352 -0.7637,1.6921 -0.2476,0.7569 -0.591,1.5172 -0.7631,1.6897 -0.1721,0.1725 -0.3836,0.5517 -0.4699,0.8427 -0.4199,1.4154 -1.3363,3.7189 -1.5262,3.8365 -0.1175,0.073 -0.4619,0.8388 -0.7654,1.7024 -0.3035,0.8635 -0.6528,1.6374 -0.7763,1.7198 -0.1235,0.082 -0.2955,0.3878 -0.3822,0.6788 -0.382,1.2818 -1.0445,2.9158 -1.2326,3.0398 -0.2168,0.143 -1.2954,2.897 -1.5295,3.9055 -0.076,0.3275 -0.2337,0.5953 -0.3504,0.5953 -0.1167,0 -0.4697,0.774 -0.7845,1.7198 -0.3147,0.9459 -0.6655,1.7198 -0.7796,1.7198 -0.114,0 -0.4774,0.8037 -0.8074,1.786 -0.3301,0.9822 -0.676,1.8454 -0.7687,1.9182 -0.2222,0.1744 -0.772,1.4321 -1.2723,2.9104 -0.2216,0.6549 -0.4794,1.2502 -0.5728,1.3229 -0.234,0.1824 -1.3554,2.9775 -1.3554,3.3786 0,0.1791 -0.1094,0.3256 -0.243,0.3256 -0.1337,0 -0.5006,0.7739 -0.8153,1.7198 -0.3148,0.9459 -0.6651,1.7198 -0.7784,1.7198 -0.1133,0 -0.5389,0.9796 -0.9458,2.1769 -0.4068,1.1973 -0.8997,2.3369 -1.0953,2.5324 -0.1955,0.1956 -0.3555,0.5216 -0.3555,0.7246 0,0.3982 -0.82148,2.2865 -1.08918,2.5036 -0.09,0.073 -0.4332,0.9359 -0.7633,1.9182 -0.3301,0.9823 -0.692,1.7859 -0.8042,1.7859 -0.1879,0 -1.0475,2.2043 -1.0475,2.6862 0,0.1159 0.387,0.4089 0.8599,0.6513 0.4729,0.2423 0.9194,0.5277 0.9922,0.6342 0.073,0.1065 0.7871,0.5301 1.5875,0.9413 0.80028,0.4112 1.53888,0.8822 1.64108,1.0465 0.1023,0.1644 0.6678,0.5162 1.2568,0.7818 0.589,0.2656 1.0708,0.5635 1.0708,0.662 0,0.099 0.5953,0.458 1.3229,0.7988 0.7277,0.3408 1.323,0.7244 1.323,0.8525 0,0.1281 0.4215,0.409 0.9367,0.6242 0.826,0.3452 1.0552,0.9046 0.3706,0.9046 -0.137,0 -0.4997,0.2506 -0.806,0.557 -0.5408,0.5407 -0.7092,0.5521 -5.7547,0.3892 l -5.19768,-0.1678 1.0584,0.5732 c 0.582,0.3153 1.1178,0.660602 1.1906,0.767402 0.073,0.1068 0.7871,0.5306 1.5875,0.9418 0.80028,0.4112 1.53888,0.8822 1.64108,1.0466 0.1023,0.1644 0.6678,0.516195 1.2568,0.781695 0.589,0.2656 1.0708,0.5635 1.0708,0.6621 0,0.099 0.5953,0.458 1.3229,0.7988 0.7277,0.3408 1.323,0.7244 1.323,0.8525 0,0.128 0.4215,0.4089 0.9367,0.6242 0.826,0.3451 1.0552,0.9045 0.3706,0.9045 -0.137,0 -0.4871,0.2382 -0.7782,0.5292 -0.6037,0.6037 0.7363,0.5877 -15.61038,0.1864 z"
         style="fill:#846f00;fill-opacity:1;stroke-width:0.26458332" />
    </g>
  </g>
</svg>
